<svg version="1.1" viewBox="0.0 0.0 100.0 100.0" fill="none" stroke="none" stroke-linecap="square" stroke-miterlimit="10" xmlns:xlink="http://www.w3.org/1999/xlink" xmlns="http://www.w3.org/2000/svg"><clipPath id="p.0"><path d="m0 0l100.0 0l0 100.0l-100.0 0l0 -100.0z" clip-rule="nonzero"/></clipPath><g clip-path="url(#p.0)"><path fill="#000000" fill-opacity="0.0" d="m0 0l100.0 0l0 100.0l-100.0 0z" fill-rule="evenodd"/><path fill="#000000" fill-opacity="0.0" d="m27.433071 50.0l-27.433071 0" fill-rule="evenodd"/><path stroke="#ffffff" stroke-width="8.0" stroke-linejoin="round" stroke-linecap="butt" d="m27.433071 50.0l-27.433071 0" fill-rule="evenodd"/><path fill="#000000" fill-opacity="0.0" d="m68.86614 12.275591l0 0c5.0036087 0 9.802292 1.9876766 13.340378 5.5257645c3.538086 3.5380878 5.5257645 8.336765 5.5257645 13.340378l-18.866142 0z" fill-rule="evenodd"/><path fill="#000000" fill-opacity="0.0" d="m68.86614 12.275591l0 0c5.0036087 0 9.802292 1.9876766 13.340378 5.5257645c3.538086 3.5380878 5.5257645 8.336765 5.5257645 13.340378" fill-rule="evenodd"/><path stroke="#ffffff" stroke-width="8.0" stroke-linejoin="round" stroke-linecap="butt" d="m68.86614 12.275591l0 0c5.0036087 0 9.802292 1.9876766 13.340378 5.5257645c3.538086 3.5380878 5.5257645 8.336765 5.5257645 13.340378" fill-rule="evenodd"/><path fill="#000000" fill-opacity="0.0" d="m87.732285 68.874016l0 0c0 5.0036087 -1.9876785 9.802292 -5.5257645 13.340378c-3.538086 3.538086 -8.336769 5.5257645 -13.340378 5.5257645l0 -18.866142z" fill-rule="evenodd"/><path fill="#000000" fill-opacity="0.0" d="m87.732285 68.874016l0 0c0 5.0036087 -1.9876785 9.802292 -5.5257645 13.340378c-3.538086 3.538086 -8.336769 5.5257645 -13.340378 5.5257645" fill-rule="evenodd"/><path stroke="#ffffff" stroke-width="8.0" stroke-linejoin="round" stroke-linecap="butt" d="m87.732285 68.874016l0 0c0 5.0036087 -1.9876785 9.802292 -5.5257645 13.340378c-3.538086 3.538086 -8.336769 5.5257645 -13.340378 5.5257645" fill-rule="evenodd"/><path fill="#000000" fill-opacity="0.0" d="m31.133858 87.732285l0 0c-5.0036106 0 -9.802288 -1.9876785 -13.340376 -5.5257645c-3.5380878 -3.538086 -5.5257654 -8.336769 -5.5257654 -13.340378l18.866142 0z" fill-rule="evenodd"/><path fill="#000000" fill-opacity="0.0" d="m31.133858 87.732285l0 0c-5.0036106 0 -9.802288 -1.9876785 -13.340376 -5.5257645c-3.5380878 -3.538086 -5.5257654 -8.336769 -5.5257654 -13.340378" fill-rule="evenodd"/><path stroke="#ffffff" stroke-width="8.0" stroke-linejoin="round" stroke-linecap="butt" d="m31.133858 87.732285l0 0c-5.0036106 0 -9.802288 -1.9876785 -13.340376 -5.5257645c-3.5380878 -3.538086 -5.5257654 -8.336769 -5.5257654 -13.340378" fill-rule="evenodd"/><path fill="#000000" fill-opacity="0.0" d="m12.267716 31.133858l0 0c0 -5.0036106 1.9876776 -9.802288 5.5257654 -13.340376c3.5380878 -3.5380878 8.336765 -5.5257654 13.340376 -5.5257654l0 18.866142z" fill-rule="evenodd"/><path fill="#000000" fill-opacity="0.0" d="m12.267716 31.133858l0 0c0 -5.0036106 1.9876776 -9.802288 5.5257654 -13.340376c3.5380878 -3.5380878 8.336765 -5.5257654 13.340376 -5.5257654" fill-rule="evenodd"/><path stroke="#ffffff" stroke-width="8.0" stroke-linejoin="round" stroke-linecap="butt" d="m12.267716 31.133858l0 0c0 -5.0036106 1.9876776 -9.802288 5.5257654 -13.340376c3.5380878 -3.5380878 8.336765 -5.5257654 13.340376 -5.5257654" fill-rule="evenodd"/><path fill="#000000" fill-opacity="0.0" d="m72.56693 50.0l27.433067 0" fill-rule="evenodd"/><path stroke="#ffffff" stroke-width="8.0" stroke-linejoin="round" stroke-linecap="butt" d="m72.56693 50.0l27.433067 0" fill-rule="evenodd"/><path fill="#000000" fill-opacity="0.0" d="m50.0 72.56693l0 27.433067" fill-rule="evenodd"/><path stroke="#ffffff" stroke-width="8.0" stroke-linejoin="round" stroke-linecap="butt" d="m50.0 72.56693l0 27.433067" fill-rule="evenodd"/><path fill="#000000" fill-opacity="0.0" d="m50.0 0l0 27.433071" fill-rule="evenodd"/><path stroke="#ffffff" stroke-width="8.0" stroke-linejoin="round" stroke-linecap="butt" d="m50.0 0l0 27.433071" fill-rule="evenodd"/></g></svg>