<svg version="1.1" viewBox="0.0 0.0 100.0 100.0" fill="none" stroke="none" stroke-linecap="square" stroke-miterlimit="10" xmlns:xlink="http://www.w3.org/1999/xlink" xmlns="http://www.w3.org/2000/svg"><clipPath id="p.0"><path d="m0 0l100.0 0l0 100.0l-100.0 0l0 -100.0z" clip-rule="nonzero"/></clipPath><g clip-path="url(#p.0)"><path fill="#000000" fill-opacity="0.0" d="m0 0l100.0 0l0 100.0l-100.0 0z" fill-rule="evenodd"/><path fill="#000000" fill-opacity="0.0" d="m17.11811 50.0l0 0c0 -18.160166 14.721724 -32.88189 32.88189 -32.88189l0 0c8.720818 0 17.084457 3.4643307 23.251007 9.630882c6.1665497 6.1665497 9.630882 14.5301895 9.630882 23.251007l0 0c0 18.160164 -14.721725 32.88189 -32.88189 32.88189l0 0c-18.160166 0 -32.88189 -14.721725 -32.88189 -32.88189z" fill-rule="evenodd"/><path stroke="#ffffff" stroke-width="12.0" stroke-linejoin="round" stroke-linecap="butt" d="m17.11811 50.0l0 0c0 -18.160166 14.721724 -32.88189 32.88189 -32.88189l0 0c8.720818 0 17.084457 3.4643307 23.251007 9.630882c6.1665497 6.1665497 9.630882 14.5301895 9.630882 23.251007l0 0c0 18.160164 -14.721725 32.88189 -32.88189 32.88189l0 0c-18.160166 0 -32.88189 -14.721725 -32.88189 -32.88189z" fill-rule="evenodd"/><path fill="#000000" fill-opacity="0.0" d="m17.11811 50.0l-16.88189 0" fill-rule="evenodd"/><path stroke="#ffffff" stroke-width="12.0" stroke-linejoin="round" stroke-linecap="butt" d="m17.11811 50.0l-16.88189 0" fill-rule="evenodd"/><path fill="#000000" fill-opacity="0.0" d="m99.76378 50.0l-16.88189 0" fill-rule="evenodd"/><path stroke="#ffffff" stroke-width="12.0" stroke-linejoin="round" stroke-linecap="butt" d="m99.76378 50.0l-16.88189 0" fill-rule="evenodd"/><path fill="#000000" fill-opacity="0.0" d="m50.0 17.11811l0 -16.88189" fill-rule="evenodd"/><path stroke="#ffffff" stroke-width="12.0" stroke-linejoin="round" stroke-linecap="butt" d="m50.0 17.11811l0 -16.88189" fill-rule="evenodd"/><path fill="#000000" fill-opacity="0.0" d="m50.0 99.76378l0 -16.88189" fill-rule="evenodd"/><path stroke="#ffffff" stroke-width="12.0" stroke-linejoin="round" stroke-linecap="butt" d="m50.0 99.76378l0 -16.88189" fill-rule="evenodd"/></g></svg>