<svg version="1.1" viewBox="0.0 0.0 100.0 100.0" fill="none" stroke="none" stroke-linecap="square" stroke-miterlimit="10" xmlns:xlink="http://www.w3.org/1999/xlink" xmlns="http://www.w3.org/2000/svg"><clipPath id="p.0"><path d="m0 0l100.0 0l0 100.0l-100.0 0l0 -100.0z" clip-rule="nonzero"/></clipPath><g clip-path="url(#p.0)"><path fill="#000000" fill-opacity="0.0" d="m0 0l100.0 0l0 100.0l-100.0 0z" fill-rule="evenodd"/><path fill="#000000" fill-opacity="0.0" d="m22.12417 50.013935l0 0c0 -15.403091 12.486673 -27.889765 27.889765 -27.889765l0 0c7.396824 0 14.490696 2.9383774 19.721043 8.168722c5.230339 5.2303467 8.168716 12.324215 8.168716 19.721043l0 0c0 15.403088 -12.486671 27.88976 -27.88976 27.88976l0 0c-15.403091 0 -27.889765 -12.486671 -27.889765 -27.88976z" fill-rule="evenodd"/><path stroke="#ffffff" stroke-width="12.0" stroke-linejoin="round" stroke-linecap="butt" d="m22.12417 50.013935l0 0c0 -15.403091 12.486673 -27.889765 27.889765 -27.889765l0 0c7.396824 0 14.490696 2.9383774 19.721043 8.168722c5.230339 5.2303467 8.168716 12.324215 8.168716 19.721043l0 0c0 15.403088 -12.486671 27.88976 -27.88976 27.88976l0 0c-15.403091 0 -27.889765 -12.486671 -27.889765 -27.88976z" fill-rule="evenodd"/><path fill="#000000" fill-opacity="0.0" d="m50.007874 22.12417l0 -21.480314" fill-rule="evenodd"/><path stroke="#ffffff" stroke-width="12.0" stroke-linejoin="round" stroke-linecap="butt" d="m50.007874 22.12417l0 -21.480314" fill-rule="evenodd"/><path fill="#000000" fill-opacity="0.0" d="m77.903694 50.0l21.480316 0" fill-rule="evenodd"/><path stroke="#ffffff" stroke-width="12.0" stroke-linejoin="round" stroke-linecap="butt" d="m77.903694 50.0l21.480316 0" fill-rule="evenodd"/><path fill="#000000" fill-opacity="0.0" d="m48.862514 77.903694l0 21.480316" fill-rule="evenodd"/><path stroke="#ffffff" stroke-width="12.0" stroke-linejoin="round" stroke-linecap="butt" d="m48.862514 77.903694l0 21.480316" fill-rule="evenodd"/><path fill="#000000" fill-opacity="0.0" d="m22.12417 50.01212l-21.480314 0" fill-rule="evenodd"/><path stroke="#ffffff" stroke-width="12.0" stroke-linejoin="round" stroke-linecap="butt" d="m22.12417 50.01212l-21.480314 0" fill-rule="evenodd"/></g></svg>