<svg version="1.1" viewBox="0.0 0.0 884.0944881889764 664.0" fill="none" stroke="none" stroke-linecap="square" stroke-miterlimit="10" xmlns:xlink="http://www.w3.org/1999/xlink" xmlns="http://www.w3.org/2000/svg"><clipPath id="p.0"><path d="m0 0l884.0945 0l0 664.0l-884.0945 0l0 -664.0z" clip-rule="nonzero"/></clipPath><g clip-path="url(#p.0)"><path fill="#000000" fill-opacity="0.0" d="m0 0l884.0945 0l0 664.0l-884.0945 0z" fill-rule="evenodd"/><path fill="#434343" d="m665.5925 266.49213l47.748047 0l5.5354004 20.661407l43.716553 0l-34.0 -37.661407l-62.251953 0z" fill-rule="evenodd"/><path fill="#bb7554" d="m627.10236 256.0525l20.346436 0l0 20.881897l-20.346436 0z" fill-rule="evenodd"/><path fill="#bb7554" d="m495.55905 256.0525l59.93698 0l0 20.881897l-59.93698 0z" fill-rule="evenodd"/><path fill="#666666" d="m640.63257 274.5013l217.54327 0l0 27.496063l-217.54327 0z" fill-rule="evenodd"/><path fill="#bb7554" d="m543.02625 241.67717l8.272949 -2.1706085l2.5774536 -0.27033997l19.934387 0.54067993l12.8845215 0.40682983l20.073486 0.54330444l18.307068 0.54330444l5.425232 0.27033997l15.595764 1.3569641l2.440979 2.577423l-0.27038574 17.223083l-150.13123 0z" fill-rule="evenodd"/><path fill="#bb7554" d="m501.39108 312.19946l2.7112732 3.9317627l5.0183716 1.9002686l11.6640625 -1.4934387l22.51178 -7.729645l11.527588 -1.3569641l36.07611 0l37.83728 0.13647461l8.409424 -1.6272888l7.595825 -3.3910828l5.2886963 -3.5249329l-1.763794 -29.02362l-151.75851 0z" fill-rule="evenodd"/><path fill="#666666" d="m19.964613 303.10367l-14.275591 5.1207275l-1.3963256 12.259857l3.8792648 30.724396l6.20735 27.0l6.826771 18.154877l12.724411 -5.4304504z" fill-rule="evenodd"/><path fill="#bb7554" d="m227.5919 279.36353l5.897644 41.275574l-199.8609 70.13913l-6.5196857 -18.931763l-5.5853024 -29.48294l-3.4146976 -24.826782l1.5538063 -14.587921l125.37795 -17.37796l7.7585297 1.551178l7.448822 3.7244263l5.897644 0l11.170593 -1.2414856z" fill-rule="evenodd"/><path fill="#999999" d="m495.12344 230.37886l56.062958 0l0 12.535446l-56.062958 0z" fill-rule="evenodd"/><path fill="#999999" d="m486.17847 222.7571l8.944885 0l0 20.15747l-8.944885 0z" fill-rule="evenodd"/><path fill="#999999" d="m667.32544 242.9147l-20.15747 0l0 61.88977l20.15747 0z" fill-rule="evenodd"/><path fill="#434343" d="m327.9134 341.62335l-8.428101 -33.5748l-5.5876465 0l8.42807 33.5748z" fill-rule="evenodd"/><path fill="#434343" d="m343.29172 348.37146l10.181213 -39.84253l5.7557983 0l-10.181213 39.84253z" fill-rule="evenodd"/><path fill="#434343" d="m348.95786 346.47244l-50.999847 0.15322876l-1.1261292 5.6420593l50.999847 -0.15322876z" fill-rule="evenodd"/><path fill="#bb7554" d="m240.09186 309.74146l11.750656 36.75067l-15.750656 41.75064l-3.5013123 8.498688l-0.7480316 8.249359l2.0 6.5013123l18.748032 10.0l11.501312 0.49868774l7.7506714 -4.4986877l5.7480164 -19.0l21.251984 -50.0l13.498688 -10.0l2.5013123 -7.7506714l1.0 -18.0z" fill-rule="evenodd"/><path fill="#434343" d="m863.36237 273.5584l16.439392 0l0 29.252045l-16.439392 0z" fill-rule="evenodd"/><path fill="#434343" d="m821.9462 268.99188l44.02368 0l0 38.517426l-44.02368 0z" fill-rule="evenodd"/><path fill="#434343" d="m378.10236 310.74146l0 17.0l5.0 23.501312l8.501312 25.498688l9.238861 21.501312l9.0 17.24936l14.498688 21.75064l15.0 18.0l14.750641 15.249359l16.0 14.0l16.498688 12.750641l36.00003 -57.0l-12.748047 -8.251953l-13.0 -11.498688l-8.750671 -9.0l-8.0 -10.501312l-9.501312 -13.748047l-9.249329 -16.0l-6.249359 -14.0l-5.5013123 -12.750641l-3.7480164 -13.501312l-1.5013123 -7.4986877l0.24932861 -3.5013123l-0.74801636 -14.0z" fill-rule="evenodd"/><path fill="#666666" d="m225.82152 265.88058l277.7008 0l0 54.04724l-277.7008 0z" fill-rule="evenodd"/><path fill="#666666" d="m265.60367 242.9147l-11.170593 5.8950043l-11.950134 9.776901l-5.8950195 3.2572327l-6.6719055 4.1915894l44.068237 0z" fill-rule="evenodd"/><path fill="#666666" d="m265.45145 242.9147l280.88187 0l0 23.118103l-280.88187 0z" fill-rule="evenodd"/><path fill="#999999" d="m319.02124 259.88162l156.56693 0l0 16.881897l-156.56693 0z" fill-rule="evenodd"/><path fill="#434343" d="m828.83466 268.9908l32.498657 0l0 -35.37271l-20.0 0l0 8.123367z" fill-rule="evenodd"/><path fill="#bb7554" d="m581.126 256.0525l20.346436 0l0 20.881897l-20.346436 0z" fill-rule="evenodd"/></g></svg>