<svg version="1.1" viewBox="0.0 0.0 734.0 726.0" fill="none" stroke="none" stroke-linecap="square" stroke-miterlimit="10" xmlns:xlink="http://www.w3.org/1999/xlink" xmlns="http://www.w3.org/2000/svg"><clipPath id="p.0"><path d="m0 0l734.0 0l0 726.0l-734.0 0l0 -726.0z" clip-rule="nonzero"/></clipPath><g clip-path="url(#p.0)"><path fill="#000000" fill-opacity="0.0" d="m0 0l734.0 0l0 726.0l-734.0 0z" fill-rule="evenodd"/><path fill="#000000" fill-opacity="0.0" d="m356.66876 395.82394l118.36221 241.63779" fill-rule="evenodd"/><path stroke="#ffffff" stroke-width="24.0" stroke-linejoin="round" stroke-linecap="butt" d="m356.66876 395.82394l118.36221 241.63779" fill-rule="evenodd"/><path fill="#000000" fill-opacity="0.0" d="m476.10645 88.72277l-119.46457 217.82675" fill-rule="evenodd"/><path stroke="#ffffff" stroke-width="24.0" stroke-linejoin="round" stroke-linecap="butt" d="m476.10645 88.72277l-119.46457 217.82675" fill-rule="evenodd"/><path fill="#bb7554" d="m206.3307 323.14035l399.87402 0l0 79.71652l-399.87402 0z" fill-rule="evenodd"/><path fill="#bb7554" d="m0 312.5099l206.3307 0l0 100.97638l-206.3307 0z" fill-rule="evenodd"/><path fill="#666666" d="m301.09448 340.5748l206.33072 0l0 44.850403l-206.33072 0z" fill-rule="evenodd"/><path fill="#666666" d="m340.60367 306.5386l32.06299 0l0 25.12384l-32.06299 0z" fill-rule="evenodd"/><path fill="#666666" d="m340.60104 318.48557l260.126 0l0 15.816742l-260.126 0z" fill-rule="evenodd"/><path fill="#666666" d="m385.47507 306.5386l14.393707 0l0 25.12384l-14.393707 0z" fill-rule="evenodd"/><path fill="#666666" d="m412.67715 306.5386l14.393707 0l0 25.12384l-14.393707 0z" fill-rule="evenodd"/><path fill="#666666" d="m439.87927 306.5386l14.393707 0l0 25.12384l-14.393707 0z" fill-rule="evenodd"/><path fill="#666666" d="m467.08136 306.5386l14.393707 0l0 25.12384l-14.393707 0z" fill-rule="evenodd"/><path fill="#666666" d="m494.28348 306.5386l14.393677 0l0 25.12384l-14.393677 0z" fill-rule="evenodd"/><path fill="#666666" d="m521.48553 306.5386l14.393738 0l0 25.12384l-14.393738 0z" fill-rule="evenodd"/><path fill="#666666" d="m548.6877 306.5386l14.393677 0l0 25.12384l-14.393677 0z" fill-rule="evenodd"/><path fill="#666666" d="m575.8898 306.5386l24.850403 0l0 25.12384l-24.850403 0z" fill-rule="evenodd"/><path fill="#999999" d="m304.99545 343.0887l27.487762 0l0 15.81189l-27.487762 0z" fill-rule="evenodd"/><path fill="#b7b7b7" d="m308.01202 348.55453l24.48645 0l0 10.358246l-24.48645 0z" fill-rule="evenodd"/><path fill="#999999" d="m340.46848 343.0887l8.711182 0l0 15.81189l-8.711182 0z" fill-rule="evenodd"/><path fill="#b7b7b7" d="m340.46848 348.55453l8.711182 0l0 10.358246l-8.711182 0z" fill-rule="evenodd"/><path fill="#999999" d="m357.14963 343.0826l8.711182 0l0 15.81189l-8.711182 0z" fill-rule="evenodd"/><path fill="#b7b7b7" d="m357.14963 348.54846l8.711182 0l0 10.358246l-8.711182 0z" fill-rule="evenodd"/><path fill="#999999" d="m373.8308 343.08566l8.711182 0l0 15.81189l-8.711182 0z" fill-rule="evenodd"/><path fill="#b7b7b7" d="m373.8308 348.55148l8.711182 0l0 10.358246l-8.711182 0z" fill-rule="evenodd"/><path fill="#999999" d="m390.51196 343.07956l8.711182 0l0 15.81189l-8.711182 0z" fill-rule="evenodd"/><path fill="#b7b7b7" d="m390.51196 348.5454l8.711182 0l0 10.358246l-8.711182 0z" fill-rule="evenodd"/><path fill="#999999" d="m407.19315 343.0887l8.711182 0l0 15.81189l-8.711182 0z" fill-rule="evenodd"/><path fill="#b7b7b7" d="m407.19315 348.55453l8.711182 0l0 10.358246l-8.711182 0z" fill-rule="evenodd"/><path fill="#999999" d="m423.8743 343.0826l8.711182 0l0 15.81189l-8.711182 0z" fill-rule="evenodd"/><path fill="#b7b7b7" d="m423.8743 348.54846l8.711182 0l0 10.358246l-8.711182 0z" fill-rule="evenodd"/><path fill="#999999" d="m440.55548 343.0887l8.711182 0l0 15.81189l-8.711182 0z" fill-rule="evenodd"/><path fill="#b7b7b7" d="m440.55548 348.55453l8.711182 0l0 10.358246l-8.711182 0z" fill-rule="evenodd"/><path fill="#999999" d="m457.23663 343.0826l8.711182 0l0 15.81189l-8.711182 0z" fill-rule="evenodd"/><path fill="#b7b7b7" d="m457.23663 348.54846l8.711182 0l0 10.358246l-8.711182 0z" fill-rule="evenodd"/><path fill="#999999" d="m473.91782 343.08566l8.711182 0l0 15.81189l-8.711182 0z" fill-rule="evenodd"/><path fill="#b7b7b7" d="m473.91782 348.55148l8.711182 0l0 10.358246l-8.711182 0z" fill-rule="evenodd"/><path fill="#999999" d="m490.59897 343.07956l8.711182 0l0 15.81189l-8.711182 0z" fill-rule="evenodd"/><path fill="#b7b7b7" d="m490.59897 348.5454l8.711182 0l0 10.358246l-8.711182 0z" fill-rule="evenodd"/><path fill="#999999" d="m304.99545 382.61658l27.487762 0l0 -15.811859l-27.487762 0z" fill-rule="evenodd"/><path fill="#b7b7b7" d="m308.01202 377.15076l24.48645 0l0 -10.358246l-24.48645 0z" fill-rule="evenodd"/><path fill="#999999" d="m340.46848 382.61658l8.711182 0l0 -15.811859l-8.711182 0z" fill-rule="evenodd"/><path fill="#b7b7b7" d="m340.46848 377.15076l8.711182 0l0 -10.358246l-8.711182 0z" fill-rule="evenodd"/><path fill="#999999" d="m357.14963 382.62268l8.711182 0l0 -15.811859l-8.711182 0z" fill-rule="evenodd"/><path fill="#b7b7b7" d="m357.14963 377.15686l8.711182 0l0 -10.358246l-8.711182 0z" fill-rule="evenodd"/><path fill="#999999" d="m373.8308 382.61963l8.711182 0l0 -15.811859l-8.711182 0z" fill-rule="evenodd"/><path fill="#b7b7b7" d="m373.8308 377.1538l8.711182 0l0 -10.358246l-8.711182 0z" fill-rule="evenodd"/><path fill="#999999" d="m390.51196 382.62573l8.711182 0l0 -15.811859l-8.711182 0z" fill-rule="evenodd"/><path fill="#b7b7b7" d="m390.51196 377.1599l8.711182 0l0 -10.358246l-8.711182 0z" fill-rule="evenodd"/><path fill="#999999" d="m407.19315 382.61658l8.711182 0l0 -15.811859l-8.711182 0z" fill-rule="evenodd"/><path fill="#b7b7b7" d="m407.19315 377.15076l8.711182 0l0 -10.358246l-8.711182 0z" fill-rule="evenodd"/><path fill="#999999" d="m423.8743 382.62268l8.711182 0l0 -15.811859l-8.711182 0z" fill-rule="evenodd"/><path fill="#b7b7b7" d="m423.8743 377.15686l8.711182 0l0 -10.358246l-8.711182 0z" fill-rule="evenodd"/><path fill="#999999" d="m440.55548 382.61658l8.711182 0l0 -15.811859l-8.711182 0z" fill-rule="evenodd"/><path fill="#b7b7b7" d="m440.55548 377.15076l8.711182 0l0 -10.358246l-8.711182 0z" fill-rule="evenodd"/><path fill="#999999" d="m457.23663 382.62268l8.711182 0l0 -15.811859l-8.711182 0z" fill-rule="evenodd"/><path fill="#b7b7b7" d="m457.23663 377.15686l8.711182 0l0 -10.358246l-8.711182 0z" fill-rule="evenodd"/><path fill="#999999" d="m473.91782 382.61963l8.711182 0l0 -15.811859l-8.711182 0z" fill-rule="evenodd"/><path fill="#b7b7b7" d="m473.91782 377.1538l8.711182 0l0 -10.358246l-8.711182 0z" fill-rule="evenodd"/><path fill="#999999" d="m490.59897 382.62573l8.711182 0l0 -15.811859l-8.711182 0z" fill-rule="evenodd"/><path fill="#b7b7b7" d="m490.59897 377.1599l8.711182 0l0 -10.358246l-8.711182 0z" fill-rule="evenodd"/><path fill="#666666" d="m606.2047 331.6614l24.283447 0l0 62.677185l-24.283447 0z" fill-rule="evenodd"/><path fill="#666666" d="m674.8957 515.1234l0 0c-70.00427 -89.543365 -69.862854 -215.30112 0.3427124 -304.68677z" fill-rule="evenodd"/><path fill="#666666" d="m673.80237 195.59982l0 0c62.08191 102.34262 62.427063 230.64041 0.8967285 333.31564z" fill-rule="evenodd"/><path fill="#666666" d="m479.71408 68.77774c142.51859 25.775948 246.07309 149.98123 245.78928 294.8043c-0.28381348 144.82309 -104.32446 268.62152 -246.94293 293.83868l-7.0588684 -39.91803l0 0c123.28348 -21.798035 213.21921 -128.81198 213.46451 -254.00009c0.24536133 -125.188095 -89.2702 -232.55371 -212.46729 -254.8348z" fill-rule="evenodd"/><path fill="#666666" d="m600.73755 419.4624l-32.06299 0l0 -25.12387l32.06299 0z" fill-rule="evenodd"/><path fill="#666666" d="m600.7402 407.51544l-260.126 0l0 -15.816742l260.126 0z" fill-rule="evenodd"/><path fill="#666666" d="m555.86615 419.4624l-14.393738 0l0 -25.12387l14.393738 0z" fill-rule="evenodd"/><path fill="#666666" d="m528.66406 419.4624l-14.393738 0l0 -25.12387l14.393738 0z" fill-rule="evenodd"/><path fill="#666666" d="m501.46194 419.4624l-14.393707 0l0 -25.12387l14.393707 0z" fill-rule="evenodd"/><path fill="#666666" d="m474.25986 419.4624l-14.393707 0l0 -25.12387l14.393707 0z" fill-rule="evenodd"/><path fill="#666666" d="m447.05774 419.4624l-14.393707 0l0 -25.12387l14.393707 0z" fill-rule="evenodd"/><path fill="#666666" d="m419.85565 419.4624l-14.393707 0l0 -25.12387l14.393707 0z" fill-rule="evenodd"/><path fill="#666666" d="m392.65353 419.4624l-14.393677 0l0 -25.12387l14.393677 0z" fill-rule="evenodd"/><path fill="#666666" d="m365.45145 419.4624l-24.850403 0l0 -25.12387l24.850403 0z" fill-rule="evenodd"/></g></svg>