<svg version="1.1" viewBox="0.0 0.0 430.87664041994753 404.9133858267717" fill="none" stroke="none" stroke-linecap="square" stroke-miterlimit="10" xmlns:xlink="http://www.w3.org/1999/xlink" xmlns="http://www.w3.org/2000/svg"><clipPath id="p.0"><path d="m0 0l430.87665 0l0 404.9134l-430.87665 0l0 -404.9134z" clip-rule="nonzero"/></clipPath><g clip-path="url(#p.0)"><path fill="#000000" fill-opacity="0.0" d="m0 0l430.87665 0l0 404.9134l-430.87665 0z" fill-rule="evenodd"/><path fill="#434343" d="m377.71185 80.23491l20.566925 0l0 43.874016l-20.566925 0z" fill-rule="evenodd"/><path fill="#343333" d="m183.77126 239.1926l11.655899 -52.566925l8.911026 0l-11.655899 52.566925z" fill-rule="evenodd"/><path fill="#343333" d="m1.5842254 278.28583l113.291336 0l0 49.007874l-113.291336 0z" fill-rule="evenodd"/><path fill="#343333" d="m70.75963 237.93831l122.48819 0l0 9.102356l-122.48819 0z" fill-rule="evenodd"/><path fill="#343333" d="m56.884514 137.84915l363.43307 0l0 46.83464l-363.43307 0z" fill-rule="evenodd"/><path fill="#343333" d="m1.7124567 137.03264l20.44328 52.566925l34.958298 0l-20.44328 -52.566925z" fill-rule="evenodd"/><path fill="#343333" d="m0.8593357 279.17386l33.113766 -142.64568l114.4138 0l-33.11377 142.64568z" fill-rule="evenodd"/><path fill="#434343" d="m27.71565 137.03264l20.443277 52.566925l34.958298 0l-20.44328 -52.566925z" fill-rule="evenodd"/><path fill="#434343" d="m56.884514 137.0328l363.43307 0l0 22.551178l-363.43307 0z" fill-rule="evenodd"/><path fill="#434343" d="m15.102938 77.620735l20.56693 0l0 43.874016l-20.56693 0z" fill-rule="evenodd"/><path fill="#666666" d="m8.305737 97.97049l338.3937 0l0 32.0l-338.3937 0z" fill-rule="evenodd"/><path fill="#666666" d="m0.7296588 90.896324l429.41733 0l0 46.83465l-429.41733 0z" fill-rule="evenodd"/><path fill="#434343" d="m18.339895 99.368744l8.472441 0l0 29.889755l-8.472441 0z" fill-rule="evenodd"/><path fill="#434343" d="m35.739548 99.368744l8.472439 0l0 29.889755l-8.472439 0z" fill-rule="evenodd"/><path fill="#434343" d="m53.1392 99.368744l8.472439 0l0 29.889755l-8.472439 0z" fill-rule="evenodd"/><path fill="#434343" d="m70.53885 99.368744l8.472443 0l0 29.889755l-8.472443 0z" fill-rule="evenodd"/><path fill="#434343" d="m87.9385 99.368744l8.472443 0l0 29.889755l-8.472443 0z" fill-rule="evenodd"/><path fill="#434343" d="m398.27805 92.375824l10.141724 0l0 43.874023l-10.141724 0z" fill-rule="evenodd"/><path fill="#434343" d="m17.69316 310.16858l39.722923 -162.20471l62.41881 0l-39.722923 162.20471z" fill-rule="evenodd"/><path fill="#343333" d="m162.85814 175.99622l9.984253 60.53543l-26.645676 -58.236206z" fill-rule="evenodd"/><path fill="#434343" d="m138.84908 90.896324l52.44095 0l0 22.551186l-52.44095 0z" fill-rule="evenodd"/></g></svg>