<svg version="1.1" viewBox="0.0 0.0 353.68503937007875 404.20997375328085" fill="none" stroke="none" stroke-linecap="square" stroke-miterlimit="10" xmlns:xlink="http://www.w3.org/1999/xlink" xmlns="http://www.w3.org/2000/svg"><clipPath id="p.0"><path d="m0 0l353.68503 0l0 404.20996l-353.68503 0l0 -404.20996z" clip-rule="nonzero"/></clipPath><g clip-path="url(#p.0)"><path fill="#000000" fill-opacity="0.0" d="m0 0l353.68503 0l0 404.20996l-353.68503 0z" fill-rule="evenodd"/><path fill="#434343" d="m302.66724 116.74541l20.566925 0l0 43.87401l-20.566925 0z" fill-rule="evenodd"/><path fill="#343333" d="m183.11246 278.31726l11.655899 -52.566925l8.911026 0l-11.655884 52.566925z" fill-rule="evenodd"/><path fill="#343333" d="m0.070866145 318.26508l113.291336 0l0 49.007874l-113.291336 0z" fill-rule="evenodd"/><path fill="#343333" d="m70.10084 277.063l122.48818 0l0 9.102356l-122.48818 0z" fill-rule="evenodd"/><path fill="#343333" d="m56.225723 176.97379l289.7638 0l0 46.834656l-289.7638 0z" fill-rule="evenodd"/><path fill="#343333" d="m1.0536641 176.1573l20.44328 52.56694l34.958298 0l-20.44328 -52.56694z" fill-rule="evenodd"/><path fill="#343333" d="m0.20054305 318.29852l33.113766 -142.64568l114.413795 0l-33.11377 142.64568z" fill-rule="evenodd"/><path fill="#434343" d="m27.056856 176.1573l20.443281 52.56694l34.958298 0l-20.443283 -52.56694z" fill-rule="evenodd"/><path fill="#434343" d="m56.225723 176.15746l289.7638 0l0 22.551178l-289.7638 0z" fill-rule="evenodd"/><path fill="#434343" d="m14.444145 116.74541l20.566929 0l0 43.87401l-20.566929 0z" fill-rule="evenodd"/><path fill="#666666" d="m7.646944 137.09517l338.3937 0l0 32.0l-338.3937 0z" fill-rule="evenodd"/><path fill="#666666" d="m0.070866145 130.0212l353.5433 0l0 46.83464l-353.5433 0z" fill-rule="evenodd"/><path fill="#434343" d="m17.681103 138.49341l8.472441 0l0 29.88977l-8.472441 0z" fill-rule="evenodd"/><path fill="#434343" d="m35.080753 138.49341l8.472443 0l0 29.88977l-8.472443 0z" fill-rule="evenodd"/><path fill="#434343" d="m52.480404 138.49341l8.472443 0l0 29.88977l-8.472443 0z" fill-rule="evenodd"/><path fill="#434343" d="m69.88006 138.49341l8.472443 0l0 29.88977l-8.472443 0z" fill-rule="evenodd"/><path fill="#434343" d="m87.27971 138.49341l8.472443 0l0 29.88977l-8.472443 0z" fill-rule="evenodd"/><path fill="#434343" d="m323.49326 131.15666l10.141724 0l0 43.874023l-10.141724 0z" fill-rule="evenodd"/><path fill="#434343" d="m17.034367 349.29327l39.72292 -162.20474l62.418816 0l-39.722923 162.20474z" fill-rule="evenodd"/><path fill="#343333" d="m162.19934 215.1209l9.984253 60.535416l-26.645676 -58.236206z" fill-rule="evenodd"/><path fill="#434343" d="m138.19029 130.021l52.44095 0l0 22.551178l-52.44095 0z" fill-rule="evenodd"/></g></svg>