<svg version="1.1" viewBox="0.0 0.0 430.87664041994753 404.9133858267717" fill="none" stroke="none" stroke-linecap="square" stroke-miterlimit="10" xmlns:xlink="http://www.w3.org/1999/xlink" xmlns="http://www.w3.org/2000/svg"><clipPath id="p.0"><path d="m0 0l430.87665 0l0 404.9134l-430.87665 0l0 -404.9134z" clip-rule="nonzero"/></clipPath><g clip-path="url(#p.0)"><path fill="#000000" fill-opacity="0.0" d="m0 0l430.87665 0l0 404.9134l-430.87665 0z" fill-rule="evenodd"/><path fill="#343333" d="m-10.910761 336.4987l52.449326 -226.86615l111.20422 0l-52.449326 226.86615z" fill-rule="evenodd"/><path fill="#434343" d="m377.71185 80.23491l20.566925 0l0 43.874016l-20.566925 0z" fill-rule="evenodd"/><path fill="#343333" d="m183.77126 239.1926l11.655899 -52.566925l8.911026 0l-11.655899 52.566925z" fill-rule="evenodd"/><path fill="#343333" d="m70.75963 237.93831l122.48819 0l0 9.102356l-122.48819 0z" fill-rule="evenodd"/><path fill="#343333" d="m56.884514 145.84915l363.43307 0l0 46.83464l-363.43307 0z" fill-rule="evenodd"/><path fill="#343333" d="m1.7112861 137.02872l21.545671 59.842514l33.855904 0l-21.545673 -59.842514z" fill-rule="evenodd"/><path fill="#434343" d="m27.71565 137.03264l20.443277 52.566925l34.958298 0l-20.44328 -52.566925z" fill-rule="evenodd"/><path fill="#434343" d="m56.884514 137.03482l363.43307 0l0 32.0l-363.43307 0z" fill-rule="evenodd"/><path fill="#434343" d="m15.102938 77.620735l20.56693 0l0 43.874016l-20.56693 0z" fill-rule="evenodd"/><path fill="#666666" d="m8.305737 97.97049l338.3937 0l0 32.0l-338.3937 0z" fill-rule="evenodd"/><path fill="#666666" d="m0.7296588 90.89764l429.41733 0l0 52.566933l-429.41733 0z" fill-rule="evenodd"/><path fill="#434343" d="m19.195538 95.52993l8.472441 0l0 36.88189l-8.472441 0z" fill-rule="evenodd"/><path fill="#434343" d="m36.59515 95.52993l8.472439 0l0 36.88189l-8.472439 0z" fill-rule="evenodd"/><path fill="#434343" d="m53.994762 95.52993l8.472439 0l0 36.88189l-8.472439 0z" fill-rule="evenodd"/><path fill="#434343" d="m71.39437 95.52993l8.472443 0l0 36.88189l-8.472443 0z" fill-rule="evenodd"/><path fill="#434343" d="m88.79398 95.52993l8.472443 0l0 36.88189l-8.472443 0z" fill-rule="evenodd"/><path fill="#434343" d="m399.35416 92.37845l10.141724 0l0 43.874023l-10.141724 0z" fill-rule="evenodd"/><path fill="#434343" d="m17.692913 314.16797l39.72292 -166.20471l62.418816 0l-39.722923 166.20471z" fill-rule="evenodd"/><path fill="#343333" d="m146.79019 172.35071l5.952759 61.070877l-22.740158 -59.874023z" fill-rule="evenodd"/><path fill="#434343" d="m138.84908 90.896324l52.44095 0l0 22.551186l-52.44095 0z" fill-rule="evenodd"/><path fill="#343333" d="m97.03937 327.39108l16.755905 0l0 9.102356l-16.755905 0z" fill-rule="evenodd"/></g></svg>