<svg version="1.1" viewBox="0.0 0.0 430.87664041994753 404.9133858267717" fill="none" stroke="none" stroke-linecap="square" stroke-miterlimit="10" xmlns:xlink="http://www.w3.org/1999/xlink" xmlns="http://www.w3.org/2000/svg"><clipPath id="p.0"><path d="m0 0l430.87665 0l0 404.9134l-430.87665 0l0 -404.9134z" clip-rule="nonzero"/></clipPath><g clip-path="url(#p.0)"><path fill="#000000" fill-opacity="0.0" d="m0 0l430.87665 0l0 404.9134l-430.87665 0z" fill-rule="evenodd"/><path fill="#343333" d="m-10.181103 348.36746l52.449326 -226.86615l111.20422 0l-52.449326 226.86615z" fill-rule="evenodd"/><path fill="#434343" d="m378.44153 92.103676l20.566925 0l0 43.874016l-20.566925 0z" fill-rule="evenodd"/><path fill="#343333" d="m184.50092 251.06137l11.655884 -52.56694l8.911041 0l-11.655899 52.56694z" fill-rule="evenodd"/><path fill="#343333" d="m71.48929 249.80707l122.48819 0l0 9.102356l-122.48819 0z" fill-rule="evenodd"/><path fill="#343333" d="m57.614174 157.71791l363.43307 0l0 46.83464l-363.43307 0z" fill-rule="evenodd"/><path fill="#343333" d="m2.440945 148.89748l21.545673 59.84253l33.8559 0l-21.54567 -59.84253z" fill-rule="evenodd"/><path fill="#434343" d="m28.445309 148.9014l20.44328 52.56694l34.958298 0l-20.443283 -52.56694z" fill-rule="evenodd"/><path fill="#434343" d="m57.614174 148.9036l363.43307 0l0 32.0l-363.43307 0z" fill-rule="evenodd"/><path fill="#434343" d="m15.832597 89.4895l20.566929 0l0 43.87401l-20.566929 0z" fill-rule="evenodd"/><path fill="#666666" d="m9.035396 109.83926l338.3937 0l0 32.000008l-338.3937 0z" fill-rule="evenodd"/><path fill="#666666" d="m1.4593176 102.7664l429.41733 0l0 52.566925l-429.41733 0z" fill-rule="evenodd"/><path fill="#434343" d="m19.925198 107.3987l8.472441 0l0 36.881897l-8.472441 0z" fill-rule="evenodd"/><path fill="#434343" d="m37.32481 107.3987l8.472439 0l0 36.881897l-8.472439 0z" fill-rule="evenodd"/><path fill="#434343" d="m54.72442 107.3987l8.472443 0l0 36.881897l-8.472443 0z" fill-rule="evenodd"/><path fill="#434343" d="m72.12403 107.3987l8.472443 0l0 36.881897l-8.472443 0z" fill-rule="evenodd"/><path fill="#434343" d="m89.52364 107.3987l8.472443 0l0 36.881897l-8.472443 0z" fill-rule="evenodd"/><path fill="#434343" d="m400.0838 104.247215l10.141754 0l0 43.874016l-10.141754 0z" fill-rule="evenodd"/><path fill="#434343" d="m18.422573 326.03674l39.72292 -166.20473l62.418816 0l-39.722923 166.20473z" fill-rule="evenodd"/><path fill="#343333" d="m147.51985 184.21948l5.952759 61.07086l-22.740158 -59.87401z" fill-rule="evenodd"/><path fill="#434343" d="m139.57874 102.76509l52.44095 0l0 22.551186l-52.44095 0z" fill-rule="evenodd"/><path fill="#343333" d="m97.76903 339.25986l16.755905 0l0 9.102356l-16.755905 0z" fill-rule="evenodd"/></g></svg>