<svg version="1.1" viewBox="0.0 0.0 430.87664041994753 404.9133858267717" fill="none" stroke="none" stroke-linecap="square" stroke-miterlimit="10" xmlns:xlink="http://www.w3.org/1999/xlink" xmlns="http://www.w3.org/2000/svg"><clipPath id="p.0"><path d="m0 0l430.87665 0l0 404.9134l-430.87665 0l0 -404.9134z" clip-rule="nonzero"/></clipPath><g clip-path="url(#p.0)"><path fill="#000000" fill-opacity="0.0" d="m0 0l430.87665 0l0 404.9134l-430.87665 0z" fill-rule="evenodd"/><path fill="#343333" d="m-10.181103 374.89764l52.449326 -226.86615l111.20422 0l-52.449326 226.86615z" fill-rule="evenodd"/><path fill="#434343" d="m378.44153 118.63386l20.566925 0l0 43.874016l-20.566925 0z" fill-rule="evenodd"/><path fill="#343333" d="m184.50092 277.59155l11.655884 -52.56694l8.911041 0l-11.655899 52.56694z" fill-rule="evenodd"/><path fill="#343333" d="m71.48929 276.33725l122.48819 0l0 9.102356l-122.48819 0z" fill-rule="evenodd"/><path fill="#343333" d="m57.614174 184.2481l363.43307 0l0 46.834656l-363.43307 0z" fill-rule="evenodd"/><path fill="#343333" d="m2.440945 175.42766l21.545673 59.84253l33.8559 0l-21.54567 -59.84253z" fill-rule="evenodd"/><path fill="#434343" d="m28.445309 175.4316l20.44328 52.566925l34.958298 0l-20.443283 -52.566925z" fill-rule="evenodd"/><path fill="#434343" d="m57.614174 175.43378l363.43307 0l0 32.0l-363.43307 0z" fill-rule="evenodd"/><path fill="#434343" d="m15.832597 116.019684l20.566929 0l0 43.874023l-20.566929 0z" fill-rule="evenodd"/><path fill="#666666" d="m9.035396 136.36945l338.3937 0l0 32.0l-338.3937 0z" fill-rule="evenodd"/><path fill="#666666" d="m1.4593176 129.29659l429.41733 0l0 52.566925l-429.41733 0z" fill-rule="evenodd"/><path fill="#434343" d="m19.925198 133.92888l8.472441 0l0 36.881897l-8.472441 0z" fill-rule="evenodd"/><path fill="#434343" d="m37.32481 133.92888l8.472439 0l0 36.881897l-8.472439 0z" fill-rule="evenodd"/><path fill="#434343" d="m54.72442 133.92888l8.472443 0l0 36.881897l-8.472443 0z" fill-rule="evenodd"/><path fill="#434343" d="m72.12403 133.92888l8.472443 0l0 36.881897l-8.472443 0z" fill-rule="evenodd"/><path fill="#434343" d="m89.52364 133.92888l8.472443 0l0 36.881897l-8.472443 0z" fill-rule="evenodd"/><path fill="#434343" d="m400.0838 130.7774l10.141754 0l0 43.87401l-10.141754 0z" fill-rule="evenodd"/><path fill="#434343" d="m18.422573 352.56693l39.72292 -166.20473l62.418816 0l-39.722923 166.20473z" fill-rule="evenodd"/><path fill="#343333" d="m147.51985 210.74966l5.952759 61.07086l-22.740158 -59.87401z" fill-rule="evenodd"/><path fill="#434343" d="m139.57874 129.29527l52.44095 0l0 22.551178l-52.44095 0z" fill-rule="evenodd"/><path fill="#343333" d="m97.76903 365.79004l16.755905 0l0 9.102356l-16.755905 0z" fill-rule="evenodd"/></g></svg>