<svg version="1.1" viewBox="0.0 0.0 769.9002624671916 313.6640419947507" fill="none" stroke="none" stroke-linecap="square" stroke-miterlimit="10" xmlns:xlink="http://www.w3.org/1999/xlink" xmlns="http://www.w3.org/2000/svg"><clipPath id="p.0"><path d="m0 0l769.90027 0l0 313.66403l-769.90027 0l0 -313.66403z" clip-rule="nonzero"/></clipPath><g clip-path="url(#p.0)"><path fill="#000000" fill-opacity="0.0" d="m0 0l769.90027 0l0 313.66403l-769.90027 0z" fill-rule="evenodd"/><defs><linearGradient id="p.1" gradientUnits="userSpaceOnUse" gradientTransform="matrix(16.917586246549735 0.0 0.0 16.917586246549735 0.0 0.0)" spreadMethod="pad" x1="25.680307613992014" y1="9.44087835238662" x2="42.59789386054175" y2="9.44087835238662"><stop offset="0.0" stop-color="#ff0000"/><stop offset="0.24" stop-color="#ff0000"/><stop offset="0.68" stop-color="#ad0800"/><stop offset="0.89" stop-color="#840c00"/><stop offset="1.0" stop-color="#5b0f00"/></linearGradient></defs><path fill="url(#p.1)" d="m434.44882 115.4964l286.20474 0l0 44.220474l-286.20474 0z" fill-rule="evenodd"/><path fill="#2a2a2a" d="m313.8376 171.48178l7.118103 41.606308l-24.566925 -38.992126z" fill-rule="evenodd"/><path fill="#434343" d="m767.4593 112.321526l0 50.645668l-53.606262 0l0 -50.645668z" fill-rule="evenodd"/><path fill="#434343" d="m436.40497 79.00525l311.1496 0l0 27.181099l-311.1496 0z" fill-rule="evenodd"/><path fill="#434343" d="m436.83527 168.12071l310.70868 0l0 27.874023l-310.70868 0z" fill-rule="evenodd"/><path fill="#2a2a2a" d="m351.83728 36.834644l15.685028 0l0 33.952755l-15.685028 0z" fill-rule="evenodd"/><path fill="#2a2a2a" d="m267.67297 36.834644l15.685059 0l0 55.811024l-15.685059 0z" fill-rule="evenodd"/><path fill="#666666" d="m393.8932 195.6204l43.46457 0l-43.46457 24.692917z" fill-rule="evenodd"/><path fill="#666666" d="m246.58324 217.82414l147.99998 0l0 12.251968l-147.99998 0z" fill-rule="evenodd"/><path fill="#666666" d="m333.9822 196.07666l60.59842 0l0 24.03151l-60.59842 0z" fill-rule="evenodd"/><path fill="#434343" d="m107.355606 89.36483l329.7323 0l0 91.937004l-329.7323 0z" fill-rule="evenodd"/><path fill="#666666" d="m394.18915 169.02887l42.897644 0l0 26.771652l-42.897644 0z" fill-rule="evenodd"/><path fill="#434343" d="m19.459318 89.36483l121.291336 0l0 141.32285l-121.291336 0z" fill-rule="evenodd"/><path fill="#2a2a2a" d="m2.8031497 190.49606l24.566929 0l0 40.220474l-24.566929 0z" fill-rule="evenodd"/><path fill="#2a2a2a" d="m15.186236 128.76115l20.409447 0l0 61.826767l-20.409447 0z" fill-rule="evenodd"/><path fill="#666666" d="m59.16175 230.27985l109.355095 48.44046l75.40085 1.730011l39.44684 -99.84665l-49.435852 0l-21.471054 48.687607z" fill-rule="evenodd"/><path fill="#434343" d="m139.7087 180.50131l0 49.5748l25.88977 -49.5748z" fill-rule="evenodd"/><path fill="#666666" d="m333.98163 229.02887l60.59842 0l0 69.95276l-60.59842 0z" fill-rule="evenodd"/><path fill="#434343" d="m234.26901 180.60367l49.101105 0l-14.673889 36.05249l-50.232666 0z" fill-rule="evenodd"/><path fill="#666666" d="m89.33772 89.36483l347.55908 0l0 16.53543l-347.55908 0z" fill-rule="evenodd"/><path fill="#666666" d="m295.80942 89.61942l0 -36.062992l-64.91339 36.062992z" fill-rule="evenodd"/><path fill="#434343" d="m362.96246 79.47771l0 -25.92126l73.921234 25.92126z" fill-rule="evenodd"/><path fill="#666666" d="m249.65114 2.8818898l135.2441 0l0 33.952755l-135.2441 0z" fill-rule="evenodd"/><path fill="#666666" d="m362.96246 79.00525l73.921234 0l0 16.53543l-73.921234 0z" fill-rule="evenodd"/><path fill="#666666" d="m295.68646 53.55643l67.3071 0l0 18.519688l-67.3071 0z" fill-rule="evenodd"/><path fill="#666666" d="m310.9757 0l73.921265 0l0 39.716534l-73.921265 0z" fill-rule="evenodd"/><path fill="#2a2a2a" d="m302.3727 0l8.629944 0l0 39.716534l-8.629944 0z" fill-rule="evenodd"/><path fill="#2a2a2a" d="m379.02005 0l8.629913 0l0 39.716534l-8.629913 0z" fill-rule="evenodd"/><path fill="#2a2a2a" d="m243.78914 2.8818898l5.8582764 0l0 33.952755l-5.8582764 0z" fill-rule="evenodd"/><path fill="#666666" d="m393.67737 184.30183l-16.629944 0l16.629944 -11.653534z" fill-rule="evenodd"/><path fill="#666666" d="m395.38782 181.30183l-61.385834 0l0 15.307083l61.385834 0z" fill-rule="evenodd"/><path fill="#434343" d="m333.87717 180.58267l48.629913 0l-48.629913 33.291336z" fill-rule="evenodd"/><path fill="#434343" d="m509.23438 62.47835l35.943604 0l0 145.70938l-35.943604 0z" fill-rule="evenodd"/><path fill="#434343" d="m517.4463 74.75117l19.519775 0l0 121.16375l-19.519775 0z" fill-rule="evenodd"/><path fill="#434343" d="m755.12067 79.06562l0 116.7244l-28.944885 0l0 -116.7244z" fill-rule="evenodd"/><path fill="#434343" d="m747.4425 86.002625l0 102.519684l-13.574829 0l0 -102.519684z" fill-rule="evenodd"/><path fill="#434343" d="m757.9706 121.36089l0 32.566933l-34.64563 0l0 -32.566933z" fill-rule="evenodd"/><path fill="#434343" d="m619.9472 62.47835l35.943604 0l0 145.70938l-35.943604 0z" fill-rule="evenodd"/><path fill="#434343" d="m628.1591 74.75117l19.519775 0l0 121.16375l-19.519775 0z" fill-rule="evenodd"/><path fill="#212121" d="m168.9895 125.63805l218.64566 0l0 27.873062l-218.64566 0z" fill-rule="evenodd"/><defs><linearGradient id="p.2" gradientUnits="userSpaceOnUse" gradientTransform="matrix(4.226195493178543 0.0 0.0 4.226195493178543 0.0 0.0)" spreadMethod="pad" x1="41.812961203702805" y1="30.940897754355888" x2="41.81294664788111" y2="35.167093247509364"><stop offset="0.0" stop-color="#ff0000"/><stop offset="0.24" stop-color="#ff0000"/><stop offset="0.68" stop-color="#ad0800"/><stop offset="0.89" stop-color="#840c00"/><stop offset="1.0" stop-color="#5b0f00"/></linearGradient></defs><path fill="url(#p.2)" d="m176.70973 130.76303l204.28346 0l0 17.859985l-204.28346 0z" fill-rule="evenodd"/><path fill="#212121" d="m200.10408 130.8673l0 0c0 -0.69581604 0.5640564 -1.2598724 1.2598724 -1.2598724l5.0393066 0l0 0c0.33415222 0 0.65460205 0.1327362 0.89086914 0.3690033c0.23626709 0.23626709 0.3690033 0.5567322 0.3690033 0.89086914l0 17.418015c0 0.6958008 -0.5640564 1.2598572 -1.2598724 1.2598572l-5.0393066 0c-0.69581604 0 -1.2598724 -0.5640564 -1.2598724 -1.2598572z" fill-rule="evenodd"/><path fill="#212121" d="m230.26396 130.8673l0 0c0 -0.69581604 0.5640564 -1.2598724 1.2598724 -1.2598724l5.039322 0l0 0c0.33413696 0 0.6545868 0.1327362 0.8908539 0.3690033c0.23626709 0.23626709 0.3690033 0.5567322 0.3690033 0.89086914l0 17.418015c0 0.6958008 -0.5640564 1.2598572 -1.2598572 1.2598572l-5.039322 0c-0.69581604 0 -1.2598724 -0.5640564 -1.2598724 -1.2598572z" fill-rule="evenodd"/><path fill="#212121" d="m289.14627 130.8673l0 0c0 -0.69581604 0.5640564 -1.2598724 1.2598572 -1.2598724l5.0393066 0l0 0c0.33413696 0 0.65460205 0.1327362 0.89086914 0.3690033c0.23626709 0.23626709 0.36901855 0.5567322 0.36901855 0.89086914l0 17.418015c0 0.6958008 -0.5640869 1.2598572 -1.2598877 1.2598572l-5.0393066 0c-0.6958008 0 -1.2598572 -0.5640564 -1.2598572 -1.2598572z" fill-rule="evenodd"/><path fill="#212121" d="m348.02856 130.8673l0 0c0 -0.69581604 0.5640564 -1.2598724 1.2598572 -1.2598724l5.0393066 0l0 0c0.33413696 0 0.65460205 0.1327362 0.89086914 0.3690033c0.23626709 0.23626709 0.36901855 0.5567322 0.36901855 0.89086914l0 17.418015c0 0.6958008 -0.5640869 1.2598572 -1.2598877 1.2598572l-5.0393066 0c-0.6958008 0 -1.2598572 -0.5640564 -1.2598572 -1.2598572z" fill-rule="evenodd"/><path fill="#212121" d="m259.71866 130.8673l0 0c0 -0.69581604 0.5640869 -1.2598724 1.2598877 -1.2598724l5.0393066 0l0 0c0.33413696 0 0.65460205 0.1327362 0.89086914 0.3690033c0.23626709 0.23626709 0.36901855 0.5567322 0.36901855 0.89086914l0 17.418015c0 0.6958008 -0.5640869 1.2598572 -1.2598877 1.2598572l-5.0393066 0c-0.6958008 0 -1.2598877 -0.5640564 -1.2598877 -1.2598572z" fill-rule="evenodd"/><path fill="#212121" d="m318.60095 130.8673l0 0c0 -0.69581604 0.5640869 -1.2598724 1.2598877 -1.2598724l5.0393066 0l0 0c0.33413696 0 0.65460205 0.1327362 0.89086914 0.3690033c0.23626709 0.23626709 0.36901855 0.5567322 0.36901855 0.89086914l0 17.418015c0 0.6958008 -0.5640869 1.2598572 -1.2598877 1.2598572l-5.0393066 0c-0.6958008 0 -1.2598877 -0.5640564 -1.2598877 -1.2598572z" fill-rule="evenodd"/><path fill="#434343" d="m436.40497 86.04484l310.70868 0l0 13.102356l-310.70868 0z" fill-rule="evenodd"/><path fill="#434343" d="m436.83426 176.27853l310.70865 0l0 12.251968l-310.70865 0z" fill-rule="evenodd"/><path fill="#434343" d="m340.69638 194.3307l0 104.755905l-6.551178 0l0 -104.755905z" fill-rule="evenodd"/><path fill="#434343" d="m394.58835 162.3307l0 137.25984l-6.551178 0l0 -137.25984z" fill-rule="evenodd"/><path fill="#434343" d="m394.56915 168.12073l60.59842 0l0 8.157486l-60.59842 0z" fill-rule="evenodd"/><path fill="#434343" d="m389.85553 213.95074l44.724396 -25.480316l4.188965 6.4566956l-44.724396 25.480316z" fill-rule="evenodd"/><path fill="#434343" d="m434.44965 188.53134l52.314972 0l0 7.307083l-52.314972 0z" fill-rule="evenodd"/><path fill="#434343" d="m436.93115 106.18635l-49.637817 0l49.637817 -7.0551147z" fill-rule="evenodd"/><path fill="#666666" d="m362.96246 79.47769l0 -18.519688l55.590546 18.519688z" fill-rule="evenodd"/><path fill="#434343" d="m436.92746 78.95801l0 7.0551147l-20.094482 -7.0551147z" fill-rule="evenodd"/><path fill="#434343" d="m295.80103 53.59055l67.14963 0l0 7.307087l-67.14963 0z" fill-rule="evenodd"/><path fill="#434343" d="m295.79825 60.897636l0 -7.0551186l-13.574799 7.0551186z" fill-rule="evenodd"/><path fill="#434343" d="m119.45237 105.90026l0 -16.53543l55.590553 16.53543z" fill-rule="evenodd"/><path fill="#434343" d="m89.33772 89.36483l30.173233 0l0 16.53543l-30.173233 0z" fill-rule="evenodd"/><defs><linearGradient id="p.3" gradientUnits="userSpaceOnUse" gradientTransform="matrix(8.530570824132642 3.0878520072273936 -3.0878520072273936 8.530570824132642 0.0 0.0)" spreadMethod="pad" x1="44.02875059889269" y1="7.132724219264597" x2="44.02871895581305" y2="15.663295043338552"><stop offset="0.0" stop-color="#db0000"/><stop offset="1.0" stop-color="#540303"/></linearGradient></defs><path fill="url(#p.3)" d="m372.30148 203.5826l2.2901917 23.996399l-4.877228 0.9666443l5.870056 21.977142l-5.0638123 1.4821014l4.4744873 34.858032l-17.475586 -31.798447l6.0191345 -1.3572998l-10.701569 -20.189957l7.319092 -2.3918762l-11.334534 -21.219269z" fill-rule="evenodd"/><path fill="#666666" d="m66.708664 130.11679l35.937004 0l0 8.157486l-35.937004 0z" fill-rule="evenodd"/><path fill="#666666" d="m54.16273 154.11679l69.79527 0l0 8.157486l-69.79527 0z" fill-rule="evenodd"/><path fill="#666666" d="m43.937008 204.98557l42.89764 0l0 8.157486l-42.89764 0z" fill-rule="evenodd"/><path fill="#666666" d="m66.708664 181.01443l35.937004 0l0 8.157486l-35.937004 0z" fill-rule="evenodd"/><path fill="#666666" d="m45.480316 106.1168l42.897636 0l0 8.157478l-42.897636 0z" fill-rule="evenodd"/><path fill="#2a2a2a" d="m0 89.36483l24.566929 0l0 40.220467l-24.566929 0z" fill-rule="evenodd"/></g></svg>