<svg version="1.1" viewBox="0.0 0.0 800.5748031496063 417.53543307086613" fill="none" stroke="none" stroke-linecap="square" stroke-miterlimit="10" xmlns:xlink="http://www.w3.org/1999/xlink" xmlns="http://www.w3.org/2000/svg"><clipPath id="p.0"><path d="m0 0l800.5748 0l0 417.53543l-800.5748 0l0 -417.53543z" clip-rule="nonzero"/></clipPath><g clip-path="url(#p.0)"><path fill="#000000" fill-opacity="0.0" d="m0 0l800.5748 0l0 417.53543l-800.5748 0z" fill-rule="evenodd"/><path fill="#666666" d="m396.113 210.5644l0 20.922241l4.64917 4.649658l1.9373779 7.7477875l-1.9373779 7.3617554l-5.8120728 5.0381775l-7.7469482 1.5490417l-21.308502 0l-12.010132 -13.560471l0.38845825 7.7477875l6.5840454 10.850861l48.815033 0l0 -23.63681l0 -29.058533z" fill-rule="evenodd"/><path fill="#bb7554" d="m189.03558 194.82658l80.74481 0l-0.5995178 11.0642395l-4.784973 12.261032l-13.45784 10.466965l-35.886078 5.3822327l-44.2592 11.066483l-16.448715 6.2792816l-35.586327 20.63417l-23.32528 14.055115l-32.897438 18.840088l-29.90432 14.354858l-27.51296 8.972656l-4.485201 -7.7758484l0 -90.01495l148.02951 -33.49472l0 7.4783173l11.963516 0l16.746246 -7.7758484z" fill-rule="evenodd"/><path fill="#666666" d="m341.3517 132.81364l10.551178 0l0 35.55905l-10.551178 0z" fill-rule="evenodd"/><path fill="#434343" d="m349.83466 201.11989l32.125977 52.944885l-18.015747 -61.51181z" fill-rule="evenodd"/><path fill="#bb7554" d="m498.3712 188.14993l135.17697 0l-18.501404 27.942612l0.37615967 11.327042l3.4003296 7.929184l-6.043335 3.0216675l-14.724915 4.1526794l-6.7957764 15.103531l-9.817383 5.664734l-3.3978882 12.46048l-12.46051 9.817413l0.7548218 9.817413l4.531311 9.438782l-12.08429 2.2644653l-22.277832 -10.948456l-10.193665 -18.501404l-0.75476074 -17.748993l10.572205 -14.346298l15.858337 -15.860748l8.305359 -10.948425l0.37860107 -7.929184l-8.307739 -11.3294525l-10.948425 -0.3761902l-15.858337 5.2861023l-18.503845 9.062607l-5.662323 2.6430511z" fill-rule="evenodd"/><path fill="#bb7554" d="m303.4777 224.62466l48.08136 0l7.8084106 13.152237l0 20.957993l-11.916016 10.275604l-11.509186 14.792664l-4.929138 9.863495l0.8215332 8.2204895l-5.753296 6.1627197l-7.3989563 4.5223083l-2.8766174 9.039368l3.2886963 9.863525l-5.7532654 3.2887268l-12.3280945 -1.2336121l-17.262451 -9.863525l-6.984253 -6.5747986l-6.5774536 -16.438324l-0.40942383 -12.328064l13.561676 -16.850403l13.97113 -20.548553l6.577423 -13.561691z" fill-rule="evenodd"/><path fill="#666666" d="m303.4357 194.82677l106.236206 0l0 34.14174l-106.236206 0z" fill-rule="evenodd"/><path fill="#666666" d="m205.26588 126.49869l59.464554 0l0 19.590546l-59.464554 0z" fill-rule="evenodd"/><path fill="#434343" d="m193.40685 146.10236l307.62207 0l0 48.72441l-307.62207 0z" fill-rule="evenodd"/><path fill="#434343" d="m498.8187 156.10236l233.82675 0l0 28.724411l-233.82675 0z" fill-rule="evenodd"/><path fill="#666666" d="m731.7225 148.27646l20.5354 0l0 44.377945l-20.5354 0z" fill-rule="evenodd"/><path fill="#666666" d="m416.42786 167.38846l24.881897 0l0 174.67715l-24.881897 0z" fill-rule="evenodd"/><path fill="#666666" d="m441.7465 165.8441l17.007874 0l0 177.79527l-17.007874 0z" fill-rule="evenodd"/><path fill="#666666" d="m508.35565 153.72444l0 0c0 -0.57403564 0.46533203 -1.0393829 1.0393677 -1.0393829l4.1574707 0l0 0c0.27563477 0 0.54003906 0.10951233 0.7349243 0.3044281c0.19494629 0.19493103 0.30444336 0.4593048 0.30444336 0.73495483l0 33.480286c0 0.57403564 -0.46533203 1.0393829 -1.0393677 1.0393829l-4.1574707 0c-0.57403564 0 -1.0393677 -0.4653473 -1.0393677 -1.0393829z" fill-rule="evenodd"/><path fill="#666666" d="m523.9237 153.72444l0 0c0 -0.57403564 0.46533203 -1.0393829 1.0393677 -1.0393829l4.1574707 0l0 0c0.27563477 0 0.539978 0.10951233 0.7349243 0.3044281c0.19494629 0.19493103 0.30444336 0.4593048 0.30444336 0.73495483l0 33.480286c0 0.57403564 -0.46533203 1.0393829 -1.0393677 1.0393829l-4.1574707 0c-0.57403564 0 -1.0393677 -0.4653473 -1.0393677 -1.0393829z" fill-rule="evenodd"/><path fill="#666666" d="m539.4917 153.72444l0 0c0 -0.57403564 0.46539307 -1.0393829 1.0394287 -1.0393829l4.1574097 0l0 0c0.2756958 0 0.54003906 0.10951233 0.73498535 0.3044281c0.19494629 0.19493103 0.30444336 0.4593048 0.30444336 0.73495483l0 33.480286c0 0.57403564 -0.46539307 1.0393829 -1.0394287 1.0393829l-4.1574097 0c-0.57403564 0 -1.0394287 -0.4653473 -1.0394287 -1.0393829z" fill-rule="evenodd"/><path fill="#666666" d="m555.05975 153.72444l0 0c0 -0.57403564 0.46539307 -1.0393829 1.0394287 -1.0393829l4.1574097 0l0 0c0.2756958 0 0.54003906 0.10951233 0.73498535 0.3044281c0.19488525 0.19493103 0.30444336 0.4593048 0.30444336 0.73495483l0 33.480286c0 0.57403564 -0.46539307 1.0393829 -1.0394287 1.0393829l-4.1574097 0c-0.57403564 0 -1.0394287 -0.4653473 -1.0394287 -1.0393829z" fill-rule="evenodd"/><path fill="#666666" d="m570.6278 153.72444l0 0c0 -0.57403564 0.46533203 -1.0393829 1.0394287 -1.0393829l4.1574097 0l0 0c0.27563477 0 0.54003906 0.10951233 0.73498535 0.3044281c0.19488525 0.19493103 0.30438232 0.4593048 0.30438232 0.73495483l0 33.480286c0 0.57403564 -0.46533203 1.0393829 -1.0393677 1.0393829l-4.1574097 0c-0.5740967 0 -1.0394287 -0.4653473 -1.0394287 -1.0393829z" fill-rule="evenodd"/><path fill="#666666" d="m586.19586 153.72444l0 0c0 -0.57403564 0.46533203 -1.0393829 1.0393677 -1.0393829l4.1574707 0l0 0c0.27563477 0 0.54003906 0.10951233 0.7349243 0.3044281c0.19494629 0.19493103 0.30444336 0.4593048 0.30444336 0.73495483l0 33.480286c0 0.57403564 -0.46533203 1.0393829 -1.0393677 1.0393829l-4.1574707 0c-0.57403564 0 -1.0393677 -0.4653473 -1.0393677 -1.0393829z" fill-rule="evenodd"/><path fill="#666666" d="m601.7639 153.72444l0 0c0 -0.57403564 0.46533203 -1.0393829 1.0393677 -1.0393829l4.1574707 0l0 0c0.27563477 0 0.54003906 0.10951233 0.7349243 0.3044281c0.19494629 0.19493103 0.30444336 0.4593048 0.30444336 0.73495483l0 33.480286c0 0.57403564 -0.46533203 1.0393829 -1.0393677 1.0393829l-4.1574707 0c-0.57403564 0 -1.0393677 -0.4653473 -1.0393677 -1.0393829z" fill-rule="evenodd"/><path fill="#666666" d="m617.332 153.72444l0 0c0 -0.57403564 0.46533203 -1.0393829 1.0393677 -1.0393829l4.1574097 0l0 0c0.2756958 0 0.54003906 0.10951233 0.73498535 0.3044281c0.19494629 0.19493103 0.30444336 0.4593048 0.30444336 0.73495483l0 33.480286c0 0.57403564 -0.46539307 1.0393829 -1.0394287 1.0393829l-4.1574097 0c-0.57403564 0 -1.0393677 -0.4653473 -1.0393677 -1.0393829z" fill-rule="evenodd"/><path fill="#000000" d="m437.7736 165.8441l6.2362366 0l0 177.79527l-6.2362366 0z" fill-rule="evenodd"/><path fill="#666666" d="m733.48553 149.4589l4.252014 -22.960632l8.503906 0l4.251953 22.960632z" fill-rule="evenodd"/><path fill="#666666" d="m416.10236 146.30524l43.055115 0l0 10.425201l-43.055115 0z" fill-rule="evenodd"/><path stroke="#000000" stroke-width="4.0" stroke-linejoin="round" stroke-linecap="butt" d="m416.10236 146.30524l43.055115 0l0 10.425201l-43.055115 0z" fill-rule="evenodd"/><path fill="#434343" d="m752.2572 156.72966l47.68506 0l0 31.62204l-47.68506 0z" fill-rule="evenodd"/><path fill="#434343" d="m752.25745 152.68504l11.118164 0l0 4.566925l-11.118164 0z" fill-rule="evenodd"/><path fill="#434343" d="m770.54095 152.68504l11.118103 0l0 4.566925l-11.118103 0z" fill-rule="evenodd"/><path fill="#434343" d="m788.8244 152.68504l11.118103 0l0 4.566925l-11.118103 0z" fill-rule="evenodd"/></g></svg>