<svg version="1.1" viewBox="0.0 0.0 738.0 373.0" fill="none" stroke="none" stroke-linecap="square" stroke-miterlimit="10" xmlns:xlink="http://www.w3.org/1999/xlink" xmlns="http://www.w3.org/2000/svg"><clipPath id="p.0"><path d="m0 0l738.0 0l0 373.0l-738.0 0l0 -373.0z" clip-rule="nonzero"/></clipPath><g clip-path="url(#p.0)"><path fill="#000000" fill-opacity="0.0" d="m0 0l738.0 0l0 373.0l-738.0 0z" fill-rule="evenodd"/><path fill="#000000" d="m429.85565 250.52887l14.992126 0l0 14.393707l-14.992126 0z" fill-rule="evenodd"/><path fill="#666666" d="m354.113 213.5644l0 20.922241l4.64917 4.649658l1.9373779 7.7477875l-1.9373779 7.3617554l-5.8120728 5.0381775l-7.7469482 1.5490417l-21.308502 0l-12.010132 -13.560471l0.38845825 7.7477875l6.5840454 10.850861l48.815033 0l0 -23.63681l0 -29.058533z" fill-rule="evenodd"/><path fill="#bb7554" d="m160.55032 204.22047l68.80788 0l-0.5108948 11.0642395l-4.0775757 12.261047l-11.468292 10.466949l-30.580856 5.382248l-37.716125 11.066467l-14.017014 6.279297l-30.325409 20.634155l-19.876984 14.055115l-28.034035 18.840088l-25.483408 14.354889l-23.445574 8.972626l-3.8221297 -7.7758484l0 -90.01495l126.14554 -33.49472l0 7.4783173l10.194893 0l14.270554 -7.775833z" fill-rule="evenodd"/><path fill="#999999" d="m299.3517 127.81365l10.551178 0l0 35.559044l-10.551178 0z" fill-rule="evenodd"/><path fill="#434343" d="m307.83466 204.11989l32.125977 52.9449l-18.015747 -61.511826z" fill-rule="evenodd"/><path fill="#bb7554" d="m456.3712 198.2733l135.17697 0l-18.501404 27.942612l0.37615967 11.327042l3.4003296 7.9291687l-6.043335 3.0216675l-14.724915 4.1526947l-6.7957764 15.103516l-9.817383 5.664734l-3.3978882 12.46048l-12.46051 9.817413l0.7548218 9.817413l4.531311 9.438782l-12.08429 2.2644653l-22.277863 -10.948425l-10.1936035 -18.501404l-0.7548218 -17.748993l10.572235 -14.346313l15.858337 -15.860764l8.305359 -10.948425l0.37860107 -7.9291687l-8.30777 -11.3294525l-10.948425 -0.37620544l-15.858337 5.2861176l-18.503815 9.062592l-5.662323 2.6430664z" fill-rule="evenodd"/><path fill="#bb7554" d="m261.4777 227.62466l48.08136 0l7.8084106 13.152237l0 20.957993l-11.916016 10.275604l-11.509186 14.792664l-4.929138 9.863495l0.8215332 8.2204895l-5.753296 6.1627197l-7.3989563 4.5223083l-2.8766174 9.039368l3.2886963 9.863525l-5.7532654 3.2887268l-12.3280945 -1.2336121l-17.262466 -9.863525l-6.984253 -6.5747986l-6.577423 -16.438324l-0.40945435 -12.328064l13.561676 -16.850403l13.97113 -20.548553l6.5774384 -13.561691z" fill-rule="evenodd"/><path fill="#666666" d="m261.4357 197.82677l106.236206 0l0 34.14174l-106.236206 0z" fill-rule="evenodd"/><path fill="#999999" d="m162.56168 121.50131l59.46457 0l0 25.88977l-59.46457 0z" fill-rule="evenodd"/><path fill="#434343" d="m150.81627 142.70866l307.62207 0l0 61.51181l-307.62207 0z" fill-rule="evenodd"/><path fill="#434343" d="m670.25134 150.7952l4.251953 -25.732292l8.503906 0l4.252014 25.732292z" fill-rule="evenodd"/><path fill="#434343" d="m689.02313 160.06245l47.68506 0l0 35.433075l-47.68506 0z" fill-rule="evenodd"/><path fill="#434343" d="m689.0236 151.94226l10.456665 0l0 8.125977l-10.456665 0z" fill-rule="evenodd"/><path fill="#999999" d="m668.48816 148.54161l20.535461 0l0 49.732285l-20.535461 0z" fill-rule="evenodd"/><path stroke="#434343" stroke-width="4.0" stroke-linejoin="round" stroke-linecap="butt" d="m668.48816 148.54161l20.535461 0l0 49.732285l-20.535461 0z" fill-rule="evenodd"/><path fill="#999999" d="m374.4278 170.3895l37.07086 0l0 174.67715l-37.07086 0z" fill-rule="evenodd"/><path fill="#999999" d="m412.1599 168.84514l25.35431 0l0 177.79527l-25.35431 0z" fill-rule="evenodd"/><path fill="#000000" d="m406.2391 168.84514l9.291351 0l0 177.79527l-9.291351 0z" fill-rule="evenodd"/><path fill="#999999" d="m374.42783 142.70866l63.08661 0l0 10.425201l-63.08661 0z" fill-rule="evenodd"/><path stroke="#000000" stroke-width="4.0" stroke-linejoin="round" stroke-linecap="butt" d="m374.42783 142.70866l63.08661 0l0 10.425201l-63.08661 0z" fill-rule="evenodd"/><path fill="#434343" d="m456.88977 155.51286l212.75592 0l0 35.923447l-212.75592 0z" fill-rule="evenodd"/><path fill="#999999" d="m467.4263 153.42142l0 0c0 -1.2060547 0.97769165 -2.1837769 2.1837463 -2.1837769l8.734833 0l0 0c0.5791626 0 1.134613 0.23008728 1.5441589 0.6396179c0.4095459 0.40953064 0.6396179 0.9649811 0.6396179 1.5441589l0 40.087006c0 1.2060547 -0.97772217 2.1837616 -2.1837769 2.1837616l-8.734833 0c-1.2060547 0 -2.1837463 -0.9777069 -2.1837463 -2.1837616z" fill-rule="evenodd"/><path stroke="#434343" stroke-width="4.0" stroke-linejoin="round" stroke-linecap="butt" d="m467.4263 153.42142l0 0c0 -1.2060547 0.97769165 -2.1837769 2.1837463 -2.1837769l8.734833 0l0 0c0.5791626 0 1.134613 0.23008728 1.5441589 0.6396179c0.4095459 0.40953064 0.6396179 0.9649811 0.6396179 1.5441589l0 40.087006c0 1.2060547 -0.97772217 2.1837616 -2.1837769 2.1837616l-8.734833 0c-1.2060547 0 -2.1837463 -0.9777069 -2.1837463 -2.1837616z" fill-rule="evenodd"/><path fill="#999999" d="m488.7255 153.42142l0 0c0 -1.2060547 0.97772217 -2.1837769 2.1837769 -2.1837769l8.734833 0l0 0c0.5791626 0 1.134613 0.23008728 1.5441589 0.6396179c0.40951538 0.40953064 0.6395874 0.9649811 0.6395874 1.5441589l0 40.087006c0 1.2060547 -0.97769165 2.1837616 -2.1837463 2.1837616l-8.734833 0c-1.2060547 0 -2.1837769 -0.9777069 -2.1837769 -2.1837616z" fill-rule="evenodd"/><path stroke="#434343" stroke-width="4.0" stroke-linejoin="round" stroke-linecap="butt" d="m488.7255 153.42142l0 0c0 -1.2060547 0.97772217 -2.1837769 2.1837769 -2.1837769l8.734833 0l0 0c0.5791626 0 1.134613 0.23008728 1.5441589 0.6396179c0.40951538 0.40953064 0.6395874 0.9649811 0.6395874 1.5441589l0 40.087006c0 1.2060547 -0.97769165 2.1837616 -2.1837463 2.1837616l-8.734833 0c-1.2060547 0 -2.1837769 -0.9777069 -2.1837769 -2.1837616z" fill-rule="evenodd"/><path fill="#999999" d="m510.02472 153.42142l0 0c0 -1.2060547 0.97769165 -2.1837769 2.1837769 -2.1837769l8.734802 0l0 0c0.5791626 0 1.1346436 0.23008728 1.5441895 0.6396179c0.40948486 0.40953064 0.6395874 0.9649811 0.6395874 1.5441589l0 40.087006c0 1.2060547 -0.97772217 2.1837616 -2.1837769 2.1837616l-8.734802 0c-1.2060852 0 -2.1837769 -0.9777069 -2.1837769 -2.1837616z" fill-rule="evenodd"/><path stroke="#434343" stroke-width="4.0" stroke-linejoin="round" stroke-linecap="butt" d="m510.02472 153.42142l0 0c0 -1.2060547 0.97769165 -2.1837769 2.1837769 -2.1837769l8.734802 0l0 0c0.5791626 0 1.1346436 0.23008728 1.5441895 0.6396179c0.40948486 0.40953064 0.6395874 0.9649811 0.6395874 1.5441589l0 40.087006c0 1.2060547 -0.97772217 2.1837616 -2.1837769 2.1837616l-8.734802 0c-1.2060852 0 -2.1837769 -0.9777069 -2.1837769 -2.1837616z" fill-rule="evenodd"/><path fill="#999999" d="m531.3239 153.42142l0 0c0 -1.2060547 0.97772217 -2.1837769 2.1837769 -2.1837769l8.734802 0l0 0c0.57922363 0 1.1346436 0.23008728 1.5441895 0.6396179c0.4095459 0.40953064 0.6395874 0.9649811 0.6395874 1.5441589l0 40.087006c0 1.2060547 -0.97766113 2.1837616 -2.1837769 2.1837616l-8.734802 0c-1.2060547 0 -2.1837769 -0.9777069 -2.1837769 -2.1837616z" fill-rule="evenodd"/><path stroke="#434343" stroke-width="4.0" stroke-linejoin="round" stroke-linecap="butt" d="m531.3239 153.42142l0 0c0 -1.2060547 0.97772217 -2.1837769 2.1837769 -2.1837769l8.734802 0l0 0c0.57922363 0 1.1346436 0.23008728 1.5441895 0.6396179c0.4095459 0.40953064 0.6395874 0.9649811 0.6395874 1.5441589l0 40.087006c0 1.2060547 -0.97766113 2.1837616 -2.1837769 2.1837616l-8.734802 0c-1.2060547 0 -2.1837769 -0.9777069 -2.1837769 -2.1837616z" fill-rule="evenodd"/><path fill="#999999" d="m552.6231 153.42142l0 0c0 -1.2060547 0.97772217 -2.1837769 2.1837769 -2.1837769l8.734863 0l0 0c0.5791626 0 1.1345825 0.23008728 1.5441284 0.6396179c0.4095459 0.40953064 0.63964844 0.9649811 0.63964844 1.5441589l0 40.087006c0 1.2060547 -0.97772217 2.1837616 -2.1837769 2.1837616l-8.734863 0c-1.2060547 0 -2.1837769 -0.9777069 -2.1837769 -2.1837616z" fill-rule="evenodd"/><path stroke="#434343" stroke-width="4.0" stroke-linejoin="round" stroke-linecap="butt" d="m552.6231 153.42142l0 0c0 -1.2060547 0.97772217 -2.1837769 2.1837769 -2.1837769l8.734863 0l0 0c0.5791626 0 1.1345825 0.23008728 1.5441284 0.6396179c0.4095459 0.40953064 0.63964844 0.9649811 0.63964844 1.5441589l0 40.087006c0 1.2060547 -0.97772217 2.1837616 -2.1837769 2.1837616l-8.734863 0c-1.2060547 0 -2.1837769 -0.9777069 -2.1837769 -2.1837616z" fill-rule="evenodd"/><path fill="#999999" d="m573.92236 153.42142l0 0c0 -1.2060547 0.97772217 -2.1837769 2.1837769 -2.1837769l8.734802 0l0 0c0.5791626 0 1.1346436 0.23008728 1.5441284 0.6396179c0.4095459 0.40953064 0.63964844 0.9649811 0.63964844 1.5441589l0 40.087006c0 1.2060547 -0.97772217 2.1837616 -2.1837769 2.1837616l-8.734802 0c-1.2060547 0 -2.1837769 -0.9777069 -2.1837769 -2.1837616z" fill-rule="evenodd"/><path stroke="#434343" stroke-width="4.0" stroke-linejoin="round" stroke-linecap="butt" d="m573.92236 153.42142l0 0c0 -1.2060547 0.97772217 -2.1837769 2.1837769 -2.1837769l8.734802 0l0 0c0.5791626 0 1.1346436 0.23008728 1.5441284 0.6396179c0.4095459 0.40953064 0.63964844 0.9649811 0.63964844 1.5441589l0 40.087006c0 1.2060547 -0.97772217 2.1837616 -2.1837769 2.1837616l-8.734802 0c-1.2060547 0 -2.1837769 -0.9777069 -2.1837769 -2.1837616z" fill-rule="evenodd"/><path fill="#434343" d="m707.6306 151.94226l10.456665 0l0 8.125977l-10.456665 0z" fill-rule="evenodd"/><path fill="#434343" d="m726.23755 151.94226l10.456726 0l0 8.125977l-10.456726 0z" fill-rule="evenodd"/></g></svg>