<svg version="1.1" viewBox="0.0 0.0 738.0 373.0" fill="none" stroke="none" stroke-linecap="square" stroke-miterlimit="10" xmlns:xlink="http://www.w3.org/1999/xlink" xmlns="http://www.w3.org/2000/svg"><clipPath id="p.0"><path d="m0 0l738.0 0l0 373.0l-738.0 0l0 -373.0z" clip-rule="nonzero"/></clipPath><g clip-path="url(#p.0)"><path fill="#000000" fill-opacity="0.0" d="m0 0l738.0 0l0 373.0l-738.0 0z" fill-rule="evenodd"/><path fill="#000000" d="m429.85565 250.52887l14.992126 0l0 14.393707l-14.992126 0z" fill-rule="evenodd"/><path fill="#666666" d="m354.113 213.5644l0 20.922241l4.64917 4.649658l1.9373779 7.7477875l-1.9373779 7.3617554l-5.8120728 5.0381775l-7.7469482 1.5490417l-21.308502 0l-12.010132 -13.560471l0.38845825 7.7477875l6.5840454 10.850861l48.815033 0l0 -23.63681l0 -29.058533z" fill-rule="evenodd"/><path fill="#bb7554" d="m160.55032 204.22047l68.80788 0l-0.5108948 11.0642395l-4.0775757 12.261047l-11.468292 10.466949l-30.580856 5.382248l-37.716125 11.066467l-14.017014 6.279297l-30.325409 20.634155l-19.876984 14.055115l-28.034035 18.840088l-25.483408 14.354889l-23.445574 8.972626l-3.8221297 -7.7758484l0 -90.01495l126.14554 -33.49472l0 7.4783173l10.194893 0l14.270554 -7.775833z" fill-rule="evenodd"/><path fill="#999999" d="m299.3517 127.81365l10.551178 0l0 35.559044l-10.551178 0z" fill-rule="evenodd"/><path fill="#434343" d="m307.83466 204.11989l32.125977 52.9449l-18.015747 -61.511826z" fill-rule="evenodd"/><path fill="#bb7554" d="m458.8712 187.7733l135.17697 0l-18.501404 27.942612l0.37615967 11.327042l3.4003296 7.9291687l-6.043335 3.0216675l-14.724915 4.1526947l-6.7957764 15.103516l-9.817383 5.664734l-3.3978882 12.46048l-12.46051 9.817413l0.7548218 9.817413l4.531311 9.438782l-12.08429 2.2644653l-22.277863 -10.948425l-10.1936035 -18.501404l-0.7548218 -17.748993l10.572235 -14.346313l15.858337 -15.860764l8.305359 -10.948425l0.37860107 -7.9291687l-8.307739 -11.3294525l-10.948456 -0.37620544l-15.858337 5.2861176l-18.503815 9.062592l-5.662323 2.6430664z" fill-rule="evenodd"/><path fill="#bb7554" d="m261.4777 227.62466l48.08136 0l7.8084106 13.152237l0 20.957993l-11.916016 10.275604l-11.509186 14.792664l-4.929138 9.863495l0.8215332 8.2204895l-5.753296 6.1627197l-7.3989563 4.5223083l-2.8766174 9.039368l3.2886963 9.863525l-5.7532654 3.2887268l-12.3280945 -1.2336121l-17.262466 -9.863525l-6.984253 -6.5747986l-6.577423 -16.438324l-0.40945435 -12.328064l13.561676 -16.850403l13.97113 -20.548553l6.5774384 -13.561691z" fill-rule="evenodd"/><path fill="#666666" d="m261.4357 197.82677l106.236206 0l0 34.14174l-106.236206 0z" fill-rule="evenodd"/><path fill="#999999" d="m162.56168 121.50131l59.46457 0l0 25.88977l-59.46457 0z" fill-rule="evenodd"/><path fill="#434343" d="m150.81627 142.70866l307.62207 0l0 61.51181l-307.62207 0z" fill-rule="evenodd"/><path fill="#666666" d="m374.4278 170.3895l37.07086 0l0 174.67715l-37.07086 0z" fill-rule="evenodd"/><path fill="#666666" d="m412.1599 168.84514l25.35431 0l0 177.79527l-25.35431 0z" fill-rule="evenodd"/><path fill="#000000" d="m406.2391 168.84514l9.291351 0l0 177.79527l-9.291351 0z" fill-rule="evenodd"/><path fill="#999999" d="m374.42783 142.70866l63.08661 0l0 10.425201l-63.08661 0z" fill-rule="evenodd"/><path stroke="#000000" stroke-width="4.0" stroke-linejoin="round" stroke-linecap="butt" d="m374.42783 142.70866l63.08661 0l0 10.425201l-63.08661 0z" fill-rule="evenodd"/><path fill="#434343" d="m455.1391 155.17586l233.88977 0l0 25.889755l-233.88977 0z" fill-rule="evenodd"/><path fill="#999999" d="m465.3071 152.23232l0 0c0 -1.0437012 0.84606934 -1.889801 1.889801 -1.889801l7.55896 0l0 0c0.5012207 0 0.9819031 0.19911194 1.3363037 0.5535126c0.35440063 0.3544159 0.5534973 0.835083 0.5534973 1.3362885l0 31.779465c0 1.0437012 -0.84606934 1.889801 -1.889801 1.889801l-7.55896 0c-1.0437317 0 -1.889801 -0.84609985 -1.889801 -1.889801z" fill-rule="evenodd"/><path stroke="#434343" stroke-width="4.0" stroke-linejoin="round" stroke-linecap="butt" d="m465.3071 152.23232l0 0c0 -1.0437012 0.84606934 -1.889801 1.889801 -1.889801l7.55896 0l0 0c0.5012207 0 0.9819031 0.19911194 1.3363037 0.5535126c0.35440063 0.3544159 0.5534973 0.835083 0.5534973 1.3362885l0 31.779465c0 1.0437012 -0.84606934 1.889801 -1.889801 1.889801l-7.55896 0c-1.0437317 0 -1.889801 -0.84609985 -1.889801 -1.889801z" fill-rule="evenodd"/><path fill="#999999" d="m483.71295 152.23232l0 0c0 -1.0437012 0.84609985 -1.889801 1.889801 -1.889801l7.5589905 0l0 0c0.5012207 0 0.98187256 0.19911194 1.3363037 0.5535126c0.35440063 0.3544159 0.5534973 0.835083 0.5534973 1.3362885l0 31.779465c0 1.0437012 -0.84609985 1.889801 -1.889801 1.889801l-7.5589905 0c-1.0437012 0 -1.889801 -0.84609985 -1.889801 -1.889801z" fill-rule="evenodd"/><path stroke="#434343" stroke-width="4.0" stroke-linejoin="round" stroke-linecap="butt" d="m483.71295 152.23232l0 0c0 -1.0437012 0.84609985 -1.889801 1.889801 -1.889801l7.5589905 0l0 0c0.5012207 0 0.98187256 0.19911194 1.3363037 0.5535126c0.35440063 0.3544159 0.5534973 0.835083 0.5534973 1.3362885l0 31.779465c0 1.0437012 -0.84609985 1.889801 -1.889801 1.889801l-7.5589905 0c-1.0437012 0 -1.889801 -0.84609985 -1.889801 -1.889801z" fill-rule="evenodd"/><path fill="#999999" d="m502.11884 152.23232l0 0c0 -1.0437012 0.84609985 -1.889801 1.889801 -1.889801l7.5589905 0l0 0c0.5012207 0 0.98187256 0.19911194 1.3363037 0.5535126c0.35437012 0.3544159 0.5534668 0.835083 0.5534668 1.3362885l0 31.779465c0 1.0437012 -0.84606934 1.889801 -1.8897705 1.889801l-7.5589905 0c-1.0437012 0 -1.889801 -0.84609985 -1.889801 -1.889801z" fill-rule="evenodd"/><path stroke="#434343" stroke-width="4.0" stroke-linejoin="round" stroke-linecap="butt" d="m502.11884 152.23232l0 0c0 -1.0437012 0.84609985 -1.889801 1.889801 -1.889801l7.5589905 0l0 0c0.5012207 0 0.98187256 0.19911194 1.3363037 0.5535126c0.35437012 0.3544159 0.5534668 0.835083 0.5534668 1.3362885l0 31.779465c0 1.0437012 -0.84606934 1.889801 -1.8897705 1.889801l-7.5589905 0c-1.0437012 0 -1.889801 -0.84609985 -1.889801 -1.889801z" fill-rule="evenodd"/><path fill="#999999" d="m520.5247 152.23232l0 0c0 -1.0437012 0.84606934 -1.889801 1.8897705 -1.889801l7.559021 0l0 0c0.50115967 0 0.98187256 0.19911194 1.3362427 0.5535126c0.35443115 0.3544159 0.55352783 0.835083 0.55352783 1.3362885l0 31.779465c0 1.0437012 -0.84606934 1.889801 -1.8897705 1.889801l-7.559021 0c-1.0437012 0 -1.8897705 -0.84609985 -1.8897705 -1.889801z" fill-rule="evenodd"/><path stroke="#434343" stroke-width="4.0" stroke-linejoin="round" stroke-linecap="butt" d="m520.5247 152.23232l0 0c0 -1.0437012 0.84606934 -1.889801 1.8897705 -1.889801l7.559021 0l0 0c0.50115967 0 0.98187256 0.19911194 1.3362427 0.5535126c0.35443115 0.3544159 0.55352783 0.835083 0.55352783 1.3362885l0 31.779465c0 1.0437012 -0.84606934 1.889801 -1.8897705 1.889801l-7.559021 0c-1.0437012 0 -1.8897705 -0.84609985 -1.8897705 -1.889801z" fill-rule="evenodd"/><path fill="#999999" d="m538.9306 152.23232l0 0c0 -1.0437012 0.84606934 -1.889801 1.8897705 -1.889801l7.55896 0l0 0c0.5012207 0 0.9819336 0.19911194 1.3363037 0.5535126c0.35443115 0.3544159 0.55352783 0.835083 0.55352783 1.3362885l0 31.779465c0 1.0437012 -0.84606934 1.889801 -1.8898315 1.889801l-7.55896 0c-1.0437012 0 -1.8897705 -0.84609985 -1.8897705 -1.889801z" fill-rule="evenodd"/><path stroke="#434343" stroke-width="4.0" stroke-linejoin="round" stroke-linecap="butt" d="m538.9306 152.23232l0 0c0 -1.0437012 0.84606934 -1.889801 1.8897705 -1.889801l7.55896 0l0 0c0.5012207 0 0.9819336 0.19911194 1.3363037 0.5535126c0.35443115 0.3544159 0.55352783 0.835083 0.55352783 1.3362885l0 31.779465c0 1.0437012 -0.84606934 1.889801 -1.8898315 1.889801l-7.55896 0c-1.0437012 0 -1.8897705 -0.84609985 -1.8897705 -1.889801z" fill-rule="evenodd"/><path fill="#999999" d="m557.3364 152.23232l0 0c0 -1.0437012 0.8461304 -1.889801 1.8898315 -1.889801l7.55896 0l0 0c0.5012207 0 0.98187256 0.19911194 1.3363037 0.5535126c0.35443115 0.3544159 0.55352783 0.835083 0.55352783 1.3362885l0 31.779465c0 1.0437012 -0.8461304 1.889801 -1.8898315 1.889801l-7.55896 0c-1.0437012 0 -1.8898315 -0.84609985 -1.8898315 -1.889801z" fill-rule="evenodd"/><path stroke="#434343" stroke-width="4.0" stroke-linejoin="round" stroke-linecap="butt" d="m557.3364 152.23232l0 0c0 -1.0437012 0.8461304 -1.889801 1.8898315 -1.889801l7.55896 0l0 0c0.5012207 0 0.98187256 0.19911194 1.3363037 0.5535126c0.35443115 0.3544159 0.55352783 0.835083 0.55352783 1.3362885l0 31.779465c0 1.0437012 -0.8461304 1.889801 -1.8898315 1.889801l-7.55896 0c-1.0437012 0 -1.8898315 -0.84609985 -1.8898315 -1.889801z" fill-rule="evenodd"/><path fill="#999999" d="m575.43054 152.22444l0 0c0 -1.0437012 0.84606934 -1.889801 1.8897705 -1.889801l7.55896 0l0 0c0.5012207 0 0.9819336 0.19911194 1.3363037 0.5535126c0.35443115 0.3544159 0.55352783 0.835083 0.55352783 1.3362885l0 31.779465c0 1.0437012 -0.8461304 1.889801 -1.8898315 1.889801l-7.55896 0c-1.0437012 0 -1.8897705 -0.84609985 -1.8897705 -1.889801z" fill-rule="evenodd"/><path stroke="#434343" stroke-width="4.0" stroke-linejoin="round" stroke-linecap="butt" d="m575.43054 152.22444l0 0c0 -1.0437012 0.84606934 -1.889801 1.8897705 -1.889801l7.55896 0l0 0c0.5012207 0 0.9819336 0.19911194 1.3363037 0.5535126c0.35443115 0.3544159 0.55352783 0.835083 0.55352783 1.3362885l0 31.779465c0 1.0437012 -0.8461304 1.889801 -1.8898315 1.889801l-7.55896 0c-1.0437012 0 -1.8897705 -0.84609985 -1.8897705 -1.889801z" fill-rule="evenodd"/><path fill="#434343" d="m689.1192 149.57185l2.6378174 -15.968506l5.2755737 0l2.6378174 15.968506z" fill-rule="evenodd"/><path fill="#434343" d="m702.1588 157.87471l35.747986 0l0 26.582687l-35.747986 0z" fill-rule="evenodd"/><path fill="#434343" d="m702.1591 151.78741l7.8425293 0l0 6.0787506l-7.8425293 0z" fill-rule="evenodd"/><path fill="#434343" d="m716.1082 151.78741l7.8425293 0l0 6.0787506l-7.8425293 0z" fill-rule="evenodd"/><path fill="#434343" d="m730.0573 151.78741l7.8425293 0l0 6.0787506l-7.8425293 0z" fill-rule="evenodd"/><path fill="#999999" d="m686.63104 149.33357l15.527527 0l0 37.574814l-15.527527 0z" fill-rule="evenodd"/><path stroke="#434343" stroke-width="4.0" stroke-linejoin="round" stroke-linecap="butt" d="m686.63104 149.33357l15.527527 0l0 37.574814l-15.527527 0z" fill-rule="evenodd"/></g></svg>