<svg version="1.1" viewBox="0.0 0.0 629.0 415.0" fill="none" stroke="none" stroke-linecap="square" stroke-miterlimit="10" xmlns:xlink="http://www.w3.org/1999/xlink" xmlns="http://www.w3.org/2000/svg"><clipPath id="p.0"><path d="m0 0l629.0 0l0 415.0l-629.0 0l0 -415.0z" clip-rule="nonzero"/></clipPath><g clip-path="url(#p.0)"><path fill="#000000" fill-opacity="0.0" d="m0 0l629.0 0l0 415.0l-629.0 0z" fill-rule="evenodd"/><path fill="#434343" d="m571.3774 162.53018l54.64563 0l0 16.062988l-54.64563 0z" fill-rule="evenodd"/><path fill="#666666" d="m371.50394 162.53018l28.283478 0l0 39.842514l-28.283478 0z" fill-rule="evenodd"/><path fill="#434343" d="m20.257217 168.00525l150.11023 0l0 13.291336l-150.11023 0z" fill-rule="evenodd"/><path fill="#434343" d="m0 199.19685l0 94.96062l44.031498 -94.96062z" fill-rule="evenodd"/><path fill="#434343" d="m369.07068 382.33466l0 0c-18.246948 -50.597443 -31.59024 -102.831024 -39.845978 -155.98077l34.850037 -5.4132385l0 0c7.9089966 50.91745 20.691895 100.957214 38.172455 149.42957z" fill-rule="evenodd"/><path fill="#434343" d="m200.74289 198.34122l45.889755 16.220474l-44.850388 127.086624l-45.88977 -16.22049z" fill-rule="evenodd"/><path fill="#434343" d="m255.01683 261.33072l-8.147644 -25.196854l-7.7893677 0l8.147629 25.196854z" fill-rule="evenodd"/><path fill="#434343" d="m266.21298 276.45807l10.181183 -39.84253l5.755829 0l-10.181213 39.84253z" fill-rule="evenodd"/><path fill="#434343" d="m271.87912 274.55905l-50.999847 0.15322876l-1.1261444 5.6420593l50.999863 -0.15322876z" fill-rule="evenodd"/><path fill="#434343" d="m0 160.66667l44.031498 0l0 38.519684l-44.031498 0z" fill-rule="evenodd"/><path fill="#666666" d="m162.53806 142.32545l208.97638 0l0 73.6693l-208.97638 0z" fill-rule="evenodd"/><path fill="#434343" d="m182.14699 123.06562l70.61417 0l0 19.275581l-70.61417 0z" fill-rule="evenodd"/><path fill="#434343" d="m391.77167 186.00525l0 36.220474l167.02362 -36.220474z" fill-rule="evenodd"/><path fill="#434343" d="m186.52231 202.3727l184.97638 0l0 34.33072l-184.97638 0z" fill-rule="evenodd"/><path fill="#666666" d="m558.77954 142.33595l29.448792 0l0 43.65355l-29.448792 0z" fill-rule="evenodd"/><path fill="#434343" d="m572.47906 110.97899l15.747986 0l0 31.559052l-15.747986 0z" fill-rule="evenodd"/><path fill="#666666" d="m371.50394 155.61679l187.2756 0l0 30.362213l-187.2756 0z" fill-rule="evenodd"/><path fill="#434343" d="m199.09918 103.80577l36.72441 0l0 19.275597l-36.72441 0z" fill-rule="evenodd"/><path fill="#666666" d="m142.91602 168.68767l19.62204 0l0 47.338577l-19.62204 0z" fill-rule="evenodd"/><path fill="#666666" d="m162.53806 142.32545l424.7559 0l0 16.125992l-424.7559 0z" fill-rule="evenodd"/><path fill="#666666" d="m162.53806 168.68767l0 -26.141739l-19.62204 26.141739z" fill-rule="evenodd"/><path fill="#999999" d="m174.72441 160.30577l174.26772 0l0 21.102371l-174.26772 0z" fill-rule="evenodd"/><path fill="#434343" d="m391.75592 159.82414l167.02362 0l0 26.141739l-167.02362 0z" fill-rule="evenodd"/></g></svg>