<svg version="1.1" viewBox="0.0 0.0 738.2467191601049 429.4724409448819" fill="none" stroke="none" stroke-linecap="square" stroke-miterlimit="10" xmlns:xlink="http://www.w3.org/1999/xlink" xmlns="http://www.w3.org/2000/svg"><clipPath id="p.0"><path d="m0 0l738.2467 0l0 429.47244l-738.2467 0l0 -429.47244z" clip-rule="nonzero"/></clipPath><g clip-path="url(#p.0)"><path fill="#000000" fill-opacity="0.0" d="m0 0l738.2467 0l0 429.47244l-738.2467 0z" fill-rule="evenodd"/><path fill="#434343" d="m487.5787 409.74466l0 0c-34.172363 -72.55893 -57.773346 -149.63931 -70.08368 -228.89209l34.850037 -5.4132385l0 0c11.793304 75.92415 34.403046 149.76718 67.14017 219.2786z" fill-rule="evenodd"/><path stroke="#000000" stroke-width="3.0" stroke-linejoin="round" stroke-linecap="butt" d="m487.5787 409.74466l0 0c-34.172363 -72.55893 -57.773346 -149.63931 -70.08368 -228.89209l34.850037 -5.4132385l0 0c11.793304 75.92415 34.403046 149.76718 67.14017 219.2786z" fill-rule="evenodd"/><path fill="#434343" d="m289.0131 152.83984l57.039368 20.15747l-57.826782 163.84253l-57.039352 -20.15747z" fill-rule="evenodd"/><path stroke="#000000" stroke-width="3.0" stroke-linejoin="round" stroke-linecap="butt" d="m289.0131 152.83984l57.039368 20.15747l-57.826782 163.84253l-57.039352 -20.15747z" fill-rule="evenodd"/><path fill="#434343" d="m359.28717 215.82939l-8.147644 -25.196838l-7.7893677 0l8.147644 25.196838z" fill-rule="evenodd"/><path stroke="#000000" stroke-width="4.0" stroke-linejoin="round" stroke-linecap="butt" d="m359.28717 215.82939l-8.147644 -25.196838l-7.7893677 0l8.147644 25.196838z" fill-rule="evenodd"/><path fill="#434343" d="m39.228348 168.19685l0 94.96062l44.031494 -94.96062z" fill-rule="evenodd"/><path fill="#434343" d="m39.228348 129.66667l44.031494 0l0 38.519684l-44.031494 0z" fill-rule="evenodd"/><path fill="#434343" d="m83.485565 137.00525l150.11023 0l0 13.291336l-150.11023 0z" fill-rule="evenodd"/><path stroke="#000000" stroke-width="3.0" stroke-linejoin="round" stroke-linecap="butt" d="m83.485565 137.00525l150.11023 0l0 13.291336l-150.11023 0z" fill-rule="evenodd"/><path fill="#666666" d="m249.7664 111.32546l208.97636 0l0 80.25196l-208.97636 0z" fill-rule="evenodd"/><path fill="#000000" d="m370.4833 230.95676l10.181213 -39.84253l5.7557983 0l-10.181183 39.84253z" fill-rule="evenodd"/><path fill="#666666" d="m269.37534 92.06562l70.61417 0l0 19.275589l-70.61417 0z" fill-rule="evenodd"/><path stroke="#000000" stroke-width="3.0" stroke-linejoin="round" stroke-linecap="butt" d="m269.37534 92.06562l70.61417 0l0 19.275589l-70.61417 0z" fill-rule="evenodd"/><path fill="#434343" d="m458.73227 136.89502l0 54.330704l217.38583 -54.330704z" fill-rule="evenodd"/><path fill="#666666" d="m458.73227 111.32546l217.38583 0l0 13.291336l-217.38583 0z" fill-rule="evenodd"/><path fill="#434343" d="m676.1181 110.75328l29.448853 0l0 26.141739l-29.448853 0z" fill-rule="evenodd"/><path fill="#434343" d="m697.56683 120.178474l36.724365 0l0 16.062996l-36.724365 0z" fill-rule="evenodd"/><path fill="#434343" d="m689.5394 79.42781l15.747986 0l0 31.559052l-15.747986 0z" fill-rule="evenodd"/><path fill="#434343" d="m458.73227 123.71391l217.38583 0l0 13.291336l-217.38583 0z" fill-rule="evenodd"/><path fill="#000000" d="m377.38568 229.05775l-50.999847 0.1532135l-1.1261292 5.6420593l50.999847 -0.1532135z" fill-rule="evenodd"/><path fill="#666666" d="m286.3275 72.80577l36.724426 0l0 19.275597l-36.724426 0z" fill-rule="evenodd"/><path stroke="#000000" stroke-width="3.0" stroke-linejoin="round" stroke-linecap="butt" d="m286.3275 72.80577l36.724426 0l0 19.275597l-36.724426 0z" fill-rule="evenodd"/><path fill="#666666" d="m230.14436 137.24672l19.62204 0l0 54.330704l-19.62204 0z" fill-rule="evenodd"/><path fill="#666666" d="m249.7664 137.68767l0 -26.141739l-19.62204 26.141739z" fill-rule="evenodd"/><path fill="#999999" d="m262.95276 138.83989l174.2677 0l0 21.102371l-174.2677 0z" fill-rule="evenodd"/><path stroke="#000000" stroke-width="3.0" stroke-linejoin="round" stroke-linecap="butt" d="m262.95276 138.83989l174.2677 0l0 21.102371l-174.2677 0z" fill-rule="evenodd"/><path fill="#000000" fill-opacity="0.0" d="m459.2467 191.04068l-230.58266 -0.4094391" fill-rule="evenodd"/><path stroke="#000000" stroke-width="4.0" stroke-linejoin="round" stroke-linecap="butt" d="m459.2467 191.04068l-230.58266 -0.4094391" fill-rule="evenodd"/><path fill="#000000" fill-opacity="0.0" d="m676.1181 136.89502l-217.38583 54.330704" fill-rule="evenodd"/><path stroke="#000000" stroke-width="4.0" stroke-linejoin="round" stroke-linecap="butt" d="m676.1181 136.89502l-217.38583 54.330704" fill-rule="evenodd"/><path fill="#000000" fill-opacity="0.0" d="m249.7664 111.54593l-19.62204 26.141739" fill-rule="evenodd"/><path stroke="#000000" stroke-width="4.0" stroke-linejoin="round" stroke-linecap="butt" d="m249.7664 111.54593l-19.62204 26.141739" fill-rule="evenodd"/><path fill="#000000" fill-opacity="0.0" d="m39.228348 263.15747l44.031494 -94.96062" fill-rule="evenodd"/><path stroke="#000000" stroke-width="4.0" stroke-linejoin="round" stroke-linecap="butt" d="m39.228348 263.15747l44.031494 -94.96062" fill-rule="evenodd"/><path fill="#000000" fill-opacity="0.0" d="m39.228348 131.91339l0 131.24408" fill-rule="evenodd"/><path stroke="#000000" stroke-width="4.0" stroke-linejoin="round" stroke-linecap="butt" d="m39.228348 131.91339l0 131.24408" fill-rule="evenodd"/><path fill="#000000" fill-opacity="0.0" d="m249.7664 111.54593l439.87402 0" fill-rule="evenodd"/><path stroke="#000000" stroke-width="4.0" stroke-linejoin="round" stroke-linecap="butt" d="m249.7664 111.54593l439.87402 0" fill-rule="evenodd"/><path fill="#000000" fill-opacity="0.0" d="m39.929134 131.27034l43.370075 0" fill-rule="evenodd"/><path stroke="#000000" stroke-width="3.0" stroke-linejoin="round" stroke-linecap="butt" d="m39.929134 131.27034l43.370075 0" fill-rule="evenodd"/><path fill="#000000" fill-opacity="0.0" d="m83.485565 129.65092l-0.1889801 38.551178" fill-rule="evenodd"/><path stroke="#000000" stroke-width="3.0" stroke-linejoin="round" stroke-linecap="butt" d="m83.485565 129.65092l-0.1889801 38.551178" fill-rule="evenodd"/><path fill="#000000" fill-opacity="0.0" d="m230.14436 190.12862l0 -52.44095" fill-rule="evenodd"/><path stroke="#000000" stroke-width="3.0" stroke-linejoin="round" stroke-linecap="butt" d="m230.14436 190.12862l0 -52.44095" fill-rule="evenodd"/><path fill="#000000" d="m11.283464 227.67717l0 0c0 -1.0088959 0.78262043 -1.8267822 1.7480316 -1.8267822l0 0c0.46360683 0 0.90822506 0.19247437 1.2360449 0.53504944c0.32781982 0.34259033 0.51198673 0.8072357 0.51198673 1.2917328l0 0c0 1.0088959 -0.78262043 1.826767 -1.7480316 1.826767l0 0c-0.9654112 0 -1.7480316 -0.8178711 -1.7480316 -1.826767z" fill-rule="evenodd"/><path fill="#000000" d="m247.98163 111.59318l0 0c0 -1.0089035 0.7826233 -1.8267746 1.7480316 -1.8267746l0 0c0.4636078 0 0.9082184 0.19246674 1.2360382 0.53504944c0.32781982 0.34259033 0.5119934 0.8072357 0.5119934 1.2917252l0 0c0 1.0088959 -0.7826233 1.826767 -1.7480316 1.826767l0 0c-0.9654083 0 -1.7480316 -0.8178711 -1.7480316 -1.826767z" fill-rule="evenodd"/><path fill="#000000" fill-opacity="0.0" d="m689.7697 77.343834l0 35.90551" fill-rule="evenodd"/><path stroke="#000000" stroke-width="4.0" stroke-linejoin="round" stroke-linecap="butt" d="m689.7697 77.343834l0 35.90551" fill-rule="evenodd"/><path fill="#000000" fill-opacity="0.0" d="m705.3029 77.69333l0.25201416 44.377953" fill-rule="evenodd"/><path stroke="#000000" stroke-width="4.0" stroke-linejoin="round" stroke-linecap="butt" d="m705.3029 77.69333l0.25201416 44.377953" fill-rule="evenodd"/><path fill="#000000" fill-opacity="0.0" d="m691.7034 79.42782l13.51178 0.12598419" fill-rule="evenodd"/><path stroke="#000000" stroke-width="4.0" stroke-linejoin="round" stroke-linecap="butt" d="m691.7034 79.42782l13.51178 0.12598419" fill-rule="evenodd"/><path fill="#000000" fill-opacity="0.0" d="m676.0341 136.49081l58.236206 0" fill-rule="evenodd"/><path stroke="#000000" stroke-width="4.0" stroke-linejoin="round" stroke-linecap="butt" d="m676.0341 136.49081l58.236206 0" fill-rule="evenodd"/><path fill="#000000" fill-opacity="0.0" d="m734.2808 138.5958l0 -20.629913" fill-rule="evenodd"/><path stroke="#000000" stroke-width="4.0" stroke-linejoin="round" stroke-linecap="butt" d="m734.2808 138.5958l0 -20.629913" fill-rule="evenodd"/><path fill="#000000" fill-opacity="0.0" d="m734.36743 119.82415l-28.598389 0" fill-rule="evenodd"/><path stroke="#000000" stroke-width="4.0" stroke-linejoin="round" stroke-linecap="butt" d="m734.36743 119.82415l-28.598389 0" fill-rule="evenodd"/></g></svg>