<svg version="1.1" viewBox="0.0 0.0 867.0 160.0" fill="none" stroke="none" stroke-linecap="square" stroke-miterlimit="10" xmlns:xlink="http://www.w3.org/1999/xlink" xmlns="http://www.w3.org/2000/svg"><clipPath id="p.0"><path d="m0 0l867.0 0l0 160.0l-867.0 0l0 -160.0z" clip-rule="nonzero"/></clipPath><g clip-path="url(#p.0)"><path fill="#000000" fill-opacity="0.0" d="m0 0l867.0 0l0 160.0l-867.0 0z" fill-rule="evenodd"/><path fill="#bb7554" d="m8.6797905 43.431694l217.5433 0l0 73.10236l-217.5433 0z" fill-rule="evenodd"/><path fill="#666666" d="m592.35956 60.435696l217.54333 0l0 39.181103l-217.54333 0z" fill-rule="evenodd"/><path fill="#b7b7b7" d="m397.9449 104.6168l16.629913 0l0 45.826775l-16.629913 0z" fill-rule="evenodd"/><path fill="#bb7554" d="m445.0105 44.041996l179.74805 3.299034l0 65.37044l-179.74805 3.299034z" fill-rule="evenodd"/><path fill="#666666" d="m0.25984251 43.475224l14.015748 0l0 73.102356l-14.015748 0z" fill-rule="evenodd"/><path fill="#666666" d="m211.19423 40.30971l236.85039 0l0 79.37007l-236.85039 0z" fill-rule="evenodd"/><path fill="#999999" d="m246.07086 62.564304l180.53543 0l0 34.80315l-180.53543 0z" fill-rule="evenodd"/><path fill="#666666" d="m170.89436 63.914886l43.179886 0l0 32.185196l-43.179886 0z" fill-rule="evenodd"/><path fill="#434343" d="m178.02382 71.97446l14.970383 0l0 16.038048l-14.970383 0z" fill-rule="evenodd"/><path fill="#434343" d="m202.18901 71.98809l14.970383 0l0 16.038048l-14.970383 0z" fill-rule="evenodd"/><path fill="#cccccc" d="m226.35439 71.97381l14.970383 0l0 16.038048l-14.970383 0z" fill-rule="evenodd"/><path fill="#434343" d="m221.05873 40.313663l5.2447357 0l0 79.37196l-5.2447357 0z" fill-rule="evenodd"/><path fill="#999999" d="m641.4934 46.75328l-20.15747 0l0 66.42519l20.15747 0z" fill-rule="evenodd"/><path fill="#666666" d="m433.30447 60.707188l78.48819 0l0 38.51968l-78.48819 0z" fill-rule="evenodd"/><path fill="#434343" d="m847.181 59.559303l19.559082 0l0 40.850395l-19.559082 0z" fill-rule="evenodd"/><path fill="#434343" d="m794.78345 51.322834l52.37799 0l0 57.35433l-52.37799 0z" fill-rule="evenodd"/><path fill="#666666" d="m800.8343 74.641136l19.559082 0l0 10.708664l-19.559082 0z" fill-rule="evenodd"/><path fill="#666666" d="m820.38684 69.25813l30.897644 0l0 21.480316l-30.897644 0z" fill-rule="evenodd"/><path fill="#000000" d="m820.38684 74.641136l30.897644 0l0 10.708664l-30.897644 0z" fill-rule="evenodd"/><path fill="#999999" d="m441.33142 39.222183l10.145996 0l0 26.020714l-10.145996 0z" fill-rule="evenodd"/><path fill="#434343" d="m489.77075 51.028084l34.630554 0l0 57.945312l-34.630554 0z" fill-rule="evenodd"/><path fill="#999999" d="m451.48477 51.028084l72.90878 0l0 14.210396l-72.90878 0z" fill-rule="evenodd"/><path fill="#999999" d="m451.47757 94.75579l72.90878 0l0 14.210396l-72.90878 0z" fill-rule="evenodd"/><path fill="#999999" d="m512.67566 51.02684l11.743652 0l0 57.945305l-11.743652 0z" fill-rule="evenodd"/><path fill="#999999" d="m503.74722 51.031918l4.314911 0l0 57.94531l-4.314911 0z" fill-rule="evenodd"/><path fill="#434343" d="m478.93307 65.24343l5.6271973 0l0 5.817528l-5.6271973 0z" fill-rule="evenodd"/><path fill="#434343" d="m468.49167 65.24343l5.6271973 0l0 5.817528l-5.6271973 0z" fill-rule="evenodd"/><path fill="#434343" d="m457.58286 65.24343l5.6271973 0l0 5.817528l-5.6271973 0z" fill-rule="evenodd"/><path fill="#434343" d="m478.9544 88.93701l5.6271973 0l0 5.81752l-5.6271973 0z" fill-rule="evenodd"/><path fill="#434343" d="m468.5343 88.93701l5.6271973 0l0 5.81752l-5.6271973 0z" fill-rule="evenodd"/><path fill="#434343" d="m457.6255 88.93701l5.6271973 0l0 5.81752l-5.6271973 0z" fill-rule="evenodd"/><path fill="#999999" d="m441.33142 94.754906l10.145996 0l0 26.020714l-10.145996 0z" fill-rule="evenodd"/></g></svg>