<svg version="1.1" viewBox="0.0 0.0 837.1102362204724 131.9501312335958" fill="none" stroke="none" stroke-linecap="square" stroke-miterlimit="10" xmlns:xlink="http://www.w3.org/1999/xlink" xmlns="http://www.w3.org/2000/svg"><clipPath id="p.0"><path d="m0 0l837.1102 0l0 131.95013l-837.1102 0l0 -131.95013z" clip-rule="nonzero"/></clipPath><g clip-path="url(#p.0)"><path fill="#000000" fill-opacity="0.0" d="m0 0l837.1102 0l0 131.95013l-837.1102 0z" fill-rule="evenodd"/><path fill="#666666" d="m592.1011 43.065197l170.42517 0l0 45.82677l-170.42517 0z" fill-rule="evenodd"/><path fill="#b7b7b7" d="m341.14435 86.18372l16.629944 0l0 45.826775l-16.629944 0z" fill-rule="evenodd"/><path fill="#666666" d="m2.6253996 26.281279l14.010783 0l0 79.380615l-14.010783 0z" fill-rule="evenodd"/><path fill="#bb7554" d="m16.636183 26.281279l597.6904 0l0 79.380615l-597.6904 0z" fill-rule="evenodd"/><path fill="#666666" d="m193.27165 26.288713l246.01576 0l0 79.37008l-246.01576 0z" fill-rule="evenodd"/><path fill="#999999" d="m383.1942 28.75322l9.259857 0l0 23.748032l-9.259857 0z" fill-rule="evenodd"/><path fill="#999999" d="m229.32283 46.427822l146.45668 0l0 39.086613l-146.45668 0z" fill-rule="evenodd"/><path fill="#666666" d="m151.29987 49.893887l43.1799 0l0 32.1852l-43.1799 0z" fill-rule="evenodd"/><path fill="#434343" d="m158.42934 57.953457l14.970383 0l0 16.038052l-14.970383 0z" fill-rule="evenodd"/><path fill="#434343" d="m182.59453 57.967094l14.970383 0l0 16.038048l-14.970383 0z" fill-rule="evenodd"/><path fill="#cccccc" d="m206.75989 57.95281l14.970398 0l0 16.038044l-14.970398 0z" fill-rule="evenodd"/><path fill="#434343" d="m201.46425 26.292667l5.2447205 0l0 79.37196l-5.2447205 0z" fill-rule="evenodd"/><path fill="#434343" d="m427.4028 39.527977l31.605865 0l0 52.884285l-31.605865 0z" fill-rule="evenodd"/><path fill="#999999" d="m392.46075 39.527977l66.54083 0l0 12.969242l-66.54083 0z" fill-rule="evenodd"/><path fill="#999999" d="m392.4542 79.43645l66.54083 0l0 12.969238l-66.54083 0z" fill-rule="evenodd"/><path fill="#999999" d="m448.30713 39.52684l10.717987 0l0 52.884285l-10.717987 0z" fill-rule="evenodd"/><path fill="#999999" d="m440.15854 39.531475l3.9380493 0l0 52.88428l-3.9380493 0z" fill-rule="evenodd"/><path fill="#999999" d="m625.34515 26.287231l-20.15747 0l0 79.37008l20.15747 0z" fill-rule="evenodd"/><path fill="#434343" d="m814.9238 45.538307l19.559082 0l0 40.850395l-19.559082 0z" fill-rule="evenodd"/><path fill="#434343" d="m762.52625 37.301838l52.37793 0l0 57.35433l-52.37793 0z" fill-rule="evenodd"/><path fill="#666666" d="m768.5771 60.62014l19.559021 0l0 10.708656l-19.559021 0z" fill-rule="evenodd"/><path fill="#666666" d="m788.12964 55.237137l30.897644 0l0 21.480316l-30.897644 0z" fill-rule="evenodd"/><path fill="#000000" d="m788.12964 60.62014l30.897644 0l0 10.708656l-30.897644 0z" fill-rule="evenodd"/><path fill="#434343" d="m417.51172 52.501736l5.135681 0l0 5.309414l-5.135681 0z" fill-rule="evenodd"/><path fill="#434343" d="m407.98227 52.501736l5.135681 0l0 5.309414l-5.135681 0z" fill-rule="evenodd"/><path fill="#434343" d="m398.02625 52.501736l5.135681 0l0 5.309414l-5.135681 0z" fill-rule="evenodd"/><path fill="#434343" d="m417.53116 74.125885l5.1357117 0l0 5.30941l-5.1357117 0z" fill-rule="evenodd"/><path fill="#434343" d="m408.02118 74.125885l5.135681 0l0 5.30941l-5.135681 0z" fill-rule="evenodd"/><path fill="#434343" d="m398.06516 74.125885l5.135681 0l0 5.30941l-5.135681 0z" fill-rule="evenodd"/><path fill="#999999" d="m383.1942 79.43563l9.259857 0l0 23.748032l-9.259857 0z" fill-rule="evenodd"/></g></svg>