<svg version="1.1" viewBox="0.0 0.0 754.0 106.0" fill="none" stroke="none" stroke-linecap="square" stroke-miterlimit="10" xmlns:xlink="http://www.w3.org/1999/xlink" xmlns="http://www.w3.org/2000/svg"><clipPath id="p.0"><path d="m0 0l754.0 0l0 106.0l-754.0 0l0 -106.0z" clip-rule="nonzero"/></clipPath><g clip-path="url(#p.0)"><path fill="#000000" fill-opacity="0.0" d="m0 0l754.0 0l0 106.0l-754.0 0z" fill-rule="evenodd"/><path fill="#b7b7b7" d="m343.9134 73.69292l9.259827 0l0 22.267715l-9.259827 0z" fill-rule="evenodd"/><path fill="#666666" d="m1.9002625 30.082788l12.850393 0l0 45.831482l-12.850393 0z" fill-rule="evenodd"/><path fill="#bb7554" d="m14.750656 30.082788l548.18896 0l0 45.831482l-548.18896 0z" fill-rule="evenodd"/><path fill="#666666" d="m172.66142 30.08924l265.88977 0l0 45.826767l-265.88977 0z" fill-rule="evenodd"/><path fill="#999999" d="m360.2688 30.610365l5.448822 0l0 16.503935l-5.448822 0z" fill-rule="evenodd"/><path fill="#999999" d="m192.07874 42.598087l168.50394 0l0 20.818897l-168.50394 0z" fill-rule="evenodd"/><path fill="#999999" d="m360.2688 58.881092l5.448822 0l0 16.50394l-5.448822 0z" fill-rule="evenodd"/><path fill="#666666" d="m145.95276 43.71581l26.708664 0l0 18.58268l-26.708664 0z" fill-rule="evenodd"/><path fill="#434343" d="m150.36264 48.36914l9.259842 0l0 9.259842l-9.259842 0z" fill-rule="evenodd"/><path fill="#434343" d="m165.30988 48.377014l9.259842 0l0 9.259846l-9.259842 0z" fill-rule="evenodd"/><path fill="#cccccc" d="m180.25722 48.368767l9.259842 0l0 9.259842l-9.259842 0z" fill-rule="evenodd"/><path fill="#434343" d="m176.98163 30.08924l3.2440948 0l0 45.826767l-3.2440948 0z" fill-rule="evenodd"/><path fill="#434343" d="m433.16602 30.091864l41.763763 0l0 45.826767l-41.763763 0z" fill-rule="evenodd"/><path fill="#999999" d="m378.09055 30.091864l96.81891 0l0 11.244093l-96.81891 0z" fill-rule="evenodd"/><path fill="#999999" d="m378.09055 64.67913l96.81891 0l0 11.244095l-96.81891 0z" fill-rule="evenodd"/><path fill="#999999" d="m465.32254 30.091864l9.606293 0l0 45.826767l-9.606293 0z" fill-rule="evenodd"/><path fill="#999999" d="m454.06775 30.091864l2.4252014 0l0 45.826767l-2.4252014 0z" fill-rule="evenodd"/><path fill="#434343" d="m422.80164 60.070873l4.598419 0l0 4.598423l-4.598419 0z" fill-rule="evenodd"/><path fill="#434343" d="m412.4415 60.070873l4.598419 0l0 4.598423l-4.598419 0z" fill-rule="evenodd"/><path fill="#434343" d="m402.1531 60.070873l4.598419 0l0 4.598423l-4.598419 0z" fill-rule="evenodd"/><path fill="#434343" d="m391.88367 60.070873l4.5984497 0l0 4.598423l-4.5984497 0z" fill-rule="evenodd"/><path fill="#434343" d="m381.6185 60.070873l4.598419 0l0 4.598423l-4.598419 0z" fill-rule="evenodd"/><path fill="#434343" d="m422.74255 41.333992l4.598419 0l0 4.598423l-4.598419 0z" fill-rule="evenodd"/><path fill="#434343" d="m412.38242 41.333992l4.598419 0l0 4.598423l-4.598419 0z" fill-rule="evenodd"/><path fill="#434343" d="m402.09402 41.333992l4.598419 0l0 4.598423l-4.598419 0z" fill-rule="evenodd"/><path fill="#434343" d="m391.8246 41.333992l4.5984497 0l0 4.598423l-4.5984497 0z" fill-rule="evenodd"/><path fill="#434343" d="m381.55942 41.333992l4.598419 0l0 4.598423l-4.598419 0z" fill-rule="evenodd"/><path fill="#999999" d="m562.93964 30.08924l5.984253 0l0 45.826767l-5.984253 0z" fill-rule="evenodd"/><path fill="#666666" d="m568.9239 39.66472l170.42517 0l0 26.645668l-170.42517 0z" fill-rule="evenodd"/><path fill="#434343" d="m739.3438 39.66472l12.75592 0l0 26.645668l-12.75592 0z" fill-rule="evenodd"/><path fill="#434343" d="m705.1601 34.29134l34.173218 0l0 37.417324l-34.173218 0z" fill-rule="evenodd"/><path fill="#666666" d="m709.1076 49.503937l12.75592 0l0 6.9921265l-12.75592 0z" fill-rule="evenodd"/><path fill="#666666" d="m721.8635 45.992126l20.15747 0l0 14.015747l-20.15747 0z" fill-rule="evenodd"/><path fill="#000000" d="m721.8635 49.503937l20.15747 0l0 6.9921265l-20.15747 0z" fill-rule="evenodd"/></g></svg>