<svg version="1.1" viewBox="0.0 0.0 754.0 106.0" fill="none" stroke="none" stroke-linecap="square" stroke-miterlimit="10" xmlns:xlink="http://www.w3.org/1999/xlink" xmlns="http://www.w3.org/2000/svg"><clipPath id="p.0"><path d="m0 0l754.0 0l0 106.0l-754.0 0l0 -106.0z" clip-rule="nonzero"/></clipPath><g clip-path="url(#p.0)"><path fill="#000000" fill-opacity="0.0" d="m0 0l754.0 0l0 106.0l-754.0 0z" fill-rule="evenodd"/><path fill="#b7b7b7" d="m380.11548 66.62467l3.24411 0l0 18.740158l-3.24411 0z" fill-rule="evenodd"/><path fill="#666666" d="m1.9002625 38.74803l12.850393 0l0 28.503937l-12.850393 0z" fill-rule="evenodd"/><path fill="#bb7554" d="m14.750656 38.74803l548.18896 0l0 28.503937l-548.18896 0z" fill-rule="evenodd"/><path fill="#666666" d="m197.93964 38.74803l265.88977 0l0 28.503937l-265.88977 0z" fill-rule="evenodd"/><path fill="#666666" d="m177.78215 45.992126l20.157486 0l0 14.015747l-20.157486 0z" fill-rule="evenodd"/><path fill="#434343" d="m181.11023 49.503937l6.9921265 0l0 6.9921265l-6.9921265 0z" fill-rule="evenodd"/><path fill="#999999" d="m385.8609 39.700787l3.2440796 0l0 9.795277l-3.2440796 0z" fill-rule="evenodd"/><path fill="#434343" d="m193.60892 49.503937l6.9921265 0l0 6.9921265l-6.9921265 0z" fill-rule="evenodd"/><path fill="#999999" d="m217.35695 46.527557l168.50395 0l0 12.944885l-168.50395 0z" fill-rule="evenodd"/><path fill="#999999" d="m385.8609 56.496063l3.2440796 0l0 9.795273l-3.2440796 0z" fill-rule="evenodd"/><path fill="#cccccc" d="m204.15224 49.503937l6.9921265 0l0 6.9921265l-6.9921265 0z" fill-rule="evenodd"/><path fill="#434343" d="m203.61417 39.503937l1.5118256 0l0 26.992126l-1.5118256 0z" fill-rule="evenodd"/><path fill="#434343" d="m437.86353 38.74803l25.984253 0l0 28.503937l-25.984253 0z" fill-rule="evenodd"/><path fill="#999999" d="m403.60892 38.74803l60.22049 0l0 6.9921265l-60.22049 0z" fill-rule="evenodd"/><path fill="#999999" d="m403.60892 60.259842l60.22049 0l0 6.9921265l-60.22049 0z" fill-rule="evenodd"/><path fill="#999999" d="m457.86353 38.74803l5.984253 0l0 28.503937l-5.984253 0z" fill-rule="evenodd"/><path fill="#999999" d="m450.86353 38.74803l1.5118103 0l0 28.503937l-1.5118103 0z" fill-rule="evenodd"/><path fill="#434343" d="m431.41733 57.3937l2.86615 0l0 2.8661423l-2.86615 0z" fill-rule="evenodd"/><path fill="#434343" d="m424.97375 57.3937l2.86615 0l0 2.8661423l-2.86615 0z" fill-rule="evenodd"/><path fill="#434343" d="m418.5748 57.3937l2.86615 0l0 2.8661423l-2.86615 0z" fill-rule="evenodd"/><path fill="#434343" d="m412.18765 57.3937l2.86615 0l0 2.8661423l-2.86615 0z" fill-rule="evenodd"/><path fill="#434343" d="m405.80316 57.3937l2.8661194 0l0 2.8661423l-2.8661194 0z" fill-rule="evenodd"/><path fill="#434343" d="m431.38058 45.740158l2.8661194 0l0 2.8661423l-2.8661194 0z" fill-rule="evenodd"/><path fill="#434343" d="m424.937 45.740158l2.86615 0l0 2.8661423l-2.86615 0z" fill-rule="evenodd"/><path fill="#434343" d="m418.53806 45.740158l2.86615 0l0 2.8661423l-2.86615 0z" fill-rule="evenodd"/><path fill="#434343" d="m412.1509 45.740158l2.86615 0l0 2.8661423l-2.86615 0z" fill-rule="evenodd"/><path fill="#434343" d="m405.76642 45.740158l2.8661194 0l0 2.8661423l-2.8661194 0z" fill-rule="evenodd"/><path fill="#666666" d="m393.18372 36.259842l10.425201 0l0 33.480316l-10.425201 0z" fill-rule="evenodd"/><path fill="#999999" d="m562.93964 38.74803l5.984253 0l0 28.503937l-5.984253 0z" fill-rule="evenodd"/><path fill="#666666" d="m568.9239 42.842518l170.42517 0l0 20.314964l-170.42517 0z" fill-rule="evenodd"/><path fill="#434343" d="m739.3438 42.842518l12.75592 0l0 20.314964l-12.75592 0z" fill-rule="evenodd"/><path fill="#434343" d="m709.1076 38.74803l30.236206 0l0 28.503937l-30.236206 0z" fill-rule="evenodd"/><path fill="#666666" d="m709.1076 49.503937l12.75592 0l0 6.9921265l-12.75592 0z" fill-rule="evenodd"/><path fill="#666666" d="m721.8635 45.992126l20.15747 0l0 14.015747l-20.15747 0z" fill-rule="evenodd"/><path fill="#000000" d="m721.8635 49.503937l20.15747 0l0 6.9921265l-20.15747 0z" fill-rule="evenodd"/></g></svg>