<svg version="1.1" viewBox="0.0 0.0 868.0314960629921 132.0" fill="none" stroke="none" stroke-linecap="square" stroke-miterlimit="10" xmlns:xlink="http://www.w3.org/1999/xlink" xmlns="http://www.w3.org/2000/svg"><clipPath id="p.0"><path d="m0 0l868.0315 0l0 132.0l-868.0315 0l0 -132.0z" clip-rule="nonzero"/></clipPath><g clip-path="url(#p.0)"><path fill="#000000" fill-opacity="0.0" d="m0 0l868.0315 0l0 132.0l-868.0315 0z" fill-rule="evenodd"/><path fill="#bb7554" d="m8.422572 29.410698l217.5433 0l0 73.10236l-217.5433 0z" fill-rule="evenodd"/><path fill="#666666" d="m592.10236 46.4147l217.54333 0l0 39.181103l-217.54333 0z" fill-rule="evenodd"/><path fill="#b7b7b7" d="m400.71915 85.5958l16.629944 0l0 45.826775l-16.629944 0z" fill-rule="evenodd"/><path fill="#bb7554" d="m444.7533 30.020998l179.74805 3.299036l0 65.37044l-179.74805 3.299034z" fill-rule="evenodd"/><path fill="#666666" d="m0.002624672 29.454226l14.015748 0l0 73.10236l-14.015748 0z" fill-rule="evenodd"/><path fill="#666666" d="m210.93701 26.288713l236.8504 0l0 79.37008l-236.8504 0z" fill-rule="evenodd"/><path fill="#999999" d="m245.81364 48.54331l180.53545 0l0 34.80315l-180.53545 0z" fill-rule="evenodd"/><path fill="#666666" d="m170.63715 49.893887l43.179886 0l0 32.1852l-43.179886 0z" fill-rule="evenodd"/><path fill="#434343" d="m177.7666 57.953457l14.970383 0l0 16.038052l-14.970383 0z" fill-rule="evenodd"/><path fill="#434343" d="m201.9318 57.967094l14.970383 0l0 16.038048l-14.970383 0z" fill-rule="evenodd"/><path fill="#cccccc" d="m226.09717 57.95281l14.970383 0l0 16.038044l-14.970383 0z" fill-rule="evenodd"/><path fill="#434343" d="m220.80151 26.292667l5.2447357 0l0 79.37196l-5.2447357 0z" fill-rule="evenodd"/><path fill="#999999" d="m641.2362 32.732285l-20.15747 0l0 66.42519l20.15747 0z" fill-rule="evenodd"/><path fill="#666666" d="m433.04724 46.686188l78.48819 0l0 38.519684l-78.48819 0z" fill-rule="evenodd"/><path fill="#434343" d="m846.9238 45.538307l19.559082 0l0 40.850395l-19.559082 0z" fill-rule="evenodd"/><path fill="#434343" d="m794.52625 37.301838l52.37793 0l0 57.35433l-52.37793 0z" fill-rule="evenodd"/><path fill="#666666" d="m800.5771 60.62014l19.559021 0l0 10.708656l-19.559021 0z" fill-rule="evenodd"/><path fill="#666666" d="m820.12964 55.237137l30.897644 0l0 21.480316l-30.897644 0z" fill-rule="evenodd"/><path fill="#000000" d="m820.12964 60.62014l30.897644 0l0 10.708656l-30.897644 0z" fill-rule="evenodd"/><path fill="#999999" d="m441.0742 25.201185l10.146027 0l0 26.020716l-10.146027 0z" fill-rule="evenodd"/><path fill="#434343" d="m489.51355 37.007088l34.630554 0l0 57.945305l-34.630554 0z" fill-rule="evenodd"/><path fill="#999999" d="m451.22754 37.007088l72.90875 0l0 14.210396l-72.90875 0z" fill-rule="evenodd"/><path fill="#999999" d="m451.22037 80.734795l72.90878 0l0 14.210396l-72.90878 0z" fill-rule="evenodd"/><path fill="#999999" d="m512.4184 37.00584l11.743713 0l0 57.94531l-11.743713 0z" fill-rule="evenodd"/><path fill="#999999" d="m503.49 37.010918l4.3149414 0l0 57.945312l-4.3149414 0z" fill-rule="evenodd"/><path fill="#434343" d="m478.67587 51.222435l5.6271973 0l0 5.817524l-5.6271973 0z" fill-rule="evenodd"/><path fill="#434343" d="m468.23444 51.222435l5.6271973 0l0 5.817524l-5.6271973 0z" fill-rule="evenodd"/><path fill="#434343" d="m457.32565 51.222435l5.6271667 0l0 5.817524l-5.6271667 0z" fill-rule="evenodd"/><path fill="#434343" d="m478.69717 74.91601l5.6271973 0l0 5.817528l-5.6271973 0z" fill-rule="evenodd"/><path fill="#434343" d="m468.27707 74.91601l5.6271973 0l0 5.817528l-5.6271973 0z" fill-rule="evenodd"/><path fill="#434343" d="m457.36826 74.91601l5.6271973 0l0 5.817528l-5.6271973 0z" fill-rule="evenodd"/><path fill="#999999" d="m441.0742 80.73391l10.146027 0l0 26.020714l-10.146027 0z" fill-rule="evenodd"/></g></svg>