<svg version="1.1" viewBox="0.0 0.0 837.1102362204724 131.9501312335958" fill="none" stroke="none" stroke-linecap="square" stroke-miterlimit="10" xmlns:xlink="http://www.w3.org/1999/xlink" xmlns="http://www.w3.org/2000/svg"><clipPath id="p.0"><path d="m0 0l837.1102 0l0 131.95013l-837.1102 0l0 -131.95013z" clip-rule="nonzero"/></clipPath><g clip-path="url(#p.0)"><path fill="#000000" fill-opacity="0.0" d="m0 0l837.1102 0l0 131.95013l-837.1102 0z" fill-rule="evenodd"/><path fill="#666666" d="m592.1011 43.065197l170.42517 0l0 45.82677l-170.42517 0z" fill-rule="evenodd"/><path fill="#b7b7b7" d="m341.14435 86.18372l16.629944 0l0 45.826775l-16.629944 0z" fill-rule="evenodd"/><path fill="#666666" d="m2.6253996 26.281279l14.010783 0l0 79.380615l-14.010783 0z" fill-rule="evenodd"/><path fill="#bb7554" d="m16.636183 26.281279l597.6904 0l0 79.380615l-597.6904 0z" fill-rule="evenodd"/><path fill="#666666" d="m193.27165 26.288713l246.01576 0l0 79.37008l-246.01576 0z" fill-rule="evenodd"/><path fill="#999999" d="m362.7734 27.941908l9.259827 0l0 28.031496l-9.259827 0z" fill-rule="evenodd"/><path fill="#999999" d="m237.70735 46.427822l125.32283 0l0 39.086613l-125.32283 0z" fill-rule="evenodd"/><path fill="#999999" d="m362.7734 75.98539l9.259827 0l0 28.031494l-9.259827 0z" fill-rule="evenodd"/><path fill="#666666" d="m151.29987 49.893887l43.1799 0l0 32.1852l-43.1799 0z" fill-rule="evenodd"/><path fill="#434343" d="m158.42934 57.953457l14.970383 0l0 16.038052l-14.970383 0z" fill-rule="evenodd"/><path fill="#434343" d="m182.59453 57.967094l14.970383 0l0 16.038048l-14.970383 0z" fill-rule="evenodd"/><path fill="#cccccc" d="m206.75989 57.95281l14.970398 0l0 16.038044l-14.970398 0z" fill-rule="evenodd"/><path fill="#434343" d="m201.46425 26.292667l5.2447205 0l0 79.37196l-5.2447205 0z" fill-rule="evenodd"/><path fill="#434343" d="m439.31622 26.287401l54.48819 0l0 79.37008l-54.48819 0z" fill-rule="evenodd"/><path fill="#999999" d="m381.78137 26.287401l112.0 0l0 19.464567l-112.0 0z" fill-rule="evenodd"/><path fill="#999999" d="m381.77032 86.184975l112.0 0l0 19.46457l-112.0 0z" fill-rule="evenodd"/><path fill="#999999" d="m477.191 26.287008l16.629913 0l0 79.37008l-16.629913 0z" fill-rule="evenodd"/><path fill="#999999" d="m461.8968 26.299213l6.1102295 0l0 79.37007l-6.1102295 0z" fill-rule="evenodd"/><path fill="#434343" d="m424.63367 78.20991l7.968506 0l0 7.968498l-7.968506 0z" fill-rule="evenodd"/><path fill="#434343" d="m406.693 78.20991l7.968506 0l0 7.968498l-7.968506 0z" fill-rule="evenodd"/><path fill="#434343" d="m388.8766 78.20991l7.968506 0l0 7.968498l-7.968506 0z" fill-rule="evenodd"/><path fill="#434343" d="m424.53137 45.761375l7.9684753 0l0 7.968502l-7.9684753 0z" fill-rule="evenodd"/><path fill="#434343" d="m406.5907 45.761375l7.968506 0l0 7.968502l-7.968506 0z" fill-rule="evenodd"/><path fill="#434343" d="m388.77426 45.761375l7.968506 0l0 7.968502l-7.968506 0z" fill-rule="evenodd"/><path fill="#999999" d="m625.34515 26.287231l-20.15747 0l0 79.37008l20.15747 0z" fill-rule="evenodd"/><path fill="#434343" d="m814.9238 45.538307l19.559082 0l0 40.850395l-19.559082 0z" fill-rule="evenodd"/><path fill="#434343" d="m762.52625 37.301838l52.37793 0l0 57.35433l-52.37793 0z" fill-rule="evenodd"/><path fill="#666666" d="m768.5771 60.62014l19.559021 0l0 10.708656l-19.559021 0z" fill-rule="evenodd"/><path fill="#666666" d="m788.12964 55.237137l30.897644 0l0 21.480316l-30.897644 0z" fill-rule="evenodd"/><path fill="#000000" d="m788.12964 60.62014l30.897644 0l0 10.708656l-30.897644 0z" fill-rule="evenodd"/></g></svg>