<svg version="1.1" viewBox="0.0 0.0 867.0 160.0" fill="none" stroke="none" stroke-linecap="square" stroke-miterlimit="10" xmlns:xlink="http://www.w3.org/1999/xlink" xmlns="http://www.w3.org/2000/svg"><clipPath id="p.0"><path d="m0 0l867.0 0l0 160.0l-867.0 0l0 -160.0z" clip-rule="nonzero"/></clipPath><g clip-path="url(#p.0)"><path fill="#000000" fill-opacity="0.0" d="m0 0l867.0 0l0 160.0l-867.0 0z" fill-rule="evenodd"/><path fill="#bb7554" d="m10.207349 49.018303l217.5433 0l0 61.889763l-217.5433 0z" fill-rule="evenodd"/><path fill="#666666" d="m590.853 66.25197l217.54327 0l0 27.496063l-217.54327 0z" fill-rule="evenodd"/><path fill="#b7b7b7" d="m415.3622 99.25984l16.629913 0l0 45.826767l-16.629913 0z" fill-rule="evenodd"/><path fill="#666666" d="m1.7874016 49.055145l14.015748 0l0 61.889763l-14.015748 0z" fill-rule="evenodd"/><path fill="#666666" d="m211.2336 46.80315l285.7953 0l0 66.39371l-285.7953 0z" fill-rule="evenodd"/><path fill="#bb7554" d="m488.93964 45.086613l144.59845 7.005024l0 55.816727l-144.59845 7.00502z" fill-rule="evenodd"/><path fill="#999999" d="m247.93045 66.173225l204.12598 0l0 27.496063l-204.12598 0z" fill-rule="evenodd"/><path fill="#666666" d="m170.93129 66.46787l43.1799 0l0 26.920723l-43.1799 0z" fill-rule="evenodd"/><path fill="#434343" d="m178.06076 73.20915l14.970383 0l0 13.414734l-14.970383 0z" fill-rule="evenodd"/><path fill="#434343" d="m202.22595 73.22056l14.970383 0l0 13.414734l-14.970383 0z" fill-rule="evenodd"/><path fill="#cccccc" d="m226.39133 73.20861l14.970383 0l0 13.414734l-14.970383 0z" fill-rule="evenodd"/><path fill="#434343" d="m221.09567 46.72706l5.2447205 0l0 66.389244l-5.2447205 0z" fill-rule="evenodd"/><path fill="#999999" d="m652.7362 51.59055l-20.15747 0l0 56.66142l20.15747 0z" fill-rule="evenodd"/><path fill="#666666" d="m459.90286 60.66142l61.29135 0l0 38.51968l-61.29135 0z" fill-rule="evenodd"/><path fill="#434343" d="m848.7744 65.30776l16.439392 0l0 29.252052l-16.439392 0z" fill-rule="evenodd"/><path fill="#434343" d="m807.3583 60.741238l44.02368 0l0 38.5174l-44.02368 0z" fill-rule="evenodd"/><path fill="#666666" d="m809.8343 75.52449l16.439392 0l0 9.000633l-16.439392 0z" fill-rule="evenodd"/><path fill="#666666" d="m826.2682 71.00008l25.969482 0l0 18.054207l-25.969482 0z" fill-rule="evenodd"/><path fill="#000000" d="m826.2682 75.52449l25.969482 0l0 9.000633l-25.969482 0z" fill-rule="evenodd"/><path fill="#999999" d="m466.6929 46.803024l8.953339 0l0 20.160248l-8.953339 0z" fill-rule="evenodd"/><path fill="#434343" d="m511.54074 54.4147l20.157257 0l0 51.133816l-20.157257 0z" fill-rule="evenodd"/><path fill="#999999" d="m475.65128 54.4147l56.055573 0l0 12.539959l-56.055573 0z" fill-rule="evenodd"/><path fill="#999999" d="m475.64575 93.00223l56.055603 0l0 12.539955l-56.055603 0z" fill-rule="evenodd"/><path fill="#999999" d="m526.23584 54.414898l10.36322 0l0 51.133816l-10.36322 0z" fill-rule="evenodd"/><path fill="#999999" d="m518.2296 54.414127l3.8077393 0l0 51.133816l-3.8077393 0z" fill-rule="evenodd"/><path fill="#434343" d="m499.87442 66.96033l4.9656982 0l0 5.133667l-4.9656982 0z" fill-rule="evenodd"/><path fill="#434343" d="m490.66037 66.96033l4.9657288 0l0 5.133667l-4.9657288 0z" fill-rule="evenodd"/><path fill="#434343" d="m481.0339 66.96033l4.9657288 0l0 5.133667l-4.9657288 0z" fill-rule="evenodd"/><path fill="#434343" d="m499.89322 87.86871l4.9656982 0l0 5.133667l-4.9656982 0z" fill-rule="evenodd"/><path fill="#434343" d="m490.698 87.86871l4.9657288 0l0 5.133667l-4.9657288 0z" fill-rule="evenodd"/><path fill="#434343" d="m481.07153 87.86871l4.9656982 0l0 5.133667l-4.9656982 0z" fill-rule="evenodd"/><path fill="#999999" d="m466.6929 93.039246l8.944885 0l0 20.157478l-8.944885 0z" fill-rule="evenodd"/><path fill="#434343" d="m652.73755 71.55905l84.8819 0l0 16.881897l-84.8819 0z" fill-rule="evenodd"/></g></svg>