<svg version="1.1" viewBox="0.0 0.0 837.1102362204724 131.9501312335958" fill="none" stroke="none" stroke-linecap="square" stroke-miterlimit="10" xmlns:xlink="http://www.w3.org/1999/xlink" xmlns="http://www.w3.org/2000/svg"><clipPath id="p.0"><path d="m0 0l837.1102 0l0 131.95013l-837.1102 0l0 -131.95013z" clip-rule="nonzero"/></clipPath><g clip-path="url(#p.0)"><path fill="#000000" fill-opacity="0.0" d="m0 0l837.1102 0l0 131.95013l-837.1102 0z" fill-rule="evenodd"/><path fill="#bb7554" d="m8.422572 29.410698l217.5433 0l0 73.10236l-217.5433 0z" fill-rule="evenodd"/><path fill="#666666" d="m592.10236 46.4147l170.42523 0l0 39.181103l-170.42523 0z" fill-rule="evenodd"/><path fill="#bb7554" d="m397.68765 29.425198l193.0079 0l0 73.102356l-193.0079 0z" fill-rule="evenodd"/><path fill="#b7b7b7" d="m400.71915 85.5958l16.629944 0l0 45.826775l-16.629944 0z" fill-rule="evenodd"/><path fill="#666666" d="m0.002624672 29.454226l14.015748 0l0 73.10236l-14.015748 0z" fill-rule="evenodd"/><path fill="#666666" d="m210.937 26.288713l244.0945 0l0 79.37008l-244.0945 0z" fill-rule="evenodd"/><path fill="#999999" d="m245.81386 50.700787l182.48817 0l0 30.519688l-182.48817 0z" fill-rule="evenodd"/><path fill="#666666" d="m170.63715 49.893887l43.179886 0l0 32.1852l-43.179886 0z" fill-rule="evenodd"/><path fill="#434343" d="m177.7666 57.953457l14.970383 0l0 16.038052l-14.970383 0z" fill-rule="evenodd"/><path fill="#434343" d="m201.9318 57.967094l14.970383 0l0 16.038048l-14.970383 0z" fill-rule="evenodd"/><path fill="#cccccc" d="m226.09717 57.95281l14.970383 0l0 16.038044l-14.970383 0z" fill-rule="evenodd"/><path fill="#434343" d="m220.80151 26.292667l5.2447357 0l0 79.37196l-5.2447357 0z" fill-rule="evenodd"/><path fill="#999999" d="m605.4934 29.470205l-20.15747 0l0 73.07086l20.15747 0z" fill-rule="evenodd"/><path fill="#666666" d="m432.6483 50.700787l62.17325 0l0 30.519688l-62.17325 0z" fill-rule="evenodd"/><path fill="#434343" d="m814.9238 45.538307l19.559082 0l0 40.850395l-19.559082 0z" fill-rule="evenodd"/><path fill="#434343" d="m762.52625 37.301838l52.37793 0l0 57.35433l-52.37793 0z" fill-rule="evenodd"/><path fill="#666666" d="m768.5771 60.62014l19.559021 0l0 10.708656l-19.559021 0z" fill-rule="evenodd"/><path fill="#666666" d="m788.12964 55.237137l30.897644 0l0 21.480316l-30.897644 0z" fill-rule="evenodd"/><path fill="#000000" d="m788.12964 60.62014l30.897644 0l0 10.708656l-30.897644 0z" fill-rule="evenodd"/><path fill="#999999" d="m442.72116 33.68217l8.037537 0l0 20.613293l-8.037537 0z" fill-rule="evenodd"/><path fill="#434343" d="m481.0942 43.03466l27.433899 0l0 45.903557l-27.433899 0z" fill-rule="evenodd"/><path fill="#999999" d="m450.7645 43.03466l57.757446 0l0 11.257301l-57.757446 0z" fill-rule="evenodd"/><path fill="#999999" d="m450.75882 77.67521l57.757416 0l0 11.257301l-57.757416 0z" fill-rule="evenodd"/><path fill="#999999" d="m499.23917 43.033676l9.303192 0l0 45.903557l-9.303192 0z" fill-rule="evenodd"/><path fill="#999999" d="m492.16617 43.037697l3.4182434 0l0 45.903557l-3.4182434 0z" fill-rule="evenodd"/><path fill="#434343" d="m472.50873 54.295883l4.457794 0l0 4.608574l-4.457794 0z" fill-rule="evenodd"/><path fill="#434343" d="m464.23715 54.295883l4.457794 0l0 4.608574l-4.457794 0z" fill-rule="evenodd"/><path fill="#434343" d="m455.59534 54.295883l4.457794 0l0 4.608574l-4.457794 0z" fill-rule="evenodd"/><path fill="#434343" d="m472.5256 73.06564l4.457794 0l0 4.608574l-4.457794 0z" fill-rule="evenodd"/><path fill="#434343" d="m464.27094 73.06564l4.457794 0l0 4.608574l-4.457794 0z" fill-rule="evenodd"/><path fill="#434343" d="m455.62912 73.06564l4.457794 0l0 4.608574l-4.457794 0z" fill-rule="evenodd"/><path fill="#999999" d="m442.72116 77.67451l8.037537 0l0 20.613289l-8.037537 0z" fill-rule="evenodd"/></g></svg>