<svg version="1.1" viewBox="0.0 0.0 960.0 720.0" fill="none" stroke="none" stroke-linecap="square" stroke-miterlimit="10" xmlns:xlink="http://www.w3.org/1999/xlink" xmlns="http://www.w3.org/2000/svg"><clipPath id="p.0"><path d="m0 0l960.0 0l0 720.0l-960.0 0l0 -720.0z" clip-rule="nonzero"/></clipPath><g clip-path="url(#p.0)"><path fill="#000000" fill-opacity="0.0" d="m0 0l960.0 0l0 720.0l-960.0 0z" fill-rule="evenodd"/><path fill="#000000" fill-opacity="0.0" d="m414.1496 398.57718l118.36218 241.63779" fill-rule="evenodd"/><path stroke="#ffffff" stroke-width="16.0" stroke-linejoin="round" stroke-linecap="butt" d="m414.1496 398.57718l118.36218 241.63779" fill-rule="evenodd"/><path fill="#000000" fill-opacity="0.0" d="m533.64606 79.98521l-119.49609 241.41733" fill-rule="evenodd"/><path stroke="#ffffff" stroke-width="16.0" stroke-linejoin="round" stroke-linecap="butt" d="m533.64606 79.98521l-119.49609 241.41733" fill-rule="evenodd"/><path fill="#bb7554" d="m262.83203 333.96823l399.87402 0l0 52.06299l-399.87402 0z" fill-rule="evenodd"/><path fill="#bb7554" d="m56.501312 327.02493l206.33072 0l0 65.95276l-206.33072 0z" fill-rule="evenodd"/><path fill="#666666" d="m358.5958 340.71127l177.5433 0l0 38.582703l-177.5433 0z" fill-rule="evenodd"/><path fill="#666666" d="m398.10498 321.41733l32.06299 0l0 14.708649l-32.06299 0z" fill-rule="evenodd"/><path fill="#666666" d="m399.71915 329.47244l258.51968 0l0 6.6456604l-258.51968 0z" fill-rule="evenodd"/><path fill="#666666" d="m442.97638 321.41733l14.393707 0l0 14.708649l-14.393707 0z" fill-rule="evenodd"/><path fill="#666666" d="m470.17847 321.41733l14.393707 0l0 14.708649l-14.393707 0z" fill-rule="evenodd"/><path fill="#666666" d="m497.38058 321.41733l14.393707 0l0 14.708649l-14.393707 0z" fill-rule="evenodd"/><path fill="#666666" d="m524.5827 321.41733l14.393677 0l0 14.708649l-14.393677 0z" fill-rule="evenodd"/><path fill="#666666" d="m551.7848 321.41733l14.393677 0l0 14.708649l-14.393677 0z" fill-rule="evenodd"/><path fill="#666666" d="m578.9869 321.41733l14.393677 0l0 14.708649l-14.393677 0z" fill-rule="evenodd"/><path fill="#666666" d="m606.18896 321.41733l14.393738 0l0 14.708649l-14.393738 0z" fill-rule="evenodd"/><path fill="#666666" d="m633.39105 321.41733l24.850403 0l0 14.708649l-24.850403 0z" fill-rule="evenodd"/><path fill="#666666" d="m398.10498 398.58905l32.06299 0l0 -14.708649l-32.06299 0z" fill-rule="evenodd"/><path fill="#666666" d="m399.71915 390.53394l258.51968 0l0 -6.6456604l-258.51968 0z" fill-rule="evenodd"/><path fill="#666666" d="m442.97638 398.58905l14.393707 0l0 -14.708649l-14.393707 0z" fill-rule="evenodd"/><path fill="#666666" d="m470.17847 398.58905l14.393707 0l0 -14.708649l-14.393707 0z" fill-rule="evenodd"/><path fill="#666666" d="m497.38058 398.58905l14.393707 0l0 -14.708649l-14.393707 0z" fill-rule="evenodd"/><path fill="#666666" d="m524.5827 398.58905l14.393677 0l0 -14.708649l-14.393677 0z" fill-rule="evenodd"/><path fill="#666666" d="m551.7848 398.58905l14.393677 0l0 -14.708649l-14.393677 0z" fill-rule="evenodd"/><path fill="#666666" d="m578.9869 398.58905l14.393677 0l0 -14.708649l-14.393677 0z" fill-rule="evenodd"/><path fill="#666666" d="m606.18896 398.58905l14.393738 0l0 -14.708649l-14.393738 0z" fill-rule="evenodd"/><path fill="#666666" d="m633.39105 398.58905l24.850403 0l0 -14.708649l-24.850403 0z" fill-rule="evenodd"/><path fill="#999999" d="m361.96588 342.88715l23.653534 0l0 13.606293l-23.653534 0z" fill-rule="evenodd"/><path fill="#b7b7b7" d="m364.56168 347.59055l21.070862 0l0 8.913391l-21.070862 0z" fill-rule="evenodd"/><path fill="#999999" d="m392.4908 342.88715l7.496063 0l0 13.606293l-7.496063 0z" fill-rule="evenodd"/><path fill="#b7b7b7" d="m392.4908 347.59055l7.496063 0l0 8.913391l-7.496063 0z" fill-rule="evenodd"/><path fill="#999999" d="m406.84515 342.8819l7.496063 0l0 13.606293l-7.496063 0z" fill-rule="evenodd"/><path fill="#b7b7b7" d="m406.84515 347.5853l7.496063 0l0 8.913391l-7.496063 0z" fill-rule="evenodd"/><path fill="#999999" d="m421.19946 342.88452l7.496063 0l0 13.606293l-7.496063 0z" fill-rule="evenodd"/><path fill="#b7b7b7" d="m421.19946 347.58792l7.496063 0l0 8.913391l-7.496063 0z" fill-rule="evenodd"/><path fill="#999999" d="m435.5538 342.87927l7.496063 0l0 13.606293l-7.496063 0z" fill-rule="evenodd"/><path fill="#b7b7b7" d="m435.5538 347.58267l7.496063 0l0 8.913391l-7.496063 0z" fill-rule="evenodd"/><path fill="#999999" d="m449.90814 342.88715l7.496063 0l0 13.606293l-7.496063 0z" fill-rule="evenodd"/><path fill="#b7b7b7" d="m449.90814 347.59055l7.496063 0l0 8.913391l-7.496063 0z" fill-rule="evenodd"/><path fill="#999999" d="m464.26248 342.8819l7.496063 0l0 13.606293l-7.496063 0z" fill-rule="evenodd"/><path fill="#b7b7b7" d="m464.26248 347.5853l7.496063 0l0 8.913391l-7.496063 0z" fill-rule="evenodd"/><path fill="#999999" d="m478.6168 342.88715l7.496063 0l0 13.606293l-7.496063 0z" fill-rule="evenodd"/><path fill="#b7b7b7" d="m478.6168 347.59055l7.496063 0l0 8.913391l-7.496063 0z" fill-rule="evenodd"/><path fill="#999999" d="m492.97113 342.8819l7.496063 0l0 13.606293l-7.496063 0z" fill-rule="evenodd"/><path fill="#b7b7b7" d="m492.97113 347.5853l7.496063 0l0 8.913391l-7.496063 0z" fill-rule="evenodd"/><path fill="#999999" d="m507.32547 342.88452l7.496063 0l0 13.606293l-7.496063 0z" fill-rule="evenodd"/><path fill="#b7b7b7" d="m507.32547 347.58792l7.496063 0l0 8.913391l-7.496063 0z" fill-rule="evenodd"/><path fill="#999999" d="m521.6798 342.87927l7.4960327 0l0 13.606293l-7.4960327 0z" fill-rule="evenodd"/><path fill="#b7b7b7" d="m521.6798 347.58267l7.4960327 0l0 8.913391l-7.4960327 0z" fill-rule="evenodd"/><path fill="#999999" d="m361.96588 376.8747l23.653534 0l0 -13.606293l-23.653534 0z" fill-rule="evenodd"/><path fill="#b7b7b7" d="m364.56168 372.1713l21.070862 0l0 -8.913391l-21.070862 0z" fill-rule="evenodd"/><path fill="#999999" d="m392.4908 376.8747l7.496063 0l0 -13.606293l-7.496063 0z" fill-rule="evenodd"/><path fill="#b7b7b7" d="m392.4908 372.1713l7.496063 0l0 -8.913391l-7.496063 0z" fill-rule="evenodd"/><path fill="#999999" d="m406.84515 376.87994l7.496063 0l0 -13.606293l-7.496063 0z" fill-rule="evenodd"/><path fill="#b7b7b7" d="m406.84515 372.17654l7.496063 0l0 -8.913391l-7.496063 0z" fill-rule="evenodd"/><path fill="#999999" d="m421.19946 376.87732l7.496063 0l0 -13.606293l-7.496063 0z" fill-rule="evenodd"/><path fill="#b7b7b7" d="m421.19946 372.17392l7.496063 0l0 -8.913391l-7.496063 0z" fill-rule="evenodd"/><path fill="#999999" d="m435.5538 376.88257l7.496063 0l0 -13.606293l-7.496063 0z" fill-rule="evenodd"/><path fill="#b7b7b7" d="m435.5538 372.17917l7.496063 0l0 -8.913391l-7.496063 0z" fill-rule="evenodd"/><path fill="#999999" d="m449.90814 376.8747l7.496063 0l0 -13.606293l-7.496063 0z" fill-rule="evenodd"/><path fill="#b7b7b7" d="m449.90814 372.1713l7.496063 0l0 -8.913391l-7.496063 0z" fill-rule="evenodd"/><path fill="#999999" d="m464.26248 376.87994l7.496063 0l0 -13.606293l-7.496063 0z" fill-rule="evenodd"/><path fill="#b7b7b7" d="m464.26248 372.17654l7.496063 0l0 -8.913391l-7.496063 0z" fill-rule="evenodd"/><path fill="#999999" d="m478.6168 376.8747l7.496063 0l0 -13.606293l-7.496063 0z" fill-rule="evenodd"/><path fill="#b7b7b7" d="m478.6168 372.1713l7.496063 0l0 -8.913391l-7.496063 0z" fill-rule="evenodd"/><path fill="#999999" d="m492.97113 376.87994l7.496063 0l0 -13.606293l-7.496063 0z" fill-rule="evenodd"/><path fill="#b7b7b7" d="m492.97113 372.17654l7.496063 0l0 -8.913391l-7.496063 0z" fill-rule="evenodd"/><path fill="#999999" d="m507.32547 376.87732l7.496063 0l0 -13.606293l-7.496063 0z" fill-rule="evenodd"/><path fill="#b7b7b7" d="m507.32547 372.17392l7.496063 0l0 -8.913391l-7.496063 0z" fill-rule="evenodd"/><path fill="#999999" d="m521.6798 376.88257l7.4960327 0l0 -13.606293l-7.4960327 0z" fill-rule="evenodd"/><path fill="#b7b7b7" d="m521.6798 372.17917l7.4960327 0l0 -8.913391l-7.4960327 0z" fill-rule="evenodd"/><path fill="#666666" d="m662.70605 328.66403l24.283447 0l0 62.677185l-24.283447 0z" fill-rule="evenodd"/><path fill="#666666" d="m731.397 512.12604l0 0c-70.00427 -89.543365 -69.86279 -215.30112 0.3427124 -304.68677z" fill-rule="evenodd"/><path fill="#666666" d="m730.30365 192.60245l0 0c62.08191 102.34262 62.427063 230.64041 0.89678955 333.31564z" fill-rule="evenodd"/><path fill="#666666" d="m536.2154 65.780365c142.52576 25.777252 246.08246 149.9933 245.78925 294.82364c-0.2932129 144.83035 -104.35205 268.6261 -246.98102 293.8261l-5.0236816 -28.430237l0 0c128.8576 -22.766602 222.86914 -134.60867 223.1341 -265.4543c0.26489258 -130.84563 -93.29303 -243.06744 -222.05737 -266.35553z" fill-rule="evenodd"/></g></svg>