<svg version="1.1" viewBox="0.0 0.0 734.0 726.0" fill="none" stroke="none" stroke-linecap="square" stroke-miterlimit="10" xmlns:xlink="http://www.w3.org/1999/xlink" xmlns="http://www.w3.org/2000/svg"><clipPath id="p.0"><path d="m0 0l734.0 0l0 726.0l-734.0 0l0 -726.0z" clip-rule="nonzero"/></clipPath><g clip-path="url(#p.0)"><path fill="#000000" fill-opacity="0.0" d="m0 0l734.0 0l0 726.0l-734.0 0z" fill-rule="evenodd"/><path fill="#000000" fill-opacity="0.0" d="m357.6483 401.57455l118.36218 241.63779" fill-rule="evenodd"/><path stroke="#ffffff" stroke-width="16.0" stroke-linejoin="round" stroke-linecap="butt" d="m357.6483 401.57455l118.36218 241.63779" fill-rule="evenodd"/><path fill="#000000" fill-opacity="0.0" d="m477.1447 82.98258l-119.49606 241.41733" fill-rule="evenodd"/><path stroke="#ffffff" stroke-width="16.0" stroke-linejoin="round" stroke-linecap="butt" d="m477.1447 82.98258l-119.49606 241.41733" fill-rule="evenodd"/><path fill="#bb7554" d="m206.3307 336.9656l399.87402 0l0 52.06299l-399.87402 0z" fill-rule="evenodd"/><path fill="#bb7554" d="m0 330.0223l206.3307 0l0 65.95276l-206.3307 0z" fill-rule="evenodd"/><path fill="#666666" d="m302.09448 343.70865l177.5433 0l0 38.582703l-177.5433 0z" fill-rule="evenodd"/><path fill="#666666" d="m341.60367 324.4147l32.06299 0l0 14.708649l-32.06299 0z" fill-rule="evenodd"/><path fill="#666666" d="m343.21783 332.46982l258.5197 0l0 6.6456604l-258.5197 0z" fill-rule="evenodd"/><path fill="#666666" d="m386.47507 324.4147l14.393707 0l0 14.708649l-14.393707 0z" fill-rule="evenodd"/><path fill="#666666" d="m413.67715 324.4147l14.393707 0l0 14.708649l-14.393707 0z" fill-rule="evenodd"/><path fill="#666666" d="m440.87927 324.4147l14.393707 0l0 14.708649l-14.393707 0z" fill-rule="evenodd"/><path fill="#666666" d="m468.08136 324.4147l14.393707 0l0 14.708649l-14.393707 0z" fill-rule="evenodd"/><path fill="#666666" d="m495.28348 324.4147l14.393677 0l0 14.708649l-14.393677 0z" fill-rule="evenodd"/><path fill="#666666" d="m522.48553 324.4147l14.393738 0l0 14.708649l-14.393738 0z" fill-rule="evenodd"/><path fill="#666666" d="m549.6877 324.4147l14.393677 0l0 14.708649l-14.393677 0z" fill-rule="evenodd"/><path fill="#666666" d="m576.8898 324.4147l24.850403 0l0 14.708649l-24.850403 0z" fill-rule="evenodd"/><path fill="#666666" d="m341.60367 401.58643l32.06299 0l0 -14.708649l-32.06299 0z" fill-rule="evenodd"/><path fill="#666666" d="m343.21783 393.5313l258.5197 0l0 -6.6456604l-258.5197 0z" fill-rule="evenodd"/><path fill="#666666" d="m386.47507 401.58643l14.393707 0l0 -14.708649l-14.393707 0z" fill-rule="evenodd"/><path fill="#666666" d="m413.67715 401.58643l14.393707 0l0 -14.708649l-14.393707 0z" fill-rule="evenodd"/><path fill="#666666" d="m440.87927 401.58643l14.393707 0l0 -14.708649l-14.393707 0z" fill-rule="evenodd"/><path fill="#666666" d="m468.08136 401.58643l14.393707 0l0 -14.708649l-14.393707 0z" fill-rule="evenodd"/><path fill="#666666" d="m495.28348 401.58643l14.393677 0l0 -14.708649l-14.393677 0z" fill-rule="evenodd"/><path fill="#666666" d="m522.48553 401.58643l14.393738 0l0 -14.708649l-14.393738 0z" fill-rule="evenodd"/><path fill="#666666" d="m549.6877 401.58643l14.393677 0l0 -14.708649l-14.393677 0z" fill-rule="evenodd"/><path fill="#666666" d="m576.8898 401.58643l24.850403 0l0 -14.708649l-24.850403 0z" fill-rule="evenodd"/><path fill="#999999" d="m305.46457 345.88452l23.653534 0l0 13.606293l-23.653534 0z" fill-rule="evenodd"/><path fill="#b7b7b7" d="m308.06036 350.58792l21.070862 0l0 8.913391l-21.070862 0z" fill-rule="evenodd"/><path fill="#999999" d="m335.9895 345.88452l7.496063 0l0 13.606293l-7.496063 0z" fill-rule="evenodd"/><path fill="#b7b7b7" d="m335.9895 350.58792l7.496063 0l0 8.913391l-7.496063 0z" fill-rule="evenodd"/><path fill="#999999" d="m350.34384 345.87927l7.496063 0l0 13.606293l-7.496063 0z" fill-rule="evenodd"/><path fill="#b7b7b7" d="m350.34384 350.58267l7.496063 0l0 8.913391l-7.496063 0z" fill-rule="evenodd"/><path fill="#999999" d="m364.69815 345.8819l7.496063 0l0 13.606293l-7.496063 0z" fill-rule="evenodd"/><path fill="#b7b7b7" d="m364.69815 350.5853l7.496063 0l0 8.913391l-7.496063 0z" fill-rule="evenodd"/><path fill="#999999" d="m379.0525 345.87665l7.496063 0l0 13.606293l-7.496063 0z" fill-rule="evenodd"/><path fill="#b7b7b7" d="m379.0525 350.58005l7.496063 0l0 8.913391l-7.496063 0z" fill-rule="evenodd"/><path fill="#999999" d="m393.40683 345.88452l7.496063 0l0 13.606293l-7.496063 0z" fill-rule="evenodd"/><path fill="#b7b7b7" d="m393.40683 350.58792l7.496063 0l0 8.913391l-7.496063 0z" fill-rule="evenodd"/><path fill="#999999" d="m407.76117 345.87927l7.496063 0l0 13.606293l-7.496063 0z" fill-rule="evenodd"/><path fill="#b7b7b7" d="m407.76117 350.58267l7.496063 0l0 8.913391l-7.496063 0z" fill-rule="evenodd"/><path fill="#999999" d="m422.11548 345.88452l7.496063 0l0 13.606293l-7.496063 0z" fill-rule="evenodd"/><path fill="#b7b7b7" d="m422.11548 350.58792l7.496063 0l0 8.913391l-7.496063 0z" fill-rule="evenodd"/><path fill="#999999" d="m436.46982 345.87927l7.496063 0l0 13.606293l-7.496063 0z" fill-rule="evenodd"/><path fill="#b7b7b7" d="m436.46982 350.58267l7.496063 0l0 8.913391l-7.496063 0z" fill-rule="evenodd"/><path fill="#999999" d="m450.82416 345.8819l7.496063 0l0 13.606293l-7.496063 0z" fill-rule="evenodd"/><path fill="#b7b7b7" d="m450.82416 350.5853l7.496063 0l0 8.913391l-7.496063 0z" fill-rule="evenodd"/><path fill="#999999" d="m465.17847 345.87665l7.496063 0l0 13.606293l-7.496063 0z" fill-rule="evenodd"/><path fill="#b7b7b7" d="m465.17847 350.58005l7.496063 0l0 8.913391l-7.496063 0z" fill-rule="evenodd"/><path fill="#999999" d="m305.46457 379.87207l23.653534 0l0 -13.606293l-23.653534 0z" fill-rule="evenodd"/><path fill="#b7b7b7" d="m308.06036 375.16867l21.070862 0l0 -8.913391l-21.070862 0z" fill-rule="evenodd"/><path fill="#999999" d="m335.9895 379.87207l7.496063 0l0 -13.606293l-7.496063 0z" fill-rule="evenodd"/><path fill="#b7b7b7" d="m335.9895 375.16867l7.496063 0l0 -8.913391l-7.496063 0z" fill-rule="evenodd"/><path fill="#999999" d="m350.34384 379.87732l7.496063 0l0 -13.606293l-7.496063 0z" fill-rule="evenodd"/><path fill="#b7b7b7" d="m350.34384 375.17392l7.496063 0l0 -8.913391l-7.496063 0z" fill-rule="evenodd"/><path fill="#999999" d="m364.69815 379.8747l7.496063 0l0 -13.606293l-7.496063 0z" fill-rule="evenodd"/><path fill="#b7b7b7" d="m364.69815 375.1713l7.496063 0l0 -8.913391l-7.496063 0z" fill-rule="evenodd"/><path fill="#999999" d="m379.0525 379.87994l7.496063 0l0 -13.606293l-7.496063 0z" fill-rule="evenodd"/><path fill="#b7b7b7" d="m379.0525 375.17654l7.496063 0l0 -8.913391l-7.496063 0z" fill-rule="evenodd"/><path fill="#999999" d="m393.40683 379.87207l7.496063 0l0 -13.606293l-7.496063 0z" fill-rule="evenodd"/><path fill="#b7b7b7" d="m393.40683 375.16867l7.496063 0l0 -8.913391l-7.496063 0z" fill-rule="evenodd"/><path fill="#999999" d="m407.76117 379.87732l7.496063 0l0 -13.606293l-7.496063 0z" fill-rule="evenodd"/><path fill="#b7b7b7" d="m407.76117 375.17392l7.496063 0l0 -8.913391l-7.496063 0z" fill-rule="evenodd"/><path fill="#999999" d="m422.11548 379.87207l7.496063 0l0 -13.606293l-7.496063 0z" fill-rule="evenodd"/><path fill="#b7b7b7" d="m422.11548 375.16867l7.496063 0l0 -8.913391l-7.496063 0z" fill-rule="evenodd"/><path fill="#999999" d="m436.46982 379.87732l7.496063 0l0 -13.606293l-7.496063 0z" fill-rule="evenodd"/><path fill="#b7b7b7" d="m436.46982 375.17392l7.496063 0l0 -8.913391l-7.496063 0z" fill-rule="evenodd"/><path fill="#999999" d="m450.82416 379.8747l7.496063 0l0 -13.606293l-7.496063 0z" fill-rule="evenodd"/><path fill="#b7b7b7" d="m450.82416 375.1713l7.496063 0l0 -8.913391l-7.496063 0z" fill-rule="evenodd"/><path fill="#999999" d="m465.17847 379.87994l7.496063 0l0 -13.606293l-7.496063 0z" fill-rule="evenodd"/><path fill="#b7b7b7" d="m465.17847 375.17654l7.496063 0l0 -8.913391l-7.496063 0z" fill-rule="evenodd"/><path fill="#666666" d="m606.2047 331.6614l24.283447 0l0 62.677185l-24.283447 0z" fill-rule="evenodd"/><path fill="#666666" d="m674.8957 515.1234l0 0c-70.00427 -89.543365 -69.862854 -215.30112 0.3427124 -304.68677z" fill-rule="evenodd"/><path fill="#666666" d="m673.80237 195.59982l0 0c62.08191 102.34262 62.427063 230.64041 0.8967285 333.31564z" fill-rule="evenodd"/><path fill="#666666" d="m479.71408 68.77774c142.52573 25.777252 246.08249 149.9933 245.78922 294.82364c-0.2932129 144.83035 -104.35205 268.6261 -246.98099 293.8261l-5.023651 -28.430237l0 0c128.85754 -22.766602 222.86914 -134.60867 223.13403 -265.4543c0.26489258 -130.84563 -93.29303 -243.06744 -222.05734 -266.35553z" fill-rule="evenodd"/></g></svg>