<svg version="1.1" viewBox="0.0 0.0 367.7191601049869 164.20997375328085" fill="none" stroke="none" stroke-linecap="square" stroke-miterlimit="10" xmlns:xlink="http://www.w3.org/1999/xlink" xmlns="http://www.w3.org/2000/svg"><clipPath id="p.0"><path d="m0 0l367.71915 0l0 164.20998l-367.71915 0l0 -164.20998z" clip-rule="nonzero"/></clipPath><g clip-path="url(#p.0)"><path fill="#000000" fill-opacity="0.0" d="m0 0l367.71915 0l0 164.20998l-367.71915 0z" fill-rule="evenodd"/><path fill="#666666" d="m0.15879264 48.083973l367.40158 0l0 68.031494l-367.40158 0z" fill-rule="evenodd"/><path fill="#666666" d="m13.989464 63.43117l338.3937 0l0 37.35433l-338.3937 0z" fill-rule="evenodd"/><path fill="#434343" d="m302.7546 75.46982l20.566925 0l0 13.259842l-20.566925 0z" fill-rule="evenodd"/><path fill="#434343" d="m18.557743 89.63525l20.566929 0l0 11.149605l-20.566929 0z" fill-rule="evenodd"/><path fill="#434343" d="m18.557743 63.43052l20.566929 0l0 11.149605l-20.566929 0z" fill-rule="evenodd"/><path fill="#434343" d="m138.27953 60.25197l52.44095 0l0 55.874016l-52.44095 0z" fill-rule="evenodd"/></g></svg>