<svg version="1.1" viewBox="0.0 0.0 428.93175853018374 170.29133858267716" fill="none" stroke="none" stroke-linecap="square" stroke-miterlimit="10" xmlns:xlink="http://www.w3.org/1999/xlink" xmlns="http://www.w3.org/2000/svg"><clipPath id="p.0"><path d="m0 0l428.93176 0l0 170.29134l-428.93176 0l0 -170.29134z" clip-rule="nonzero"/></clipPath><g clip-path="url(#p.0)"><path fill="#000000" fill-opacity="0.0" d="m0 0l428.93176 0l0 170.29134l-428.93176 0z" fill-rule="evenodd"/><path fill="#666666" d="m-0.242563 44.374016l429.41733 0l0 81.543304l-429.41733 0z" fill-rule="evenodd"/><path fill="#666666" d="m13.586576 62.768147l338.3937 0l0 44.787403l-338.3937 0z" fill-rule="evenodd"/><path fill="#434343" d="m376.73752 77.19264l20.566956 0l0 15.90551l-20.566956 0z" fill-rule="evenodd"/><path fill="#434343" d="m18.154856 94.176834l20.56693 0l0 13.354332l-20.56693 0z" fill-rule="evenodd"/><path fill="#434343" d="m18.154856 62.767365l20.56693 0l0 13.354332l-20.56693 0z" fill-rule="evenodd"/><path fill="#434343" d="m137.87665 58.957493l52.440933 0l0 66.96063l-52.440933 0z" fill-rule="evenodd"/></g></svg>