<svg version="1.1" viewBox="0.0 0.0 780.0 154.0" fill="none" stroke="none" stroke-linecap="square" stroke-miterlimit="10" xmlns:xlink="http://www.w3.org/1999/xlink" xmlns="http://www.w3.org/2000/svg"><clipPath id="p.0"><path d="m0 0l780.0 0l0 154.0l-780.0 0l0 -154.0z" clip-rule="nonzero"/></clipPath><g clip-path="url(#p.0)"><path fill="#000000" fill-opacity="0.0" d="m0 0l780.0 0l0 154.0l-780.0 0z" fill-rule="evenodd"/><defs><linearGradient id="p.1" gradientUnits="userSpaceOnUse" gradientTransform="matrix(16.917586246549735 0.0 0.0 16.917586246549735 0.0 0.0)" spreadMethod="pad" x1="26.134027956037745" y1="5.89791901194301" x2="43.05161420258748" y2="5.89791901194301"><stop offset="0.0" stop-color="#ff0000"/><stop offset="0.24" stop-color="#ff0000"/><stop offset="0.68" stop-color="#ad0800"/><stop offset="0.89" stop-color="#840c00"/><stop offset="1.0" stop-color="#5b0f00"/></linearGradient></defs><path fill="url(#p.1)" d="m442.12466 55.55808l286.20474 0l0 44.220478l-286.20474 0z" fill-rule="evenodd"/><path fill="#cc0000" d="m184.1205 100.73407l204.28346 0l0 17.858269l-204.28346 0z" fill-rule="evenodd"/><path fill="#cc0000" d="m184.1205 35.408592l204.28346 0l0 17.858269l-204.28346 0z" fill-rule="evenodd"/><path fill="#434343" d="m35.045933 41.952755l409.70078 0l0 69.95276l-409.70078 0z" fill-rule="evenodd"/><path fill="#666666" d="m127.1273 41.952755l98.99212 0l0 69.95276l-98.99212 0z" fill-rule="evenodd"/><path fill="#2a2a2a" d="m4.8727036 41.952755l30.17323 0l0 69.95276l-30.17323 0z" fill-rule="evenodd"/><path fill="#666666" d="m264.52515 60.692913l135.24411 0l0 33.952755l-135.24411 0z" fill-rule="evenodd"/><path fill="#666666" d="m325.84973 57.811024l73.921265 0l0 39.716534l-73.921265 0z" fill-rule="evenodd"/><path fill="#2a2a2a" d="m317.24673 57.811024l8.629913 0l0 39.716534l-8.629913 0z" fill-rule="evenodd"/><path fill="#2a2a2a" d="m393.89407 57.811024l8.629913 0l0 39.716534l-8.629913 0z" fill-rule="evenodd"/><path fill="#2a2a2a" d="m258.66315 60.692913l5.8582764 0l0 33.952755l-5.8582764 0z" fill-rule="evenodd"/><path fill="#434343" d="m440.5105 64.07874l318.70868 0l0 27.181099l-318.70868 0z" fill-rule="evenodd"/><path fill="#434343" d="m516.9094 46.01569l35.93701 0l0 61.82677l-35.93701 0z" fill-rule="evenodd"/><path fill="#434343" d="m628.9094 46.01569l35.93701 0l0 61.82677l-35.93701 0z" fill-rule="evenodd"/><path fill="#434343" d="m775.1273 46.503925l0 62.330708l-53.606323 0l0 -62.330708z" fill-rule="evenodd"/></g></svg>