<svg version="1.1" viewBox="0.0 0.0 736.0 249.0" fill="none" stroke="none" stroke-linecap="square" stroke-miterlimit="10" xmlns:xlink="http://www.w3.org/1999/xlink" xmlns="http://www.w3.org/2000/svg"><clipPath id="p.0"><path d="m0 0l736.0 0l0 249.0l-736.0 0l0 -249.0z" clip-rule="nonzero"/></clipPath><g clip-path="url(#p.0)"><path fill="#000000" fill-opacity="0.0" d="m0 0l736.0 0l0 249.0l-736.0 0z" fill-rule="evenodd"/><path fill="#bb7554" d="m453.39896 107.90699l0 0c0 -4.57782 3.7110596 -8.288879 8.288879 -8.288879l118.60336 0c2.1983032 0 4.3066406 0.873291 5.861084 2.4277573c1.5545044 1.5544662 2.4277954 3.6627731 2.4277954 5.861122l0 33.15452c0 4.577835 -3.7110596 8.288879 -8.288879 8.288879l-118.60336 0c-4.57782 0 -8.288879 -3.7110443 -8.288879 -8.288879z" fill-rule="evenodd"/><path fill="#434343" d="m453.39896 111.54199l233.88974 0l0 25.88977l-233.88974 0z" fill-rule="evenodd"/><path fill="#666666" d="m369.2152 37.146713l37.07086 0l0 174.67717l-37.07086 0z" fill-rule="evenodd"/><path fill="#666666" d="m406.9473 35.602364l25.35434 0l0 177.79529l-25.35434 0z" fill-rule="evenodd"/><path fill="#000000" d="m401.02652 35.602364l9.291351 0l0 177.79529l-9.291351 0z" fill-rule="evenodd"/><path fill="#bb7554" d="m193.28445 104.653625l-78.152466 0l-25.933037 -9.169357l-89.36693 0l0 58.350952l90.76902 0l23.479942 -8.33432l79.5523 0z" fill-rule="evenodd"/><path fill="#434343" d="m145.7769 97.99606l307.62207 0l0 52.97638l-307.62207 0z" fill-rule="evenodd"/><path fill="#999999" d="m154.67981 105.744095l59.46457 0l0 9.669289l-59.46457 0z" fill-rule="evenodd"/><path fill="#999999" d="m265.3281 119.82525l75.1181 0l0 9.669289l-75.1181 0z" fill-rule="evenodd"/><path fill="#999999" d="m154.67969 121.93348l32.7874 0l0 5.102356l-32.7874 0z" fill-rule="evenodd"/><path fill="#999999" d="m154.67981 133.5554l59.46457 0l0 9.669296l-59.46457 0z" fill-rule="evenodd"/><path fill="#999999" d="m369.2152 140.54724l63.08664 0l0 10.425201l-63.08664 0z" fill-rule="evenodd"/><path stroke="#000000" stroke-width="4.0" stroke-linejoin="round" stroke-linecap="butt" d="m369.2152 140.54724l63.08664 0l0 10.425201l-63.08664 0z" fill-rule="evenodd"/><path fill="#999999" d="m369.2152 97.99606l63.08664 0l0 10.425194l-63.08664 0z" fill-rule="evenodd"/><path stroke="#000000" stroke-width="4.0" stroke-linejoin="round" stroke-linecap="butt" d="m369.2152 97.99606l63.08664 0l0 10.425194l-63.08664 0z" fill-rule="evenodd"/><path fill="#434343" d="m700.1275 108.25615l36.040344 0l0 32.54106l-36.040344 0z" fill-rule="evenodd"/><path fill="#999999" d="m683.23206 105.86639l15.520691 0l0 37.587654l-15.520691 0z" fill-rule="evenodd"/><path stroke="#434343" stroke-width="4.0" stroke-linejoin="round" stroke-linecap="butt" d="m683.23206 105.86639l15.520691 0l0 37.587654l-15.520691 0z" fill-rule="evenodd"/><path fill="#999999" d="m705.78406 116.28025l7.9031982 0l0 16.758522l-7.9031982 0z" fill-rule="evenodd"/><path fill="#999999" d="m720.71857 116.14734l7.903137 0l0 16.75853l-7.903137 0z" fill-rule="evenodd"/><path fill="#434343" d="m687.04083 117.70655l7.903137 0l0 13.640114l-7.903137 0z" fill-rule="evenodd"/><path fill="#999999" d="m460.06693 108.598465l0 0c0 -1.0437088 0.84609985 -1.889801 1.889801 -1.889801l7.5589905 0l0 0c0.5011902 0 0.98187256 0.19910431 1.3362732 0.55350494c0.35443115 0.35440826 0.55352783 0.83509064 0.55352783 1.3362961l0 31.77945c0 1.0437164 -0.84609985 1.889801 -1.889801 1.889801l-7.5589905 0c-1.0437012 0 -1.889801 -0.8460846 -1.889801 -1.889801z" fill-rule="evenodd"/><path stroke="#434343" stroke-width="4.0" stroke-linejoin="round" stroke-linecap="butt" d="m460.06693 108.598465l0 0c0 -1.0437088 0.84609985 -1.889801 1.889801 -1.889801l7.5589905 0l0 0c0.5011902 0 0.98187256 0.19910431 1.3362732 0.55350494c0.35443115 0.35440826 0.55352783 0.83509064 0.55352783 1.3362961l0 31.77945c0 1.0437164 -0.84609985 1.889801 -1.889801 1.889801l-7.5589905 0c-1.0437012 0 -1.889801 -0.8460846 -1.889801 -1.889801z" fill-rule="evenodd"/><path fill="#999999" d="m478.4728 108.598465l0 0c0 -1.0437088 0.84609985 -1.889801 1.889801 -1.889801l7.5589905 0l0 0c0.5011902 0 0.98187256 0.19910431 1.3362732 0.55350494c0.35440063 0.35440826 0.55352783 0.83509064 0.55352783 1.3362961l0 31.77945c0 1.0437164 -0.84609985 1.889801 -1.889801 1.889801l-7.5589905 0c-1.0437012 0 -1.889801 -0.8460846 -1.889801 -1.889801z" fill-rule="evenodd"/><path stroke="#434343" stroke-width="4.0" stroke-linejoin="round" stroke-linecap="butt" d="m478.4728 108.598465l0 0c0 -1.0437088 0.84609985 -1.889801 1.889801 -1.889801l7.5589905 0l0 0c0.5011902 0 0.98187256 0.19910431 1.3362732 0.55350494c0.35440063 0.35440826 0.55352783 0.83509064 0.55352783 1.3362961l0 31.77945c0 1.0437164 -0.84609985 1.889801 -1.889801 1.889801l-7.5589905 0c-1.0437012 0 -1.889801 -0.8460846 -1.889801 -1.889801z" fill-rule="evenodd"/><path fill="#999999" d="m496.87866 108.598465l0 0c0 -1.0437088 0.84609985 -1.889801 1.889801 -1.889801l7.5589905 0l0 0c0.5012207 0 0.9819031 0.19910431 1.3363037 0.55350494c0.35440063 0.35440826 0.5534973 0.83509064 0.5534973 1.3362961l0 31.77945c0 1.0437164 -0.84609985 1.889801 -1.889801 1.889801l-7.5589905 0c-1.0437012 0 -1.889801 -0.8460846 -1.889801 -1.889801z" fill-rule="evenodd"/><path stroke="#434343" stroke-width="4.0" stroke-linejoin="round" stroke-linecap="butt" d="m496.87866 108.598465l0 0c0 -1.0437088 0.84609985 -1.889801 1.889801 -1.889801l7.5589905 0l0 0c0.5012207 0 0.9819031 0.19910431 1.3363037 0.55350494c0.35440063 0.35440826 0.5534973 0.83509064 0.5534973 1.3362961l0 31.77945c0 1.0437164 -0.84609985 1.889801 -1.889801 1.889801l-7.5589905 0c-1.0437012 0 -1.889801 -0.8460846 -1.889801 -1.889801z" fill-rule="evenodd"/><path fill="#999999" d="m515.28455 108.598465l0 0c0 -1.0437088 0.84606934 -1.889801 1.8898315 -1.889801l7.55896 0l0 0c0.5012207 0 0.98187256 0.19910431 1.3363037 0.55350494c0.35437012 0.35440826 0.5534668 0.83509064 0.5534668 1.3362961l0 31.77945c0 1.0437164 -0.84606934 1.889801 -1.8897705 1.889801l-7.55896 0c-1.0437622 0 -1.8898315 -0.8460846 -1.8898315 -1.889801z" fill-rule="evenodd"/><path stroke="#434343" stroke-width="4.0" stroke-linejoin="round" stroke-linecap="butt" d="m515.28455 108.598465l0 0c0 -1.0437088 0.84606934 -1.889801 1.8898315 -1.889801l7.55896 0l0 0c0.5012207 0 0.98187256 0.19910431 1.3363037 0.55350494c0.35437012 0.35440826 0.5534668 0.83509064 0.5534668 1.3362961l0 31.77945c0 1.0437164 -0.84606934 1.889801 -1.8897705 1.889801l-7.55896 0c-1.0437622 0 -1.8898315 -0.8460846 -1.8898315 -1.889801z" fill-rule="evenodd"/><path fill="#999999" d="m533.6904 108.598465l0 0c0 -1.0437088 0.84606934 -1.889801 1.8897705 -1.889801l7.559021 0l0 0c0.50115967 0 0.98187256 0.19910431 1.3362427 0.55350494c0.35443115 0.35440826 0.55352783 0.83509064 0.55352783 1.3362961l0 31.77945c0 1.0437164 -0.84606934 1.889801 -1.8897705 1.889801l-7.559021 0c-1.0437012 0 -1.8897705 -0.8460846 -1.8897705 -1.889801z" fill-rule="evenodd"/><path stroke="#434343" stroke-width="4.0" stroke-linejoin="round" stroke-linecap="butt" d="m533.6904 108.598465l0 0c0 -1.0437088 0.84606934 -1.889801 1.8897705 -1.889801l7.559021 0l0 0c0.50115967 0 0.98187256 0.19910431 1.3362427 0.55350494c0.35443115 0.35440826 0.55352783 0.83509064 0.55352783 1.3362961l0 31.77945c0 1.0437164 -0.84606934 1.889801 -1.8897705 1.889801l-7.559021 0c-1.0437012 0 -1.8897705 -0.8460846 -1.8897705 -1.889801z" fill-rule="evenodd"/><path fill="#999999" d="m552.0963 108.598465l0 0c0 -1.0437088 0.84606934 -1.889801 1.8897705 -1.889801l7.55896 0l0 0c0.5012207 0 0.9819336 0.19910431 1.3363037 0.55350494c0.35443115 0.35440826 0.55352783 0.83509064 0.55352783 1.3362961l0 31.77945c0 1.0437164 -0.84606934 1.889801 -1.8898315 1.889801l-7.55896 0c-1.0437012 0 -1.8897705 -0.8460846 -1.8897705 -1.889801z" fill-rule="evenodd"/><path stroke="#434343" stroke-width="4.0" stroke-linejoin="round" stroke-linecap="butt" d="m552.0963 108.598465l0 0c0 -1.0437088 0.84606934 -1.889801 1.8897705 -1.889801l7.55896 0l0 0c0.5012207 0 0.9819336 0.19910431 1.3363037 0.55350494c0.35443115 0.35440826 0.55352783 0.83509064 0.55352783 1.3362961l0 31.77945c0 1.0437164 -0.84606934 1.889801 -1.8898315 1.889801l-7.55896 0c-1.0437012 0 -1.8897705 -0.8460846 -1.8897705 -1.889801z" fill-rule="evenodd"/><path fill="#999999" d="m570.19037 108.59059l0 0c0 -1.0437088 0.84606934 -1.889801 1.8897705 -1.889801l7.559021 0l0 0c0.50115967 0 0.98187256 0.19910431 1.3362427 0.55350494c0.35443115 0.35440826 0.55352783 0.83509064 0.55352783 1.3362961l0 31.77945c0 1.0437012 -0.84606934 1.889801 -1.8897705 1.889801l-7.559021 0c-1.0437012 0 -1.8897705 -0.84609985 -1.8897705 -1.889801z" fill-rule="evenodd"/><path stroke="#434343" stroke-width="4.0" stroke-linejoin="round" stroke-linecap="butt" d="m570.19037 108.59059l0 0c0 -1.0437088 0.84606934 -1.889801 1.8897705 -1.889801l7.559021 0l0 0c0.50115967 0 0.98187256 0.19910431 1.3362427 0.55350494c0.35443115 0.35440826 0.55352783 0.83509064 0.55352783 1.3362961l0 31.77945c0 1.0437012 -0.84606934 1.889801 -1.8897705 1.889801l-7.559021 0c-1.0437012 0 -1.8897705 -0.84609985 -1.8897705 -1.889801z" fill-rule="evenodd"/></g></svg>