<svg version="1.1" viewBox="0.0 0.0 736.0 249.0" fill="none" stroke="none" stroke-linecap="square" stroke-miterlimit="10" xmlns:xlink="http://www.w3.org/1999/xlink" xmlns="http://www.w3.org/2000/svg"><clipPath id="p.0"><path d="m0 0l736.0 0l0 249.0l-736.0 0l0 -249.0z" clip-rule="nonzero"/></clipPath><g clip-path="url(#p.0)"><path fill="#000000" fill-opacity="0.0" d="m0 0l736.0 0l0 249.0l-736.0 0z" fill-rule="evenodd"/><path fill="#bb7554" d="m453.71652 104.30204l0 0c0 -5.6215286 4.5571594 -10.17868 10.17868 -10.17868l123.17023 0c2.699524 0 5.288513 1.0723953 7.1973877 2.9812698c1.9088745 1.9088669 2.9812622 4.497856 2.9812622 7.1974106l0 40.71351c0 5.621521 -4.557129 10.17868 -10.17865 10.17868l-123.17023 0c-5.621521 0 -10.17868 -4.5571594 -10.17868 -10.17868z" fill-rule="evenodd"/><path fill="#666666" d="m369.63254 37.1454l37.07086 0l0 174.67717l-37.07086 0z" fill-rule="evenodd"/><path fill="#666666" d="m407.36462 35.60105l25.35434 0l0 177.79529l-25.35434 0z" fill-rule="evenodd"/><path fill="#000000" d="m401.44385 35.60105l9.291321 0l0 177.79529l-9.291321 0z" fill-rule="evenodd"/><path fill="#bb7554" d="m193.45244 100.249214l-78.152466 0l-25.933037 -11.18763l-89.366936 0l0 71.194626l90.76903 0l23.479942 -10.168777l79.552284 0z" fill-rule="evenodd"/><path fill="#434343" d="m147.64305 93.902885l307.62207 0l0 61.511818l-307.62207 0z" fill-rule="evenodd"/><path fill="#999999" d="m159.02571 100.83912l60.18898 0l0 12.220474l-60.18898 0z" fill-rule="evenodd"/><path fill="#999999" d="m267.5136 118.5478l75.1181 0l0 12.220467l-75.1181 0z" fill-rule="evenodd"/><path fill="#999999" d="m159.02571 121.27395l41.385834 0l0 6.4566956l-41.385834 0z" fill-rule="evenodd"/><path fill="#999999" d="m159.02571 135.94434l60.18898 0l0 12.220474l-60.18898 0z" fill-rule="evenodd"/><path fill="#999999" d="m371.2546 144.33858l63.08661 0l0 10.425201l-63.08661 0z" fill-rule="evenodd"/><path stroke="#000000" stroke-width="4.0" stroke-linejoin="round" stroke-linecap="butt" d="m371.2546 144.33858l63.08661 0l0 10.425201l-63.08661 0z" fill-rule="evenodd"/><path fill="#999999" d="m371.2546 93.902885l63.08661 0l0 10.425201l-63.08661 0z" fill-rule="evenodd"/><path stroke="#000000" stroke-width="4.0" stroke-linejoin="round" stroke-linecap="butt" d="m371.2546 93.902885l63.08661 0l0 10.425201l-63.08661 0z" fill-rule="evenodd"/><path fill="#434343" d="m687.6693 102.955475l47.684998 0l0 43.055115l-47.684998 0z" fill-rule="evenodd"/><path fill="#434343" d="m454.6273 106.53124l212.75589 0l0 35.92344l-212.75589 0z" fill-rule="evenodd"/><path fill="#999999" d="m465.16382 104.43979l0 0c0 -1.2060623 0.97772217 -2.1837692 2.1837769 -2.1837692l8.734802 0l0 0c0.5791931 0 1.1346436 0.23007965 1.5441589 0.6396103c0.4095459 0.40953827 0.6396179 0.9649887 0.6396179 1.5441589l0 40.087006c0 1.2060547 -0.97769165 2.1837616 -2.1837769 2.1837616l-8.734802 0c-1.2060547 0 -2.1837769 -0.9777069 -2.1837769 -2.1837616z" fill-rule="evenodd"/><path stroke="#434343" stroke-width="4.0" stroke-linejoin="round" stroke-linecap="butt" d="m465.16382 104.43979l0 0c0 -1.2060623 0.97772217 -2.1837692 2.1837769 -2.1837692l8.734802 0l0 0c0.5791931 0 1.1346436 0.23007965 1.5441589 0.6396103c0.4095459 0.40953827 0.6396179 0.9649887 0.6396179 1.5441589l0 40.087006c0 1.2060547 -0.97769165 2.1837616 -2.1837769 2.1837616l-8.734802 0c-1.2060547 0 -2.1837769 -0.9777069 -2.1837769 -2.1837616z" fill-rule="evenodd"/><path fill="#999999" d="m486.46304 104.43979l0 0c0 -1.2060623 0.97769165 -2.1837692 2.1837463 -2.1837692l8.734833 0l0 0c0.5791626 0 1.134613 0.23007965 1.5441589 0.6396103c0.4095459 0.40953827 0.6396179 0.9649887 0.6396179 1.5441589l0 40.087006c0 1.2060547 -0.97772217 2.1837616 -2.1837769 2.1837616l-8.734833 0c-1.2060547 0 -2.1837463 -0.9777069 -2.1837463 -2.1837616z" fill-rule="evenodd"/><path stroke="#434343" stroke-width="4.0" stroke-linejoin="round" stroke-linecap="butt" d="m486.46304 104.43979l0 0c0 -1.2060623 0.97769165 -2.1837692 2.1837463 -2.1837692l8.734833 0l0 0c0.5791626 0 1.134613 0.23007965 1.5441589 0.6396103c0.4095459 0.40953827 0.6396179 0.9649887 0.6396179 1.5441589l0 40.087006c0 1.2060547 -0.97772217 2.1837616 -2.1837769 2.1837616l-8.734833 0c-1.2060547 0 -2.1837463 -0.9777069 -2.1837463 -2.1837616z" fill-rule="evenodd"/><path fill="#999999" d="m507.76224 104.43979l0 0c0 -1.2060623 0.97772217 -2.1837692 2.1837769 -2.1837692l8.734833 0l0 0c0.5791626 0 1.1345825 0.23007965 1.5441284 0.6396103c0.4095459 0.40953827 0.63964844 0.9649887 0.63964844 1.5441589l0 40.087006c0 1.2060547 -0.97772217 2.1837616 -2.1837769 2.1837616l-8.734833 0c-1.2060547 0 -2.1837769 -0.9777069 -2.1837769 -2.1837616z" fill-rule="evenodd"/><path stroke="#434343" stroke-width="4.0" stroke-linejoin="round" stroke-linecap="butt" d="m507.76224 104.43979l0 0c0 -1.2060623 0.97772217 -2.1837692 2.1837769 -2.1837692l8.734833 0l0 0c0.5791626 0 1.1345825 0.23007965 1.5441284 0.6396103c0.4095459 0.40953827 0.63964844 0.9649887 0.63964844 1.5441589l0 40.087006c0 1.2060547 -0.97772217 2.1837616 -2.1837769 2.1837616l-8.734833 0c-1.2060547 0 -2.1837769 -0.9777069 -2.1837769 -2.1837616z" fill-rule="evenodd"/><path fill="#999999" d="m529.06146 104.43979l0 0c0 -1.2060623 0.97772217 -2.1837692 2.1837769 -2.1837692l8.734802 0l0 0c0.5791626 0 1.1346436 0.23007965 1.5441895 0.6396103c0.40948486 0.40953827 0.6395874 0.9649887 0.6395874 1.5441589l0 40.087006c0 1.2060547 -0.97772217 2.1837616 -2.1837769 2.1837616l-8.734802 0c-1.2060547 0 -2.1837769 -0.9777069 -2.1837769 -2.1837616z" fill-rule="evenodd"/><path stroke="#434343" stroke-width="4.0" stroke-linejoin="round" stroke-linecap="butt" d="m529.06146 104.43979l0 0c0 -1.2060623 0.97772217 -2.1837692 2.1837769 -2.1837692l8.734802 0l0 0c0.5791626 0 1.1346436 0.23007965 1.5441895 0.6396103c0.40948486 0.40953827 0.6395874 0.9649887 0.6395874 1.5441589l0 40.087006c0 1.2060547 -0.97772217 2.1837616 -2.1837769 2.1837616l-8.734802 0c-1.2060547 0 -2.1837769 -0.9777069 -2.1837769 -2.1837616z" fill-rule="evenodd"/><path fill="#999999" d="m550.36066 104.43979l0 0c0 -1.2060623 0.97772217 -2.1837692 2.1837769 -2.1837692l8.734802 0l0 0c0.57922363 0 1.1346436 0.23007965 1.5441895 0.6396103c0.4095459 0.40953827 0.6395874 0.9649887 0.6395874 1.5441589l0 40.087006c0 1.2060547 -0.97766113 2.1837616 -2.1837769 2.1837616l-8.734802 0c-1.2060547 0 -2.1837769 -0.9777069 -2.1837769 -2.1837616z" fill-rule="evenodd"/><path stroke="#434343" stroke-width="4.0" stroke-linejoin="round" stroke-linecap="butt" d="m550.36066 104.43979l0 0c0 -1.2060623 0.97772217 -2.1837692 2.1837769 -2.1837692l8.734802 0l0 0c0.57922363 0 1.1346436 0.23007965 1.5441895 0.6396103c0.4095459 0.40953827 0.6395874 0.9649887 0.6395874 1.5441589l0 40.087006c0 1.2060547 -0.97766113 2.1837616 -2.1837769 2.1837616l-8.734802 0c-1.2060547 0 -2.1837769 -0.9777069 -2.1837769 -2.1837616z" fill-rule="evenodd"/><path fill="#999999" d="m571.65985 104.43979l0 0c0 -1.2060623 0.97772217 -2.1837692 2.1837769 -2.1837692l8.734863 0l0 0c0.5791626 0 1.1345825 0.23007965 1.5441284 0.6396103c0.4095459 0.40953827 0.63964844 0.9649887 0.63964844 1.5441589l0 40.087006c0 1.2060547 -0.97772217 2.1837616 -2.1837769 2.1837616l-8.734863 0c-1.2060547 0 -2.1837769 -0.9777069 -2.1837769 -2.1837616z" fill-rule="evenodd"/><path stroke="#434343" stroke-width="4.0" stroke-linejoin="round" stroke-linecap="butt" d="m571.65985 104.43979l0 0c0 -1.2060623 0.97772217 -2.1837692 2.1837769 -2.1837692l8.734863 0l0 0c0.5791626 0 1.1345825 0.23007965 1.5441284 0.6396103c0.4095459 0.40953827 0.63964844 0.9649887 0.63964844 1.5441589l0 40.087006c0 1.2060547 -0.97772217 2.1837616 -2.1837769 2.1837616l-8.734863 0c-1.2060547 0 -2.1837769 -0.9777069 -2.1837769 -2.1837616z" fill-rule="evenodd"/><path fill="#999999" d="m665.31494 99.79358l20.535461 0l0 49.732285l-20.535461 0z" fill-rule="evenodd"/><path stroke="#434343" stroke-width="4.0" stroke-linejoin="round" stroke-linecap="butt" d="m665.31494 99.79358l20.535461 0l0 49.732285l-20.535461 0z" fill-rule="evenodd"/><path fill="#999999" d="m695.15356 113.57218l10.456665 0l0 22.173225l-10.456665 0z" fill-rule="evenodd"/><path fill="#999999" d="m714.9134 113.396324l10.456665 0l0 22.173225l-10.456665 0z" fill-rule="evenodd"/><path fill="#434343" d="m670.3543 115.45932l10.456726 0l0 18.047241l-10.456726 0z" fill-rule="evenodd"/></g></svg>