<svg version="1.1" viewBox="0.0 0.0 801.0603674540682 251.4488188976378" fill="none" stroke="none" stroke-linecap="square" stroke-miterlimit="10" xmlns:xlink="http://www.w3.org/1999/xlink" xmlns="http://www.w3.org/2000/svg"><clipPath id="p.0"><path d="m0 0l801.06036 0l0 251.44882l-801.06036 0l0 -251.44882z" clip-rule="nonzero"/></clipPath><g clip-path="url(#p.0)"><path fill="#000000" fill-opacity="0.0" d="m0 0l801.06036 0l0 251.44882l-801.06036 0z" fill-rule="evenodd"/><path fill="#666666" d="m420.5853 17.913746l24.881897 0l0 215.55907l-24.881897 0z" fill-rule="evenodd"/><path fill="#666666" d="m445.90305 16.007862l17.007874 0l0 219.43307l-17.007874 0z" fill-rule="evenodd"/><path fill="#bb7554" d="m496.8058 106.575l0 0c0 -5.2794266 4.2798157 -9.55925 9.559235 -9.55925l117.63742 0c2.5352783 0 4.966675 1.0071335 6.7593994 2.7998428c1.7927246 1.7927017 2.7998657 4.2241364 2.7998657 6.759407l0 38.23584c0 5.279419 -4.279846 9.559235 -9.559265 9.559235l-117.63742 0c-5.279419 0 -9.559235 -4.2798157 -9.559235 -9.559235z" fill-rule="evenodd"/><path fill="#434343" d="m499.06277 105.986855l233.82681 0l0 39.527565l-233.82681 0z" fill-rule="evenodd"/><path fill="#000000" d="m441.9303 16.007862l6.236206 0l0 219.43307l-6.236206 0z" fill-rule="evenodd"/><path fill="#bb7554" d="m194.33563 101.155716l-78.15246 0l-25.933037 -11.275192l-89.366936 0l0 71.751816l90.76903 0l23.479942 -10.248367l79.55229 0z" fill-rule="evenodd"/><path fill="#434343" d="m193.65094 92.22169l307.62204 0l0 67.05512l-307.62204 0z" fill-rule="evenodd"/><path fill="#666666" d="m718.66473 95.21436l20.5354 0l0 61.07087l-20.5354 0z" fill-rule="evenodd"/><path fill="#666666" d="m508.59973 102.32033l0 0c0 -0.5740433 0.46536255 -1.0393906 1.0393982 -1.0393906l4.15744 0l0 0c0.27563477 0 0.54003906 0.1095047 0.73498535 0.3044281c0.19488525 0.1949234 0.30438232 0.45929718 0.30438232 0.73496246l0 46.868256c0 0.57403564 -0.46533203 1.0393982 -1.0393677 1.0393982l-4.15744 0c-0.57403564 0 -1.0393982 -0.46536255 -1.0393982 -1.0393982z" fill-rule="evenodd"/><path fill="#666666" d="m524.1678 102.32033l0 0c0 -0.5740433 0.46533203 -1.0393906 1.0393677 -1.0393906l4.1574707 0l0 0c0.27563477 0 0.54003906 0.1095047 0.7349243 0.3044281c0.19494629 0.1949234 0.30444336 0.45929718 0.30444336 0.73496246l0 46.868256c0 0.57403564 -0.46533203 1.0393982 -1.0393677 1.0393982l-4.1574707 0c-0.57403564 0 -1.0393677 -0.46536255 -1.0393677 -1.0393982z" fill-rule="evenodd"/><path fill="#666666" d="m539.73584 102.32033l0 0c0 -0.5740433 0.46533203 -1.0393906 1.0393677 -1.0393906l4.1574707 0l0 0c0.27563477 0 0.54003906 0.1095047 0.7349243 0.3044281c0.19494629 0.1949234 0.30444336 0.45929718 0.30444336 0.73496246l0 46.868256c0 0.57403564 -0.46533203 1.0393982 -1.0393677 1.0393982l-4.1574707 0c-0.57403564 0 -1.0393677 -0.46536255 -1.0393677 -1.0393982z" fill-rule="evenodd"/><path fill="#666666" d="m555.3039 102.32033l0 0c0 -0.5740433 0.46533203 -1.0393906 1.0393677 -1.0393906l4.1574097 0l0 0c0.2756958 0 0.54003906 0.1095047 0.73498535 0.3044281c0.19494629 0.1949234 0.30444336 0.45929718 0.30444336 0.73496246l0 46.868256c0 0.57403564 -0.46539307 1.0393982 -1.0394287 1.0393982l-4.1574097 0c-0.57403564 0 -1.0393677 -0.46536255 -1.0393677 -1.0393982z" fill-rule="evenodd"/><path fill="#666666" d="m570.8719 102.32033l0 0c0 -0.5740433 0.46539307 -1.0393906 1.0394287 -1.0393906l4.1574097 0l0 0c0.2756958 0 0.54003906 0.1095047 0.73498535 0.3044281c0.19488525 0.1949234 0.30444336 0.45929718 0.30444336 0.73496246l0 46.868256c0 0.57403564 -0.46539307 1.0393982 -1.0394287 1.0393982l-4.1574097 0c-0.57403564 0 -1.0394287 -0.46536255 -1.0394287 -1.0393982z" fill-rule="evenodd"/><path fill="#666666" d="m586.43994 102.32033l0 0c0 -0.5740433 0.46533203 -1.0393906 1.0394287 -1.0393906l4.1574097 0l0 0c0.2756958 0 0.54003906 0.1095047 0.73498535 0.3044281c0.19488525 0.1949234 0.30438232 0.45929718 0.30438232 0.73496246l0 46.868256c0 0.57403564 -0.46533203 1.0393982 -1.0393677 1.0393982l-4.1574097 0c-0.5740967 0 -1.0394287 -0.46536255 -1.0394287 -1.0393982z" fill-rule="evenodd"/><path fill="#666666" d="m602.008 102.32033l0 0c0 -0.5740433 0.46533203 -1.0393906 1.0393677 -1.0393906l4.1574707 0l0 0c0.27563477 0 0.54003906 0.1095047 0.7349243 0.3044281c0.19494629 0.1949234 0.30444336 0.45929718 0.30444336 0.73496246l0 46.868256c0 0.57403564 -0.46533203 1.0393982 -1.0393677 1.0393982l-4.1574707 0c-0.57403564 0 -1.0393677 -0.46536255 -1.0393677 -1.0393982z" fill-rule="evenodd"/><path fill="#666666" d="m617.57605 102.32033l0 0c0 -0.5740433 0.46533203 -1.0393906 1.0393677 -1.0393906l4.1574707 0l0 0c0.27563477 0 0.54003906 0.1095047 0.7349243 0.3044281c0.19494629 0.1949234 0.30444336 0.45929718 0.30444336 0.73496246l0 46.868256c0 0.57403564 -0.46533203 1.0393982 -1.0393677 1.0393982l-4.1574707 0c-0.57403564 0 -1.0393677 -0.46536255 -1.0393677 -1.0393982z" fill-rule="evenodd"/><path fill="#666666" d="m200.63649 97.95898l60.18898 0l0 14.3622055l-60.18898 0z" fill-rule="evenodd"/><path fill="#666666" d="m418.1076 95.21423l43.055115 0l0 14.3622055l-43.055115 0z" fill-rule="evenodd"/><path stroke="#000000" stroke-width="4.0" stroke-linejoin="round" stroke-linecap="butt" d="m418.1076 95.21423l43.055115 0l0 14.3622055l-43.055115 0z" fill-rule="evenodd"/><path fill="#434343" d="m739.1999 101.28346l60.97638 0l0 48.944885l-60.97638 0z" fill-rule="evenodd"/><path fill="#666666" d="m418.1076 141.95078l43.055115 0l0 14.362198l-43.055115 0z" fill-rule="evenodd"/><path stroke="#000000" stroke-width="4.0" stroke-linejoin="round" stroke-linecap="butt" d="m418.1076 141.95078l43.055115 0l0 14.362198l-43.055115 0z" fill-rule="evenodd"/><path fill="#666666" d="m745.93567 112.30824l11.874023 0l0 26.83464l-11.874023 0z" fill-rule="evenodd"/><path stroke="#000000" stroke-width="1.0" stroke-linejoin="round" stroke-linecap="butt" d="m745.93567 112.30824l11.874023 0l0 26.83464l-11.874023 0z" fill-rule="evenodd"/><path fill="#666666" d="m763.75275 112.32732l11.874023 0l0 26.83464l-11.874023 0z" fill-rule="evenodd"/><path stroke="#000000" stroke-width="1.0" stroke-linejoin="round" stroke-linecap="butt" d="m763.75275 112.32732l11.874023 0l0 26.83464l-11.874023 0z" fill-rule="evenodd"/><path fill="#666666" d="m781.56976 112.32732l11.874023 0l0 26.83464l-11.874023 0z" fill-rule="evenodd"/><path stroke="#000000" stroke-width="1.0" stroke-linejoin="round" stroke-linecap="butt" d="m781.56976 112.32732l11.874023 0l0 26.83464l-11.874023 0z" fill-rule="evenodd"/><path fill="#666666" d="m309.31366 118.55203l75.1181 0l0 14.362198l-75.1181 0z" fill-rule="evenodd"/><path fill="#666666" d="m200.63649 121.96312l41.38582 0l0 7.5905457l-41.38582 0z" fill-rule="evenodd"/><path fill="#666666" d="m200.63649 139.2039l60.18898 0l0 14.362198l-60.18898 0z" fill-rule="evenodd"/></g></svg>