<svg version="1.1" viewBox="0.0 0.0 957.8320209973754 272.0" fill="none" stroke="none" stroke-linecap="square" stroke-miterlimit="10" xmlns:xlink="http://www.w3.org/1999/xlink" xmlns="http://www.w3.org/2000/svg"><clipPath id="p.0"><path d="m0 0l957.83203 0l0 272.0l-957.83203 0l0 -272.0z" clip-rule="nonzero"/></clipPath><g clip-path="url(#p.0)"><path fill="#000000" fill-opacity="0.0" d="m0 0l957.83203 0l0 272.0l-957.83203 0z" fill-rule="evenodd"/><path fill="#999999" d="m3.5459318 109.59055l240.8504 0l0 52.8189l-240.8504 0z" fill-rule="evenodd"/><path fill="#666666" d="m241.28871 105.49606l197.4488 0l0 61.007874l-197.4488 0z" fill-rule="evenodd"/><path fill="#666666" d="m272.46457 111.480316l197.44882 0l0 49.039368l-197.44882 0z" fill-rule="evenodd"/><path fill="#434343" d="m703.80054 124.20473l197.44879 0l0 23.590546l-197.44879 0z" fill-rule="evenodd"/><path fill="#434343" d="m911.8268 121.44882l42.456665 0l0 29.102356l-42.456665 0z" fill-rule="evenodd"/><path fill="#434343" d="m911.89764 121.44882l-12.503967 2.9668808l0 5.6630325l12.503967 -2.9668732z" fill-rule="evenodd"/><path fill="#434343" d="m911.89764 150.55118l-12.503967 -2.9668732l0 -5.66304l12.503967 2.9668732z" fill-rule="evenodd"/><path fill="#999999" d="m469.91324 109.59055l302.14175 0l0 52.8189l-302.14175 0z" fill-rule="evenodd"/><path fill="#000000" d="m487.43372 115.597115l0 0c0 -1.722084 3.7720947 -3.1181107 8.425201 -3.1181107l0 0c4.6531067 0 8.425201 1.3960266 8.425201 3.1181107l0 0c0 1.722084 -3.7720947 3.1181107 -8.425201 3.1181107l0 0c-4.6531067 0 -8.425201 -1.3960266 -8.425201 -3.1181107z" fill-rule="evenodd"/><path fill="#000000" d="m514.4798 115.597115l0 0c0 -1.722084 3.7720947 -3.1181107 8.425171 -3.1181107l0 0c4.653137 0 8.425232 1.3960266 8.425232 3.1181107l0 0c0 1.722084 -3.7720947 3.1181107 -8.425232 3.1181107l0 0c-4.653076 0 -8.425171 -1.3960266 -8.425171 -3.1181107z" fill-rule="evenodd"/><path fill="#000000" d="m541.5259 115.597115l0 0c0 -1.722084 3.7720947 -3.1181107 8.425171 -3.1181107l0 0c4.653137 0 8.425232 1.3960266 8.425232 3.1181107l0 0c0 1.722084 -3.7720947 3.1181107 -8.425232 3.1181107l0 0c-4.653076 0 -8.425171 -1.3960266 -8.425171 -3.1181107z" fill-rule="evenodd"/><path fill="#000000" d="m568.57196 115.597115l0 0c0 -1.722084 3.7720947 -3.1181107 8.425171 -3.1181107l0 0c4.653137 0 8.425232 1.3960266 8.425232 3.1181107l0 0c0 1.722084 -3.7720947 3.1181107 -8.425232 3.1181107l0 0c-4.653076 0 -8.425171 -1.3960266 -8.425171 -3.1181107z" fill-rule="evenodd"/><path fill="#000000" d="m595.61804 115.597115l0 0c0 -1.722084 3.7720337 -3.1181107 8.425171 -3.1181107l0 0c4.653137 0 8.425171 1.3960266 8.425171 3.1181107l0 0c0 1.722084 -3.7720337 3.1181107 -8.425171 3.1181107l0 0c-4.653137 0 -8.425171 -1.3960266 -8.425171 -3.1181107z" fill-rule="evenodd"/><path fill="#000000" d="m622.66406 115.597115l0 0c0 -1.722084 3.7720947 -3.1181107 8.425232 -3.1181107l0 0c4.653076 0 8.425171 1.3960266 8.425171 3.1181107l0 0c0 1.722084 -3.7720947 3.1181107 -8.425171 3.1181107l0 0c-4.653137 0 -8.425232 -1.3960266 -8.425232 -3.1181107z" fill-rule="evenodd"/><path fill="#000000" d="m649.71014 115.597115l0 0c0 -1.722084 3.7720947 -3.1181107 8.425232 -3.1181107l0 0c4.653076 0 8.425171 1.3960266 8.425171 3.1181107l0 0c0 1.722084 -3.7720947 3.1181107 -8.425171 3.1181107l0 0c-4.653137 0 -8.425232 -1.3960266 -8.425232 -3.1181107z" fill-rule="evenodd"/><path fill="#000000" d="m676.7562 115.597115l0 0c0 -1.722084 3.7720947 -3.1181107 8.425232 -3.1181107l0 0c4.653076 0 8.425171 1.3960266 8.425171 3.1181107l0 0c0 1.722084 -3.7720947 3.1181107 -8.425171 3.1181107l0 0c-4.653137 0 -8.425232 -1.3960266 -8.425232 -3.1181107z" fill-rule="evenodd"/><path fill="#000000" d="m703.8023 115.597115l0 0c0 -1.722084 3.7720947 -3.1181107 8.425171 -3.1181107l0 0c4.653137 0 8.425232 1.3960266 8.425232 3.1181107l0 0c0 1.722084 -3.7720947 3.1181107 -8.425232 3.1181107l0 0c-4.653076 0 -8.425171 -1.3960266 -8.425171 -3.1181107z" fill-rule="evenodd"/><path fill="#000000" d="m730.8484 115.597115l0 0c0 -1.722084 3.7720947 -3.1181107 8.425171 -3.1181107l0 0c4.653137 0 8.425232 1.3960266 8.425232 3.1181107l0 0c0 1.722084 -3.7720947 3.1181107 -8.425232 3.1181107l0 0c-4.653076 0 -8.425171 -1.3960266 -8.425171 -3.1181107z" fill-rule="evenodd"/><path fill="#000000" d="m487.43372 156.43701l0 0c0 -1.7220917 3.7720947 -3.1181183 8.425201 -3.1181183l0 0c4.6531067 0 8.425201 1.3960266 8.425201 3.1181183l0 0c0 1.7220764 -3.7720947 3.118103 -8.425201 3.118103l0 0c-4.6531067 0 -8.425201 -1.3960266 -8.425201 -3.118103z" fill-rule="evenodd"/><path fill="#000000" d="m514.4798 156.43701l0 0c0 -1.7220917 3.7720947 -3.1181183 8.425171 -3.1181183l0 0c4.653137 0 8.425232 1.3960266 8.425232 3.1181183l0 0c0 1.7220764 -3.7720947 3.118103 -8.425232 3.118103l0 0c-4.653076 0 -8.425171 -1.3960266 -8.425171 -3.118103z" fill-rule="evenodd"/><path fill="#000000" d="m541.5259 156.43701l0 0c0 -1.7220917 3.7720947 -3.1181183 8.425171 -3.1181183l0 0c4.653137 0 8.425232 1.3960266 8.425232 3.1181183l0 0c0 1.7220764 -3.7720947 3.118103 -8.425232 3.118103l0 0c-4.653076 0 -8.425171 -1.3960266 -8.425171 -3.118103z" fill-rule="evenodd"/><path fill="#000000" d="m568.57196 156.43701l0 0c0 -1.7220917 3.7720947 -3.1181183 8.425171 -3.1181183l0 0c4.653137 0 8.425232 1.3960266 8.425232 3.1181183l0 0c0 1.7220764 -3.7720947 3.118103 -8.425232 3.118103l0 0c-4.653076 0 -8.425171 -1.3960266 -8.425171 -3.118103z" fill-rule="evenodd"/><path fill="#000000" d="m595.61804 156.43701l0 0c0 -1.7220917 3.7720337 -3.1181183 8.425171 -3.1181183l0 0c4.653137 0 8.425171 1.3960266 8.425171 3.1181183l0 0c0 1.7220764 -3.7720337 3.118103 -8.425171 3.118103l0 0c-4.653137 0 -8.425171 -1.3960266 -8.425171 -3.118103z" fill-rule="evenodd"/><path fill="#000000" d="m622.66406 156.43701l0 0c0 -1.7220917 3.7720947 -3.1181183 8.425232 -3.1181183l0 0c4.653076 0 8.425171 1.3960266 8.425171 3.1181183l0 0c0 1.7220764 -3.7720947 3.118103 -8.425171 3.118103l0 0c-4.653137 0 -8.425232 -1.3960266 -8.425232 -3.118103z" fill-rule="evenodd"/><path fill="#000000" d="m649.71014 156.43701l0 0c0 -1.7220917 3.7720947 -3.1181183 8.425232 -3.1181183l0 0c4.653076 0 8.425171 1.3960266 8.425171 3.1181183l0 0c0 1.7220764 -3.7720947 3.118103 -8.425171 3.118103l0 0c-4.653137 0 -8.425232 -1.3960266 -8.425232 -3.118103z" fill-rule="evenodd"/><path fill="#000000" d="m676.7562 156.43701l0 0c0 -1.7220917 3.7720947 -3.1181183 8.425232 -3.1181183l0 0c4.653076 0 8.425171 1.3960266 8.425171 3.1181183l0 0c0 1.7220764 -3.7720947 3.118103 -8.425171 3.118103l0 0c-4.653137 0 -8.425232 -1.3960266 -8.425232 -3.118103z" fill-rule="evenodd"/><path fill="#000000" d="m703.8023 156.43701l0 0c0 -1.7220917 3.7720947 -3.1181183 8.425171 -3.1181183l0 0c4.653137 0 8.425232 1.3960266 8.425232 3.1181183l0 0c0 1.7220764 -3.7720947 3.118103 -8.425232 3.118103l0 0c-4.653076 0 -8.425171 -1.3960266 -8.425171 -3.118103z" fill-rule="evenodd"/><path fill="#000000" d="m730.8484 156.43701l0 0c0 -1.7220917 3.7720947 -3.1181183 8.425171 -3.1181183l0 0c4.653137 0 8.425232 1.3960266 8.425232 3.1181183l0 0c0 1.7220764 -3.7720947 3.118103 -8.425232 3.118103l0 0c-4.653076 0 -8.425171 -1.3960266 -8.425171 -3.118103z" fill-rule="evenodd"/><path fill="#434343" d="m261.7743 122.1601l501.4803 0l0 27.716545l-501.4803 0z" fill-rule="evenodd"/><path fill="#000000" d="m319.27298 122.1601l4.3149414 0l0 27.716545l-4.3149414 0z" fill-rule="evenodd"/><path fill="#000000" d="m331.02362 122.1601l4.314972 0l0 27.716545l-4.314972 0z" fill-rule="evenodd"/><path fill="#000000" d="m342.7743 122.14173l4.3149414 0l0 27.71653l-4.3149414 0z" fill-rule="evenodd"/><path fill="#000000" d="m354.52493 122.14173l4.314972 0l0 27.71653l-4.314972 0z" fill-rule="evenodd"/><path fill="#000000" d="m366.2756 122.15092l4.3149414 0l0 27.71653l-4.3149414 0z" fill-rule="evenodd"/><path fill="#000000" d="m378.02625 122.15092l4.314972 0l0 27.71653l-4.314972 0z" fill-rule="evenodd"/><path fill="#000000" d="m389.77692 122.132545l4.3149414 0l0 27.71653l-4.3149414 0z" fill-rule="evenodd"/><path fill="#000000" d="m401.52756 122.132545l4.314972 0l0 27.71653l-4.314972 0z" fill-rule="evenodd"/><path fill="#000000" d="m413.27823 122.16798l4.3149414 0l0 27.716545l-4.3149414 0z" fill-rule="evenodd"/><path fill="#000000" d="m425.02887 122.16798l4.314972 0l0 27.716545l-4.314972 0z" fill-rule="evenodd"/><path fill="#000000" d="m473.1601 122.16929l4.314972 0l0 27.716545l-4.314972 0z" fill-rule="evenodd"/><path fill="#000000" d="m484.91077 122.16929l4.3149414 0l0 27.716545l-4.3149414 0z" fill-rule="evenodd"/><path fill="#000000" d="m496.6614 122.15092l4.314972 0l0 27.71653l-4.314972 0z" fill-rule="evenodd"/><path fill="#000000" d="m508.41208 122.15092l4.314972 0l0 27.71653l-4.314972 0z" fill-rule="evenodd"/><path fill="#000000" d="m520.1627 122.1601l4.3149414 0l0 27.716545l-4.3149414 0z" fill-rule="evenodd"/><path fill="#000000" d="m531.9134 122.1601l4.3149414 0l0 27.716545l-4.3149414 0z" fill-rule="evenodd"/><path fill="#000000" d="m543.66406 122.14173l4.3149414 0l0 27.71653l-4.3149414 0z" fill-rule="evenodd"/><path fill="#000000" d="m555.4147 122.14173l4.3150024 0l0 27.71653l-4.3150024 0z" fill-rule="evenodd"/><path fill="#000000" d="m567.16534 122.17716l4.3149414 0l0 27.716545l-4.3149414 0z" fill-rule="evenodd"/><path fill="#000000" d="m578.916 122.17716l4.3149414 0l0 27.716545l-4.3149414 0z" fill-rule="evenodd"/><path fill="#000000" d="m590.6667 122.16929l4.3149414 0l0 27.716545l-4.3149414 0z" fill-rule="evenodd"/><path fill="#000000" d="m602.4173 122.16929l4.3150024 0l0 27.716545l-4.3150024 0z" fill-rule="evenodd"/><path fill="#000000" d="m614.16797 122.15092l4.3149414 0l0 27.71653l-4.3149414 0z" fill-rule="evenodd"/><path fill="#000000" d="m625.91864 122.15092l4.3149414 0l0 27.71653l-4.3149414 0z" fill-rule="evenodd"/><path fill="#000000" d="m637.6693 122.1601l4.3149414 0l0 27.716545l-4.3149414 0z" fill-rule="evenodd"/><path fill="#000000" d="m649.4199 122.1601l4.3150024 0l0 27.716545l-4.3150024 0z" fill-rule="evenodd"/><path fill="#000000" d="m661.1706 122.14173l4.3149414 0l0 27.71653l-4.3149414 0z" fill-rule="evenodd"/><path fill="#000000" d="m672.92126 122.14173l4.3149414 0l0 27.71653l-4.3149414 0z" fill-rule="evenodd"/><path fill="#000000" d="m684.67194 122.17716l4.3149414 0l0 27.716545l-4.3149414 0z" fill-rule="evenodd"/><path fill="#000000" d="m696.42255 122.17716l4.3150024 0l0 27.716545l-4.3150024 0z" fill-rule="evenodd"/><path fill="#000000" d="m708.1732 122.16929l4.3149414 0l0 27.716545l-4.3149414 0z" fill-rule="evenodd"/><path fill="#000000" d="m719.9239 122.16929l4.3149414 0l0 27.716545l-4.3149414 0z" fill-rule="evenodd"/><path fill="#000000" d="m731.67456 122.15092l4.3149414 0l0 27.71653l-4.3149414 0z" fill-rule="evenodd"/><path fill="#000000" d="m743.4252 122.15092l4.3150024 0l0 27.71653l-4.3150024 0z" fill-rule="evenodd"/><path fill="#000000" d="m755.17584 122.1601l4.3149414 0l0 27.716545l-4.3149414 0z" fill-rule="evenodd"/></g></svg>