<svg version="1.1" viewBox="0.0 0.0 883.0 191.0" fill="none" stroke="none" stroke-linecap="square" stroke-miterlimit="10" xmlns:xlink="http://www.w3.org/1999/xlink" xmlns="http://www.w3.org/2000/svg"><clipPath id="p.0"><path d="m0 0l883.0 0l0 191.0l-883.0 0l0 -191.0z" clip-rule="nonzero"/></clipPath><g clip-path="url(#p.0)"><path fill="#000000" fill-opacity="0.0" d="m0 0l883.0 0l0 191.0l-883.0 0z" fill-rule="evenodd"/><path fill="#000000" d="m727.4382 23.104986l23.370056 0l0 67.74803l-23.370056 0z" fill-rule="evenodd"/><path fill="#999999" d="m524.92816 143.86008l17.858276 0l0 -39.244087l-17.858276 0z" fill-rule="evenodd"/><path fill="#999999" d="m316.706 145.72408l96.724396 0l0 -41.102356l-96.724396 0z" fill-rule="evenodd"/><path fill="#999999" d="m411.79153 38.13077l130.33072 0l0 61.669292l-130.33072 0z" fill-rule="evenodd"/><path fill="#999999" d="m333.4263 48.51244l224.28348 0l0 26.834644l-224.28348 0z" fill-rule="evenodd"/><path fill="#999999" d="m734.80896 144.80019l32.566956 0l0 -39.244095l-32.566956 0z" fill-rule="evenodd"/><path fill="#000000" d="m236.56693 68.95978l56.125977 0l0 53.102364l-56.125977 0z" fill-rule="evenodd"/><path fill="#666666" d="m316.706 54.22553l512.9764 0l0 82.58269l-512.9764 0z" fill-rule="evenodd"/><path fill="#434343" d="m67.18898 107.97024l189.60631 0l0 23.086617l-189.60631 0z" fill-rule="evenodd"/><path fill="#434343" d="m67.18898 60.624344l189.60631 0l0 23.086617l-189.60631 0z" fill-rule="evenodd"/><path fill="#434343" d="m0 51.089237l83.338585 0l0 88.8504l-83.338585 0z" fill-rule="evenodd"/><path fill="#999999" d="m289.55228 34.025917l16.472443 0l0 67.74803l-16.472443 0z" fill-rule="evenodd"/><path fill="#434343" d="m256.7953 51.089622l59.905487 0l0 88.850395l-59.905487 0z" fill-rule="evenodd"/><path fill="#505050" d="m316.706 70.19967l467.0551 0l0 50.614174l-467.0551 0z" fill-rule="evenodd"/><path fill="#505050" d="m783.75366 75.354004l45.921265 0l0 40.314957l-45.921265 0z" fill-rule="evenodd"/><path fill="#434343" d="m829.68243 77.60072l53.322815 0l0 35.81102l-53.322815 0z" fill-rule="evenodd"/></g></svg>