<svg version="1.1" viewBox="0.0 0.0 900.0 127.86089238845145" fill="none" stroke="none" stroke-linecap="square" stroke-miterlimit="10" xmlns:xlink="http://www.w3.org/1999/xlink" xmlns="http://www.w3.org/2000/svg"><clipPath id="p.0"><path d="m0 0l900.0 0l0 127.86089l-900.0 0l0 -127.86089z" clip-rule="nonzero"/></clipPath><g clip-path="url(#p.0)"><path fill="#000000" fill-opacity="0.0" d="m0 0l900.0 0l0 127.86089l-900.0 0z" fill-rule="evenodd"/><path fill="#999999" d="m545.65485 95.2336l16.724426 0l0 -25.41732l-16.724426 0z" fill-rule="evenodd"/><path fill="#999999" d="m350.5866 96.44095l90.61417 0l0 -26.614174l-90.61417 0z" fill-rule="evenodd"/><path fill="#999999" d="m439.66534 26.750656l122.11023 0l0 39.93701l-122.11023 0z" fill-rule="evenodd"/><path fill="#999999" d="m366.25067 33.475067l210.11023 0l0 17.385826l-210.11023 0z" fill-rule="evenodd"/><path fill="#999999" d="m742.2769 95.84252l30.519653 0l0 -25.417328l-30.519653 0z" fill-rule="evenodd"/><path fill="#666666" d="m350.5866 37.175854l497.88977 0l0 53.480312l-497.88977 0z" fill-rule="evenodd"/><path fill="#000000" d="m25.32677 35.144356l56.125988 0l0 57.543312l-56.125988 0z" fill-rule="evenodd"/><path fill="#000000" d="m274.67322 46.719162l56.126007 0l0 34.3937l-56.126007 0z" fill-rule="evenodd"/><path fill="#999999" d="m325.1483 24.091864l15.433075 0l0 43.874016l-15.433075 0z" fill-rule="evenodd"/><path fill="#434343" d="m81.45276 35.144356l56.125977 0l0 57.543312l-56.125977 0z" fill-rule="evenodd"/><path fill="#666666" d="m137.57874 71.98688l156.8819 0l0 14.960632l-156.8819 0z" fill-rule="evenodd"/><path fill="#666666" d="m137.57874 41.32021l156.8819 0l0 14.9606285l-156.8819 0z" fill-rule="evenodd"/><path fill="#434343" d="m294.46063 35.144356l56.125977 0l0 57.543312l-56.125977 0z" fill-rule="evenodd"/><path fill="#434343" d="m0.2874016 47.52231l25.03937 0l0 32.7874l-25.03937 0z" fill-rule="evenodd"/><path fill="#434343" d="m350.5866 47.52231l437.54333 0l0 32.7874l-437.54333 0z" fill-rule="evenodd"/><path fill="#434343" d="m788.12994 50.860893l92.97638 0l0 26.110237l-92.97638 0z" fill-rule="evenodd"/></g></svg>