<svg version="1.1" viewBox="0.0 0.0 883.0 191.0" fill="none" stroke="none" stroke-linecap="square" stroke-miterlimit="10" xmlns:xlink="http://www.w3.org/1999/xlink" xmlns="http://www.w3.org/2000/svg"><clipPath id="p.0"><path d="m0 0l883.0 0l0 191.0l-883.0 0l0 -191.0z" clip-rule="nonzero"/></clipPath><g clip-path="url(#p.0)"><path fill="#000000" fill-opacity="0.0" d="m0 0l883.0 0l0 191.0l-883.0 0z" fill-rule="evenodd"/><path fill="#999999" d="m545.05524 144.05952l16.724426 0l0 -39.49343l-16.724426 0z" fill-rule="evenodd"/><path fill="#999999" d="m349.987 145.93552l90.61417 0l0 -41.35311l-90.61417 0z" fill-rule="evenodd"/><path fill="#999999" d="m439.06573 37.650738l122.11023 0l0 62.054127l-122.11023 0z" fill-rule="evenodd"/><path fill="#999999" d="m365.65106 48.099125l210.11023 0l0 27.014095l-210.11023 0z" fill-rule="evenodd"/><path fill="#999999" d="m741.6773 145.00568l30.519653 0l0 -39.49344l-30.519653 0z" fill-rule="evenodd"/><path fill="#666666" d="m349.987 53.84941l497.88977 0l0 83.09772l-497.88977 0z" fill-rule="evenodd"/><path fill="#000000" d="m24.727163 50.69287l56.125984 0l0 89.4108l-56.125984 0z" fill-rule="evenodd"/><path fill="#000000" d="m274.0736 68.6778l56.126007 0l0 53.440926l-56.126007 0z" fill-rule="evenodd"/><path fill="#999999" d="m324.54868 33.519505l15.433075 0l0 68.17145l-15.433075 0z" fill-rule="evenodd"/><path fill="#434343" d="m80.85315 50.69287l56.125977 0l0 89.4108l-56.125977 0z" fill-rule="evenodd"/><path fill="#666666" d="m136.97913 107.938774l156.8819 0l0 23.245827l-156.8819 0z" fill-rule="evenodd"/><path fill="#666666" d="m136.97913 60.28891l156.8819 0l0 23.245827l-156.8819 0z" fill-rule="evenodd"/><path fill="#434343" d="m293.86102 50.69287l56.125977 0l0 89.4108l-56.125977 0z" fill-rule="evenodd"/><path fill="#434343" d="m349.987 69.925735l437.54333 0l0 50.94506l-437.54333 0z" fill-rule="evenodd"/><path fill="#434343" d="m787.53033 75.11322l92.97638 0l0 40.57009l-92.97638 0z" fill-rule="evenodd"/></g></svg>