<svg version="1.1" viewBox="0.0 0.0 883.0 191.0" fill="none" stroke="none" stroke-linecap="square" stroke-miterlimit="10" xmlns:xlink="http://www.w3.org/1999/xlink" xmlns="http://www.w3.org/2000/svg"><clipPath id="p.0"><path d="m0 0l883.0 0l0 191.0l-883.0 0l0 -191.0z" clip-rule="nonzero"/></clipPath><g clip-path="url(#p.0)"><path fill="#000000" fill-opacity="0.0" d="m0 0l883.0 0l0 191.0l-883.0 0z" fill-rule="evenodd"/><path fill="#999999" d="m546.45276 156.9275l16.724426 0l0 -49.87642l-16.724426 0z" fill-rule="evenodd"/><path fill="#999999" d="m351.38452 159.29668l90.61417 0l0 -52.22499l-90.61417 0z" fill-rule="evenodd"/><path fill="#999999" d="m440.46326 22.543427l122.11023 0l0 78.36839l-122.11023 0z" fill-rule="evenodd"/><path fill="#999999" d="m367.04855 35.738735l210.11026 0l0 34.116207l-210.11026 0z" fill-rule="evenodd"/><path fill="#999999" d="m743.0748 158.12239l30.519653 0l0 -49.87641l-30.519653 0z" fill-rule="evenodd"/><path fill="#666666" d="m351.38452 43.00079l497.88977 0l0 104.94441l-497.88977 0z" fill-rule="evenodd"/><path fill="#000000" d="m26.124672 39.014385l56.125984 0l0 112.91722l-56.125984 0z" fill-rule="evenodd"/><path fill="#000000" d="m275.47113 61.727623l56.125977 0l0 67.49076l-56.125977 0z" fill-rule="evenodd"/><path fill="#999999" d="m325.9462 17.326078l15.433075 0l0 86.09398l-15.433075 0z" fill-rule="evenodd"/><path fill="#434343" d="m82.250656 39.014385l56.12599 0l0 112.91722l-56.12599 0z" fill-rule="evenodd"/><path fill="#666666" d="m138.37665 111.31046l156.8819 0l0 29.357246l-156.8819 0z" fill-rule="evenodd"/><path fill="#666666" d="m138.37665 51.133263l156.8819 0l0 29.357246l-156.8819 0z" fill-rule="evenodd"/><path fill="#434343" d="m295.25854 39.014385l56.125977 0l0 112.91722l-56.125977 0z" fill-rule="evenodd"/><path fill="#434343" d="m351.38452 63.303642l437.54327 0l0 64.338715l-437.54327 0z" fill-rule="evenodd"/><path fill="#434343" d="m788.9278 69.85494l92.97638 0l0 51.236115l-92.97638 0z" fill-rule="evenodd"/></g></svg>