<svg version="1.1" viewBox="0.0 0.0 883.0 191.0" fill="none" stroke="none" stroke-linecap="square" stroke-miterlimit="10" xmlns:xlink="http://www.w3.org/1999/xlink" xmlns="http://www.w3.org/2000/svg"><clipPath id="p.0"><path d="m0 0l883.0 0l0 191.0l-883.0 0l0 -191.0z" clip-rule="nonzero"/></clipPath><g clip-path="url(#p.0)"><path fill="#000000" fill-opacity="0.0" d="m0 0l883.0 0l0 191.0l-883.0 0z" fill-rule="evenodd"/><path fill="#999999" d="m547.5486 151.54105l16.724365 0l0 -45.463974l-16.724365 0z" fill-rule="evenodd"/><path fill="#999999" d="m352.48032 153.70062l90.61417 0l0 -47.604767l-90.61417 0z" fill-rule="evenodd"/><path fill="#999999" d="m441.55905 29.045607l122.11026 0l0 71.435326l-122.11026 0z" fill-rule="evenodd"/><path fill="#999999" d="m368.14435 41.07356l210.11023 0l0 31.098026l-210.11023 0z" fill-rule="evenodd"/><path fill="#999999" d="m744.1706 152.63022l30.519714 0l0 -45.46396l-30.519714 0z" fill-rule="evenodd"/><path fill="#666666" d="m352.48032 47.693157l497.88974 0l0 95.66023l-497.88974 0z" fill-rule="evenodd"/><path fill="#000000" d="m27.220472 44.059418l56.125984 0l0 102.92772l-56.125984 0z" fill-rule="evenodd"/><path fill="#000000" d="m276.56693 64.76327l56.125977 0l0 61.52001l-56.125977 0z" fill-rule="evenodd"/><path fill="#999999" d="m327.042 24.289824l15.433075 0l0 78.47745l-15.433075 0z" fill-rule="evenodd"/><path fill="#434343" d="m83.34646 44.059418l56.125984 0l0 102.92772l-56.125984 0z" fill-rule="evenodd"/><path fill="#666666" d="m139.47244 109.95963l156.8819 0l0 26.760078l-156.8819 0z" fill-rule="evenodd"/><path fill="#666666" d="m139.47244 55.106167l156.8819 0l0 26.760082l-156.8819 0z" fill-rule="evenodd"/><path fill="#434343" d="m296.35434 44.059418l56.125977 0l0 102.92772l-56.125977 0z" fill-rule="evenodd"/><path fill="#434343" d="m352.48032 66.19987l437.5433 0l0 58.64682l-437.5433 0z" fill-rule="evenodd"/><path fill="#434343" d="m790.0236 72.171585l92.97638 0l0 46.703384l-92.97638 0z" fill-rule="evenodd"/></g></svg>