<svg version="1.1" viewBox="0.0 0.0 891.5223097112861 174.39632545931758" fill="none" stroke="none" stroke-linecap="square" stroke-miterlimit="10" xmlns:xlink="http://www.w3.org/1999/xlink" xmlns="http://www.w3.org/2000/svg"><clipPath id="p.0"><path d="m0 0l891.52234 0l0 174.39633l-891.52234 0l0 -174.39633z" clip-rule="nonzero"/></clipPath><g clip-path="url(#p.0)"><path fill="#000000" fill-opacity="0.0" d="m0 0l891.52234 0l0 174.39633l-891.52234 0z" fill-rule="evenodd"/><path fill="#bb7554" d="m255.40683 55.47536l128.53543 0l0 66.55118l-128.53543 0z" fill-rule="evenodd"/><path fill="#bb7554" d="m401.46194 131.4122l-77.700775 -19.425194l0 -46.472443l77.700775 -19.425194z" fill-rule="evenodd"/><path fill="#bb7554" d="m1.0577428 46.292446l284.72443 0l0 84.913376l-284.72443 0z" fill-rule="evenodd"/><path fill="#bb7554" d="m285.7979 46.07601l57.82675 14.456692l0 56.40945l-57.82675 14.456696z" fill-rule="evenodd"/><path fill="#666666" d="m401.46194 46.07601l38.551178 0l0 85.32284l-38.551178 0z" fill-rule="evenodd"/><path fill="#666666" d="m439.44095 34.048557l451.0236 0l0 106.29921l-451.0236 0z" fill-rule="evenodd"/><path fill="#666666" d="m425.60498 61.93832l0 0c0 -15.403091 6.35968 -27.889763 14.204742 -27.889763l0 0c3.7673035 0 7.3803406 2.9383774 10.0442505 8.16872c2.66391 5.2303467 4.1604614 12.324219 4.1604614 19.721043l0 0c0 15.403088 -6.35968 27.889767 -14.204712 27.889767l0 0c-7.8450623 0 -14.204742 -12.486679 -14.204742 -27.889767z" fill-rule="evenodd"/><path fill="#666666" d="m425.60498 112.05788l0 0c0 -15.403091 6.35968 -27.88977 14.204742 -27.88977l0 0c3.7673035 0 7.3803406 2.9383774 10.0442505 8.168724c2.66391 5.2303467 4.1604614 12.324219 4.1604614 19.721046l0 0c0 15.403091 -6.35968 27.889755 -14.204712 27.889755l0 0c-7.8450623 0 -14.204742 -12.486664 -14.204742 -27.889755z" fill-rule="evenodd"/><path fill="#999999" d="m439.44095 73.09914l451.0236 0l0 31.275597l-451.0236 0z" fill-rule="evenodd"/><path fill="#999999" d="m401.46194 53.125523l26.960632 6.740158l0 57.763783l-26.960632 6.740158z" fill-rule="evenodd"/><path fill="#999999" d="m401.4462 124.51729l-42.551178 -35.779526l42.551178 -35.77953z" fill-rule="evenodd"/><path fill="#b7b7b7" d="m372.61154 84.168106l55.811035 0l0 9.1653595l-55.811035 0z" fill-rule="evenodd"/></g></svg>