<svg version="1.1" viewBox="0.0 0.0 891.5223097112861 126.19160104986877" fill="none" stroke="none" stroke-linecap="square" stroke-miterlimit="10" xmlns:xlink="http://www.w3.org/1999/xlink" xmlns="http://www.w3.org/2000/svg"><clipPath id="p.0"><path d="m0 0l891.52234 0l0 126.191605l-891.52234 0l0 -126.191605z" clip-rule="nonzero"/></clipPath><g clip-path="url(#p.0)"><path fill="#000000" fill-opacity="0.0" d="m0 0l891.52234 0l0 126.191605l-891.52234 0z" fill-rule="evenodd"/><path fill="#bb7554" d="m254.34908 46.53281l128.53545 0l0 33.88976l-128.53545 0z" fill-rule="evenodd"/><path fill="#bb7554" d="m400.4042 85.20998l-77.700806 -10.866142l0 -21.732285l77.700806 -10.866142z" fill-rule="evenodd"/><path fill="#bb7554" d="m0 41.855644l284.7244 0l0 43.244095l-284.7244 0z" fill-rule="evenodd"/><path fill="#bb7554" d="m284.74014 41.745407l57.826782 10.866142l0 21.732285l-57.826782 10.866142z" fill-rule="evenodd"/><path fill="#666666" d="m400.4042 41.745407l38.551178 0l0 43.46457l-38.551178 0z" fill-rule="evenodd"/><path fill="#666666" d="m438.3832 35.619423l451.0236 0l0 54.14173l-451.0236 0z" fill-rule="evenodd"/><path fill="#666666" d="m424.54724 49.824146l0 0c0 -7.845051 6.35968 -14.204723 14.204742 -14.204723l0 0c3.7673035 0 7.3803406 1.496563 10.0442505 4.1604652c2.6638794 2.663906 4.1604614 6.276932 4.1604614 10.044258l0 0c0 7.8450546 -6.35968 14.204723 -14.204712 14.204723l0 0c-7.8450623 0 -14.204742 -6.3596687 -14.204742 -14.204723z" fill-rule="evenodd"/><path fill="#666666" d="m424.54724 75.35171l0 0c0 -7.8450546 6.35968 -14.204727 14.204742 -14.204727l0 0c3.7673035 0 7.3803406 1.4965668 10.0442505 4.160469c2.6638794 2.6639023 4.1604614 6.276932 4.1604614 10.044258l0 0c0 7.8450546 -6.35968 14.20472 -14.204712 14.20472l0 0c-7.8450623 0 -14.204742 -6.359665 -14.204742 -14.20472z" fill-rule="evenodd"/><path fill="#999999" d="m438.3832 55.509186l451.0236 0l0 15.937012l-451.0236 0z" fill-rule="evenodd"/><path fill="#999999" d="m400.4042 45.335957l26.960632 6.740158l0 22.80315l-26.960632 6.740158z" fill-rule="evenodd"/><path fill="#999999" d="m400.38846 81.698166l-42.551178 -18.220474l42.551178 -18.220474z" fill-rule="evenodd"/><path fill="#b7b7b7" d="m371.5538 61.14698l55.811035 0l0 4.661415l-55.811035 0z" fill-rule="evenodd"/></g></svg>