<svg version="1.1" viewBox="0.0 0.0 891.5223097112861 174.39632545931758" fill="none" stroke="none" stroke-linecap="square" stroke-miterlimit="10" xmlns:xlink="http://www.w3.org/1999/xlink" xmlns="http://www.w3.org/2000/svg"><clipPath id="p.0"><path d="m0 0l891.52234 0l0 174.39633l-891.52234 0l0 -174.39633z" clip-rule="nonzero"/></clipPath><g clip-path="url(#p.0)"><path fill="#000000" fill-opacity="0.0" d="m0 0l891.52234 0l0 174.39633l-891.52234 0z" fill-rule="evenodd"/><path fill="#bb7554" d="m255.40683 61.640804l128.53543 0l0 53.606297l-128.53543 0z" fill-rule="evenodd"/><path fill="#bb7554" d="m401.46194 122.81215l-77.700775 -17.181099l0 -34.362206l77.700775 -17.181107z" fill-rule="evenodd"/><path fill="#bb7554" d="m1.0577428 54.243454l284.72443 0l0 68.40945l-284.72443 0z" fill-rule="evenodd"/><path fill="#bb7554" d="m285.7979 54.069107l57.82675 14.456696l0 39.81102l-57.82675 14.456696z" fill-rule="evenodd"/><path fill="#666666" d="m401.46194 54.069107l38.551178 0l0 68.72441l-38.551178 0z" fill-rule="evenodd"/><path fill="#666666" d="m439.44095 44.38032l451.0236 0l0 85.63779l-451.0236 0z" fill-rule="evenodd"/><path fill="#666666" d="m425.60498 66.85276l0 0c0 -12.411182 6.35968 -22.472439 14.204742 -22.472439l0 0c3.7673035 0 7.3803406 2.3676262 10.0442505 6.5820274c2.66391 4.2143974 4.1604614 9.930351 4.1604614 15.890411l0 0c0 12.411186 -6.35968 22.472443 -14.204712 22.472443l0 0c-7.8450623 0 -14.204742 -10.061256 -14.204742 -22.472443z" fill-rule="evenodd"/><path fill="#666666" d="m425.60498 107.226845l0 0c0 -12.411186 6.35968 -22.472435 14.204742 -22.472435l0 0c3.7673035 0 7.3803406 2.3676224 10.0442505 6.5820236c2.66391 4.2144012 4.1604614 9.930351 4.1604614 15.890411l0 0c0 12.411186 -6.35968 22.47245 -14.204712 22.47245l0 0c-7.8450623 0 -14.204742 -10.061264 -14.204742 -22.47245z" fill-rule="evenodd"/><path fill="#999999" d="m439.44095 75.83774l451.0236 0l0 25.196846l-451.0236 0z" fill-rule="evenodd"/><path fill="#999999" d="m401.46194 59.74788l26.960632 6.740158l0 43.90551l-26.960632 6.740158z" fill-rule="evenodd"/><path fill="#999999" d="m401.4462 117.25791l-42.551178 -28.818901l42.551178 -28.818893z" fill-rule="evenodd"/><path fill="#b7b7b7" d="m372.61154 84.75441l55.811035 0l0 7.370079l-55.811035 0z" fill-rule="evenodd"/></g></svg>